<?xml version="1.0" encoding="UTF-8"?>
<svg width="127px" height="50px" viewBox="0 0 127 50" version="1.1" xmlns="http://www.w3.org/2000/svg" xmlns:xlink="http://www.w3.org/1999/xlink">
    <title>8BC5D009-9691-49C7-9330-E6852EE08CA1@2x</title>
    <g id="Page-1" stroke="none" stroke-width="1" fill="none" fill-rule="evenodd">
        <g id="Home-A" transform="translate(-359.000000, -1629.000000)" fill="#353535" fill-rule="nonzero">
            <g id="airplane" transform="translate(359.000000, 1629.331136)">
                <path d="M126.340922,18.2871237 C125.705908,17.4278683 124.701199,16.9207999 123.632854,16.9207999 L111.654119,16.9207999 L113.939968,3.95149751 C114.112694,2.9713672 113.842998,1.96497439 113.203271,1.20268823 C112.563543,0.440402074 111.619439,-9.56955641e-15 110.624158,-9.56955641e-15 L100.650801,-9.56955641e-15 C99.5063622,-9.56955641e-15 98.4400369,0.581478885 97.8201744,1.54376415 L87.9158415,16.9204632 C79.5229497,16.9204632 44.3456657,16.9221467 24.0040057,16.9352779 C13.7020314,16.9420119 4.53506901,23.112018 0.649564472,32.654063 C-0.423831409,35.2904148 -0.15514574,38.3048795 1.36841648,40.718 C2.87413366,43.1028379 5.33506544,44.5631007 8.11855469,44.7243794 C8.29363809,44.7344804 8.46905818,44.7395309 8.64582507,44.7395309 L32.6356169,44.7395309 C34.2396502,47.5738617 37.2834076,49.4916982 40.7658837,49.4916982 L52.5611172,49.4916982 C54.4203682,49.4916982 55.9281055,47.9842975 55.9281055,46.1247099 L55.9281055,44.7395309 L75.1751577,44.7395309 C86.0178702,44.7395309 96.5814594,42.6028401 106.572324,38.3887175 L122.382018,31.7200604 C123.299859,31.3328567 123.999182,30.5591228 124.291773,29.6069385 L126.851695,21.2766727 C127.165161,20.2558018 126.9756,19.1463792 126.340922,18.2871237 Z M118.316379,26.1268194 L103.954827,32.1847048 C94.7969556,36.0476505 85.1138338,38.0062276 75.174821,38.0062276 L52.5607805,38.0062276 C50.7015296,38.0062276 49.1937922,39.5136283 49.1937922,41.373216 L49.1937922,42.758395 L40.765547,42.758395 C39.3312099,42.758395 38.1645485,41.5917335 38.1645485,40.1573965 C38.1645485,36.6415872 41.0248051,33.780994 44.540951,33.780994 L60.3711833,33.780994 C61.9698294,33.780994 63.472853,34.4035501 64.6028143,35.5338481 C65.9172865,36.8493304 68.0496002,36.8493304 69.3644092,35.5341848 C70.6792181,34.2193758 70.6795548,32.0873988 69.3647459,30.7725899 C66.9627364,28.3702437 63.7688113,27.0470173 60.3711833,27.0470173 L44.540951,27.0470173 C38.044347,27.0470173 32.636627,31.796491 31.6073387,38.0058909 L8.64515167,38.0058909 C8.60037072,38.0058909 8.55558978,38.0048808 8.50946204,38.0018505 C7.70273163,37.9550494 7.25626898,37.4314827 7.06199375,37.1234033 C6.88623696,36.8449533 6.51687834,36.0995021 6.88590026,35.1937823 C7.21889541,34.3762775 7.60643577,33.5941261 8.04044056,32.8473281 C8.16939622,32.8621428 8.29969867,32.8719071 8.43235801,32.8719071 L20.9184975,32.8719071 C22.7777485,32.8719071 24.2854859,31.3645064 24.2854859,29.5049188 C24.2854859,27.6453311 22.7777485,26.1379304 20.9184975,26.1379304 L14.7626328,26.1379304 C17.5090852,24.5537624 20.6774212,23.6716115 24.008046,23.6695913 C47.2197269,23.6547765 89.7515236,23.6547765 89.7518603,23.6547765 C90.8962996,23.6547765 91.9626248,23.0732977 92.5824873,22.1110124 L102.48682,6.73431337 L106.611718,6.73431337 L104.325869,19.7036157 C104.153143,20.683746 104.422839,21.6898021 105.062566,22.452425 C105.702294,23.2150479 106.646398,23.6551132 107.641679,23.6551132 L119.075635,23.6551132 L118.316379,26.1268194 Z" id="Shape"></path>
            </g>
        </g>
    </g>
</svg>