<?xml version="1.0" encoding="UTF-8"?>
<svg width="59px" height="84px" viewBox="0 0 59 84" version="1.1" xmlns="http://www.w3.org/2000/svg" xmlns:xlink="http://www.w3.org/1999/xlink">
    <title>1937CF7C-9937-4BDB-8487-0F400421A09E@2x</title>
    <g id="Page-1" stroke="none" stroke-width="1" fill="none" fill-rule="evenodd">
        <g id="Home-A" transform="translate(-638.000000, -2051.000000)" fill="#353535" fill-rule="nonzero">
            <g id="blood" transform="translate(638.750000, 2051.149419)">
                <path d="M55.1845479,77.9042054 L31.3803367,77.9042054 C28.6880783,77.9042054 26.362588,76.308595 25.2963164,74.0137625 L26.6196633,74.0137625 C28.1744903,74.0137625 29.4351153,72.7531375 29.4351153,71.1983105 L29.4351153,64.4921343 L32.2440983,64.4921343 C38.5705682,64.4921343 43.717417,59.3452854 43.717417,53.0188156 L43.717417,9.30758637 C43.717417,7.7527593 42.456792,6.49213431 40.901965,6.49213431 L29.7220045,6.49213431 C29.010688,2.79885749 25.7564642,0 21.8589898,0 C17.9615153,0 14.7070103,2.79885749 13.9956938,6.49185304 L2.81545206,6.49185304 C1.26062499,6.49185304 0,7.75247803 0,9.3073051 L0,53.0185343 C0,59.3450042 5.14684887,64.491853 11.4733187,64.491853 L14.282583,64.491853 L14.282583,71.1980292 C14.282583,72.7528563 15.543208,74.0134813 17.098035,74.0134813 L19.3712102,74.0134813 C20.6489923,79.4638139 25.5463601,83.5353908 31.3803367,83.5353908 L55.1845479,83.5353908 C56.739375,83.5353908 58,82.2747658 58,80.7199387 C58,79.1651116 56.739375,77.9042054 55.1845479,77.9042054 Z M21.8589898,5.63118538 C22.5939325,5.63118538 23.2518088,5.966452 23.6883305,6.49213431 L20.0293678,6.49213431 C20.4658895,5.966452 21.1237658,5.63118538 21.8589898,5.63118538 Z M38.0865129,12.1230384 L38.0865129,25.5351095 L5.63090412,25.5351095 L5.63090412,12.1230384 L38.0865129,12.1230384 Z M5.63090412,53.0188156 L5.63090412,31.1662949 L38.0865129,31.1662949 L38.0865129,53.0188156 C38.0865129,56.2401315 35.4656955,58.8609489 32.2443796,58.8609489 L11.4733187,58.8609489 C8.25172153,58.8612302 5.63090412,56.2401315 5.63090412,53.0188156 Z M23.8042112,64.4921343 L23.8042112,68.3828584 L19.9134871,68.3828584 L19.9134871,64.4921343 L23.8042112,64.4921343 Z" id="Shape"></path>
                <path d="M29.4353966,47.3940993 C29.4353966,44.2284736 25.7570267,38.5615677 24.1754796,36.2720792 C23.6497973,35.510979 22.7840669,35.0567377 21.8589898,35.0567377 C20.9339127,35.0567377 20.0681823,35.510979 19.5425,36.2720792 C17.9609528,38.5615677 14.282583,44.2284736 14.282583,47.3940993 C14.282583,51.5717126 17.6813764,54.9705061 21.8589898,54.9705061 C26.0366031,54.9705061 29.4353966,51.5717126 29.4353966,47.3940993 Z M19.9134871,47.4101313 C19.9683336,46.7488798 20.7516536,45.0767657 21.8598336,43.1467325 C22.9716699,45.0812659 23.7558338,46.7530988 23.8039299,47.3943805 C23.8039299,48.4671212 22.9311679,49.339602 21.8587085,49.339602 C20.7915931,49.3393207 19.9222063,48.4755591 19.9134871,47.4101313 Z" id="Shape"></path>
            </g>
        </g>
    </g>
</svg>