<?xml version="1.0" encoding="UTF-8"?>
<svg width="128px" height="55px" viewBox="0 0 128 55" version="1.1" xmlns="http://www.w3.org/2000/svg" xmlns:xlink="http://www.w3.org/1999/xlink">
    <title>13AA44AD-F3F0-4EAE-B29E-42C5A7A36D81@2x</title>
    <g id="Page-1" stroke="none" stroke-width="1" fill="none" fill-rule="evenodd">
        <g id="Home-A" transform="translate(-853.000000, -1629.000000)" fill="#353535" fill-rule="nonzero">
            <g id="bus" transform="translate(853.000000, 1629.331136)">
                <path d="M127.130566,16.3121581 L120.795592,9.97718377 C120.238929,9.42052069 119.483649,9.10760181 118.696304,9.10760181 L115.77078,9.10760181 L115.77078,2.96886978 C115.77078,1.329163 114.441617,0 112.80191,0 L2.96886978,0 C1.329163,0 0,1.329163 0,2.96886978 L0,44.3558051 C0,45.9955119 1.329163,47.3246749 2.96886978,47.3246749 L11.5405906,47.3246749 C12.5366464,51.524735 16.3163145,54.6598615 20.8165273,54.6598615 C25.3167401,54.6598615 29.0964082,51.524735 30.0924641,47.3246749 L36.7267005,47.3246749 C37.7227563,51.524735 41.5021275,54.6598615 46.0026372,54.6598615 C50.5031469,54.6598615 54.2825181,51.524735 55.2785739,47.3246749 L82.4826246,47.3246749 C83.4786804,51.524735 87.2583485,54.6598615 91.7585613,54.6598615 C96.2587741,54.6598615 100.038442,51.524735 101.034498,47.3246749 L112.801316,47.3246749 C114.441023,47.3246749 115.770186,45.9955119 115.770186,44.3558051 L115.770186,15.0453414 L117.466005,15.0453414 L122.931397,20.5107337 C123.511217,21.090554 124.270951,21.3803157 125.030685,21.3803157 C125.790419,21.3803157 126.550449,21.090554 127.129973,20.5107337 C128.28991,19.3513901 128.28991,17.4715017 127.130566,16.3121581 Z M106.524829,15.0456383 L109.83304,15.0456383 L109.83304,25.6151115 L84.5563801,18.9010125 L84.5563801,5.93803644 L109.83304,5.93803644 L109.83304,9.1078987 L106.524829,9.1078987 C104.885122,9.1078987 103.555959,10.4370617 103.555959,12.0767685 C103.555959,13.7164753 104.885122,15.0456383 106.524829,15.0456383 Z M95.3562377,45.1250393 C95.3562377,47.1085412 93.7423601,48.7221219 91.7588582,48.7221219 C89.7753563,48.7221219 88.1614787,47.1082443 88.1614787,45.1250393 C88.1614787,43.1415374 89.7753563,41.5276598 91.7588582,41.5276598 C93.7423601,41.5276598 95.3562377,43.1415374 95.3562377,45.1250393 Z M49.6000167,45.1250393 C49.6000167,47.1085412 47.9861391,48.7221219 46.0026372,48.7221219 C44.0191353,48.7221219 42.4055546,47.1082443 42.4055546,45.1250393 C42.4055546,43.1415374 44.0194322,41.5276598 46.0026372,41.5276598 C47.986436,41.5276598 49.6000167,43.1415374 49.6000167,45.1250393 Z M24.4139068,45.1250393 C24.4139068,47.1085412 22.8000292,48.7221219 20.8165273,48.7221219 C18.8330254,48.7221219 17.2194447,47.1085412 17.2194447,45.1250393 C17.2194447,43.1415374 18.8333223,41.5276598 20.8168242,41.5276598 C22.8003261,41.5276598 24.4139068,43.1415374 24.4139068,45.1250393 Z M91.7588582,35.5899202 C87.8274808,35.5899202 84.4444537,37.9822355 82.9879262,41.3869353 L54.7735692,41.3869353 C53.3170417,37.9819386 49.9340145,35.5899202 46.0026372,35.5899202 C42.0712598,35.5899202 38.6885296,37.9822355 37.2317052,41.3869353 L29.5877562,41.3869353 C28.1312287,37.9819386 24.7482016,35.5899202 20.8168242,35.5899202 C16.8854469,35.5899202 13.5024197,37.9822355 12.0458922,41.3869353 L5.93773955,41.3869353 L5.93773955,24.1529432 L81.1997759,24.1529432 L109.32477,31.6238071 C109.494292,31.6689339 109.663815,31.6926849 109.832744,31.7075292 L109.832744,41.3872322 L100.52979,41.3872322 C99.0732626,37.9822355 95.6905324,35.5899202 91.7588582,35.5899202 Z M78.6186406,18.2152036 L5.93773955,18.2152036 L5.93773955,5.93773955 L78.6186406,5.93773955 L78.6186406,18.2152036 Z" id="Shape"></path>
            </g>
        </g>
    </g>
</svg>