<?xml version="1.0" encoding="UTF-8"?>
<svg width="129px" height="49px" viewBox="0 0 129 49" version="1.1" xmlns="http://www.w3.org/2000/svg" xmlns:xlink="http://www.w3.org/1999/xlink">
    <title>BF80144B-C068-457B-A7E7-49FACDFF9275@2x</title>
    <g id="Page-1" stroke="none" stroke-width="1" fill="none" fill-rule="evenodd">
        <g id="Home-A" transform="translate(-1393.000000, -1635.000000)" fill="#353535" fill-rule="nonzero">
            <path d="M1518.98886,1643.96096 C1517.41718,1642.95844 1515.46861,1642.82888 1513.77847,1643.61524 L1510.72588,1645.03449 L1505.64609,1645.03449 C1500.97021,1643.10151 1474.31169,1632.64331 1455.02067,1637.05314 C1452.7004,1637.5835 1450.38221,1638.48036 1448.13157,1639.71879 C1442.08979,1643.04331 1437.33805,1645.77616 1435.53982,1646.81782 C1429.64561,1646.71286 1405.04998,1646.72082 1394.95517,1653.9068 C1393.80958,1654.72226 1393.27091,1656.14948 1393.59134,1657.51885 L1397.2311,1673.06064 C1397.59795,1674.62712 1398.99503,1675.73495 1400.60377,1675.73495 C1400.60446,1675.73495 1400.6055,1675.73495 1400.6062,1675.73495 L1406.55064,1675.73114 C1408.03086,1680.50955 1412.49126,1683.991 1417.74946,1683.991 C1423.0132,1683.991 1427.47707,1680.50262 1428.95209,1675.71624 L1483.09394,1675.68056 C1484.55788,1680.48496 1489.03006,1683.991 1494.30662,1683.991 C1499.60881,1683.991 1504.09762,1680.45032 1505.53939,1675.61024 C1505.83696,1675.55862 1506.12795,1675.47306 1506.40369,1675.34523 L1519.49185,1669.28198 C1520.71641,1668.7149 1521.5,1667.48825 1521.5,1666.13898 L1521.5,1648.54087 C1521.5,1646.67579 1520.56122,1644.96382 1518.98886,1643.96096 Z M1489.5147,1672.27082 C1489.5147,1669.62839 1491.66418,1667.4789 1494.30662,1667.4789 C1496.94905,1667.4789 1499.09854,1669.62839 1499.09854,1672.27082 C1499.09854,1674.91326 1496.94905,1677.06275 1494.30662,1677.06275 C1491.66418,1677.06275 1489.5147,1674.91326 1489.5147,1672.27082 Z M1422.54138,1672.27082 C1422.54138,1674.91326 1420.39189,1677.06275 1417.74946,1677.06275 C1415.10702,1677.06275 1412.95753,1674.91326 1412.95753,1672.27082 C1412.95753,1669.62839 1415.10702,1667.4789 1417.74946,1667.4789 C1420.39189,1667.4789 1422.54138,1669.62839 1422.54138,1672.27082 Z M1436.33726,1653.76651 C1436.37052,1653.76755 1436.40412,1653.76789 1436.43737,1653.76789 L1466.24721,1653.76789 C1468.1601,1653.76789 1469.71133,1652.21666 1469.71133,1650.30377 C1469.71133,1648.39088 1468.1601,1646.83964 1466.24721,1646.83964 L1449.56952,1646.83964 C1450.18683,1646.49739 1450.82146,1646.14682 1451.47168,1645.78897 C1453.15836,1644.86094 1454.87171,1644.19409 1456.56463,1643.80715 C1475.11086,1639.56741 1503.29394,1651.55813 1503.57558,1651.67972 C1504.00859,1651.86643 1504.47556,1651.96274 1504.94737,1651.96274 L1511.4918,1651.96274 C1511.99617,1651.96274 1512.49466,1651.85258 1512.95227,1651.63988 L1514.57175,1650.88678 L1514.57175,1663.92575 L1505.30418,1668.21918 C1503.65144,1663.74734 1499.34554,1660.55065 1494.30662,1660.55065 C1489.06956,1660.55065 1484.62474,1664.00369 1483.12685,1668.75231 L1428.94135,1668.78834 C1427.4549,1664.02101 1422.99969,1660.55065 1417.74946,1660.55065 C1412.49403,1660.55065 1408.03536,1664.02828 1406.55341,1668.80289 L1403.35082,1668.80497 L1400.91693,1658.4119 C1409.78821,1654.05853 1429.10867,1653.55727 1436.33726,1653.76651 Z" id="Shape"></path>
        </g>
    </g>
</svg>