<?xml version="1.0" encoding="UTF-8"?>
<svg width="85px" height="83px" viewBox="0 0 85 83" version="1.1" xmlns="http://www.w3.org/2000/svg" xmlns:xlink="http://www.w3.org/1999/xlink">
    <title>49732F5C-7DAD-4D01-9B52-E8EAF25FF30E@2x</title>
    <g id="Page-1" stroke="none" stroke-width="1" fill="none" fill-rule="evenodd">
        <g id="Home-A" transform="translate(-1141.000000, -2049.000000)" fill="#353535" fill-rule="nonzero">
            <g id="athlete" transform="translate(1141.323886, 2049.585123)">
                <path d="M83.9168097,78.6653079 C83.5740223,77.2944411 83.3211742,75.9742004 83.0768109,74.6972324 C82.0459031,69.3110577 80.9796419,63.7416106 73.2044199,62.1866227 L64.9107743,60.527837 C63.1829787,60.1822213 61.9292025,58.6524052 61.9292025,56.8906701 L61.9292025,52.9214633 C66.4058027,49.7223968 69.4552532,45.0212313 70.5393325,39.6002688 L71.6763007,33.9151451 L72.6164207,33.9151451 C74.1422773,33.9151451 75.3796494,32.6780558 75.3796494,31.1519164 L75.3796494,20.4808194 C75.3796494,18.9549629 74.1425601,17.7175908 72.6164207,17.7175908 L72.4068452,17.7175908 C68.576224,10.2266108 60.784598,5.08310249 51.8090543,5.08310249 C48.8139068,5.08310249 45.9528197,5.66176839 43.3236515,6.70285792 C42.0339562,4.86702197 39.6471715,2.24435878 35.8971563,0.888481787 C31.5274651,-0.691960561 26.5737343,-0.161941062 21.173701,2.46270192 C11.4721381,7.17914011 10.8479369,16.0288253 10.297271,23.8371382 C9.75961516,31.4593503 9.29577739,38.0418871 1.58277752,41.6864075 C0.520758722,42.1881442 -0.107967717,43.3067286 0.0153452504,44.4748078 C0.138941046,45.6431699 0.987424769,46.6056333 2.130898,46.8743198 C2.32124118,46.9190066 5.99941812,47.7672075 10.9319368,47.7672075 C12.1302787,47.7672075 13.4030043,47.717147 14.7173056,47.5932683 C22.6806081,46.8432087 28.8796302,43.6981624 32.8477058,38.4443512 L33.079059,39.6005517 C34.1631384,45.0212313 37.2125889,49.7223968 41.6889061,52.9214633 L41.6889061,56.890953 C41.6889061,58.652688 40.4348472,60.1825042 38.7076172,60.5281199 L30.4136888,62.1869056 C22.6384668,63.7418934 21.5722056,69.3113405 20.5412978,74.6975152 C20.2969345,75.9744832 20.0440864,77.2947239 19.7012989,78.6655908 C19.3310772,80.1461949 20.2313184,81.6465969 21.7116397,82.0165358 C21.9367707,82.0728186 22.1621846,82.0996872 22.3842045,82.0996872 C23.6221422,82.0996872 24.7486458,81.2616681 25.0625848,80.0061951 C25.4427055,78.4857122 25.7224223,77.0249061 25.9690482,75.736625 C26.8079158,71.355055 27.3127636,69.3161486 29.4280335,68.2634631 L29.4280335,79.3358929 C29.4280335,80.8617495 30.6651228,82.0996872 32.1912622,82.0996872 C33.7171187,82.0996872 34.9544908,80.8620323 34.9544908,79.3358929 L34.9544908,66.914374 L37.7686285,66.3515465 L37.7734366,67.262818 C37.7994568,72.1843064 40.9538364,76.5364623 45.6227595,78.0928643 L50.9633989,79.8729831 C51.2470753,79.9674476 51.5420648,80.0146799 51.8370543,80.0146799 C52.1320438,80.0146799 52.4273162,79.9674476 52.7107097,79.8729831 L58.0182582,78.1038945 C62.7134843,76.5387249 65.867864,72.161963 65.867864,67.2133231 L65.867864,66.3549404 L68.6644663,66.914374 L68.6644663,79.3356101 C68.6644663,80.8614666 69.9015556,82.0988387 71.427695,82.0988387 C72.9535516,82.0988387 74.1909237,80.8617495 74.1909237,79.3356101 L74.1909237,68.2631803 C76.3061936,69.3158658 76.8110414,71.3547722 77.649909,75.7363421 C77.8965349,77.0249061 78.1759689,78.4854294 78.5563724,80.0059122 C78.8703114,81.2613853 79.9968149,82.0996872 81.2347527,82.0996872 C81.4564898,82.0996872 81.6821864,82.0728186 81.9073175,82.016253 C83.3867902,81.6463141 84.2870315,80.145912 83.9168097,78.6653079 Z M33.7649167,28.3889706 L33.7649167,23.2440481 L69.853192,23.2440481 L69.853192,28.3889706 L33.7649167,28.3889706 Z M65.9249952,17.7178736 L37.6936791,17.7178736 C40.903493,13.408142 46.0339913,10.6095598 51.8087715,10.6095598 C57.5838346,10.6095598 62.7148985,13.408142 65.9249952,17.7178736 Z M10.1906449,42.2175583 C14.9017093,37.1079893 15.3774259,30.3597154 15.8098698,24.2263094 C16.3195256,16.9969453 16.7598887,10.7532364 23.589617,7.43368523 C27.56844,5.499708 31.0568394,5.03898133 33.9563912,6.0642325 C36.0679843,6.81033252 37.5338814,8.23861345 38.4239408,9.3690766 C35.3985307,11.5250737 32.9136047,14.3884235 31.2109806,17.7184393 L31.001688,17.7184393 C29.4758314,17.7184393 28.2384593,18.9555285 28.2384593,20.4816679 L28.2384593,31.1527649 C28.2384593,32.1321979 28.7495294,32.9905806 29.5182556,33.4812871 C25.1409281,41.0053579 16.3594044,42.326447 10.1906449,42.2175583 Z M38.4977589,38.5170379 L37.5774369,33.9154279 L66.040389,33.9154279 L65.120067,38.5170379 C64.2780883,42.7258 61.8477481,46.3550478 58.2764801,48.7358931 L55.6130897,50.5114867 C53.3021029,52.0523331 50.3160058,52.0523331 48.0044533,50.5114867 L45.3410629,48.7358931 C41.7700778,46.3547649 39.3397375,42.7255172 38.4977589,38.5170379 Z M56.2703818,72.8611136 L51.8364887,74.3388894 L47.3695047,72.8498005 C44.948215,72.0426097 43.3126212,69.7859258 43.2990454,67.2334039 L43.2843384,64.4430238 C45.6813049,62.7522785 47.2150806,59.964161 47.2150806,56.8906701 L47.2150806,56.3063477 C48.690311,56.8980237 50.2492584,57.1955586 51.8087715,57.1955586 C53.3682846,57.1955586 54.9275149,56.8977408 56.4024624,56.3063477 L56.4024624,56.8906701 C56.4024624,59.9672721 57.9393492,62.7582179 60.3411238,64.4483975 L60.3411238,67.2133231 C60.3411238,69.7799864 58.7049644,72.0496804 56.2703818,72.8611136 Z" id="Shape"></path>
            </g>
        </g>
    </g>
</svg>