<?xml version="1.0" encoding="UTF-8"?>
<svg width="21px" height="20px" viewBox="0 0 21 20" version="1.1" xmlns="http://www.w3.org/2000/svg" xmlns:xlink="http://www.w3.org/1999/xlink">
    <title>CC4406AB-5354-42EB-A171-B2F3B4078EDB@2x</title>
    <g id="Page-1" stroke="none" stroke-width="1" fill="none" fill-rule="evenodd">
        <g id="Home-B" transform="translate(-992.000000, -545.000000)" fill="#FFFFFF">
            <g id="button_hero" transform="translate(803.496338, 491.997803)">
                <path d="M194.003662,64 L194.003662,62 L200.173662,62 L197.593662,59.4099998 L199.003662,58 L204.003662,63 L199.003662,68 L197.593662,66.5900002 L200.173662,64 L194.003662,64 Z M189.003662,63 C189.003662,57.4771519 193.480816,53 199.003662,53 C204.526511,53 209.003662,57.4771538 209.003662,63 C209.003662,68.5228486 204.526509,73 199.003662,73 C193.480814,73 189.003662,68.5228467 189.003662,63 C189.003662,59.3181012 189.003662,59.3181012 189.003662,63 Z M191.003662,63 C191.003662,58.5817213 194.585385,55 199.003662,55 C203.421941,55 207.003662,58.5817232 207.003662,63 C207.003662,67.4182792 203.421939,71 199.003662,71 C194.585383,71 191.003662,67.4182773 191.003662,63 C191.003662,60.0544809 191.003662,60.0544809 191.003662,63 Z" id="arrow-/-circle_right"></path>
            </g>
        </g>
    </g>
</svg>