<?xml version="1.0" encoding="UTF-8"?>
<svg width="35px" height="35px" viewBox="0 0 35 35" version="1.1" xmlns="http://www.w3.org/2000/svg" xmlns:xlink="http://www.w3.org/1999/xlink">
    <title>CBA5BBBA-B35D-48F1-83E8-6ECBA4BEE4EB@2x</title>
    <defs>
        <rect id="path-1" x="0" y="0" width="34" height="34"></rect>
    </defs>
    <g id="Page-1" stroke="none" stroke-width="1" fill="none" fill-rule="evenodd">
        <g id="Home-A" transform="translate(-1558.000000, -6596.000000)">
            <g id="footer" transform="translate(-46.699768, 6147.023545)">
                <g id="brand-/-facebook" transform="translate(1605.366434, 449.000000)">
                    <mask id="mask-2" fill="white">
                        <use xlink:href="#path-1"></use>
                    </mask>
                    <g id="brand-/-facebook-(Background/Mask)"></g>
                    <path d="M2.83610026,17.001351 C2.83610026,24.0705174 8.01543379,29.9298479 14.7885173,30.9965979 L14.7885173,21.0969341 L11.190184,21.0969341 L11.190184,17.001351 L14.7885173,17.001351 L14.7885173,13.8804343 C14.7885173,10.3274344 16.9036007,8.36818355 20.1378507,8.36818355 C21.1710729,8.36818355 22.2288506,8.46026708 23.3111837,8.64443413 L23.3111837,12.1280169 L21.5205171,12.1280169 C19.7638504,12.1280169 19.2141834,13.2216832 19.2141834,14.3422666 L19.2141834,16.9985166 L23.1397666,16.9985166 L22.5121835,21.094101 L19.2141834,21.094101 L19.2141834,30.9937661 C25.9872669,29.9326828 31.1665991,24.0719346 31.1665991,17.001351 C31.1665991,9.17851794 24.8241841,2.83610026 17.001351,2.83610026 C9.17851794,2.83610026 2.83610026,9.17851794 2.83610026,17.001351 Z" fill="#FFFFFF" fill-rule="nonzero" mask="url(#mask-2)"></path>
                </g>
            </g>
        </g>
    </g>
</svg>