<?xml version="1.0" encoding="UTF-8"?>
<svg width="1921px" height="228px" viewBox="0 0 1920 228" version="1.1" xmlns="http://www.w3.org/2000/svg" xmlns:xlink="http://www.w3.org/1999/xlink">
    <title>Path 3@2x</title>
    <g id="Symbols" stroke="none" stroke-width="1" fill="none" fill-rule="evenodd">
        <g id="footer" transform="translate(0.000000, -11.000000)" fill="#CD1419">
            <path d="M4.54747351e-13,210.985922 C4.54747351e-13,210.985922 15.166582,182.328228 25.4369056,176.082251 C35.7072292,169.836274 36.1625224,168.510937 42.1505722,168.510937 C48.1386219,168.510937 61.3840873,168.510937 67.2630345,168.510937 C73.1419818,168.510937 81.5009132,166.333768 86.3286997,163.190554 C91.1564861,160.047341 128.414996,129.188645 131.981809,129.188645 C135.548622,129.188645 144.398515,118.769166 144.398515,111.730842 C144.398515,104.692518 146.712747,98.4227466 150.092827,98.4227466 C153.472907,98.4227466 218.846297,45.9208481 224.421016,45.9208481 C229.995735,45.9208481 239.156151,37.7594381 242.397754,33.7429775 C245.639358,29.7265168 256.264265,15.9710908 261.00393,15.9710908 C265.743595,15.9710908 276.238418,11.75 280.896256,11.75 C285.554095,11.75 288.713871,11.75 291.949181,11.75 C295.18449,11.75 295.186588,11.75 299.405918,11.75 C303.625248,11.75 302.349588,15.7902549 307.217239,19.5140469 C312.08489,23.2378389 314.83763,19.9185483 317.642824,26.8307629 C320.448017,33.7429775 325.422673,41.3856739 329.644101,51.7028383 C333.865529,62.0200027 337.436538,83.6489289 337.436538,88.1317559 C337.436538,92.6145828 343.569359,111.364411 343.569359,115.786563 C343.569359,118.734664 343.569359,123.202025 343.569359,129.188645 C346.024166,125.713106 351.277172,123.975336 359.328378,123.975336 C371.405188,123.975336 395.74554,123.975336 402.809928,123.975336 C409.874316,123.975336 418.925629,125.993084 423.973719,129.188645 C429.021808,132.384206 434.617509,134.8707 437.838131,134.8707 C441.058753,134.8707 445.244514,134.8707 457.184945,134.8707 C469.125376,134.8707 473.09503,136.174622 480.612613,139.669989 C488.130196,143.165357 495.886965,147.415001 495.886965,147.415001 C495.886965,147.415001 494.76237,146.260982 507.95748,142.965486 C521.152591,139.669989 534.121104,129.188645 540.830908,129.188645 C547.540713,129.188645 560.909968,123.975336 563.734045,123.975336 C566.558122,123.975336 568.589107,123.975336 571.543267,123.975336 C574.497428,123.975336 584.318753,119.551995 593.867321,119.551995 C603.41589,119.551995 614.286277,118.762027 618.035627,123.975336 C621.784977,129.188645 618.832915,129.188645 625.469285,129.188645 C632.105656,129.188645 668.103193,130.07141 681.776675,134.8707 C695.450158,139.669989 706.918512,142.965486 710.231452,142.965486 C713.544391,142.965486 722.069075,147.415001 727.419294,147.415001 C732.769514,147.415001 734.03888,146.039696 741.048717,152.071525 C748.058554,158.103355 776.328695,186.059158 779.465392,186.059158 C782.602089,186.059158 786.760574,197.08301 794.607563,197.08301 C802.454552,197.08301 799.670339,193.647128 813.257799,197.08301 C826.845259,200.518893 829.446934,200.497478 840.231299,200.497478 C851.015663,200.497478 865.142341,203.911945 869.447694,200.497478 C873.753047,197.08301 879.751588,193.014202 884.172338,193.014202 C888.593088,193.014202 896.836623,181.961797 899.562087,181.961797 C902.287552,181.961797 914.643412,158.457888 922.849181,155.264707 C931.054949,152.071525 936.460309,147.415001 943.574463,147.415001 C950.688617,147.415001 954.851887,142.758476 962.879314,147.415001 C970.906742,152.071525 979.070548,163.190554 983.361214,163.190554 C987.65188,163.190554 993.172048,157.870172 998.99015,163.190554 C1004.80825,168.510937 1012.91541,168.834538 1012.91541,172.458395 C1012.91541,176.082251 1023.17104,176.082251 1023.17104,176.082251 C1023.17104,176.082251 1050.5264,158.457888 1057.83627,155.264707 C1065.14614,152.071525 1080.13934,146.260982 1085.23569,142.965486 C1090.33204,139.669989 1100.445,129.188645 1111.38253,129.188645 C1122.32006,129.188645 1122.92851,118.762027 1134.82488,123.975336 C1146.72125,129.188645 1143.38419,123.085433 1153.34504,127.512344 C1163.30589,131.939254 1168.53441,134.173529 1171.1833,136.921759 C1173.83218,139.669989 1178.05781,147.338859 1185.88067,155.264707 C1193.70353,163.190554 1202.51251,174.251287 1203.88678,176.082251 C1205.26105,177.913214 1207.99386,181.961797 1210.36159,181.961797 C1212.72933,181.961797 1220.62982,183.470349 1226.49513,179.7763 C1232.36044,176.082251 1240.30184,168.510937 1244.59461,168.510937 C1248.88737,168.510937 1251.58241,161.370298 1257.35436,161.370298 C1263.1263,161.370298 1282.97456,165.58782 1284.51983,165.58782 C1286.0651,165.58782 1300.49391,177.590803 1305.13706,179.7763 C1309.78021,181.961797 1329.05359,197.08301 1329.05359,197.08301 C1329.05359,197.08301 1336.66664,201.233908 1340.42229,202.985161 C1344.17793,204.736414 1350.31495,208.062843 1354.68219,208.062843 C1359.04944,208.062843 1363.99472,209.855736 1366.13481,208.062843 C1368.2749,206.26995 1370.67201,199.473138 1373.10688,197.08301 C1375.54176,194.692883 1375.8334,191.596068 1378.27561,189.696101 C1380.71783,187.796135 1408.10676,165.01081 1412.77719,163.190554 C1417.44761,161.370298 1424.43332,155.264707 1425.94922,155.264707 C1427.46511,155.264707 1428.69566,156.72805 1428.69566,152.071525 C1428.69566,147.415001 1433.18355,142.418219 1435.32049,139.669989 C1437.45744,136.921759 1437.12488,136.921759 1442.17717,136.921759 C1447.22945,136.921759 1455.53698,141.685358 1459.34508,144.550179 C1463.15318,147.415001 1470.85959,159.550042 1473.57352,161.370298 C1476.28744,163.190554 1488.40516,182.422215 1488.40516,186.059158 C1488.40516,189.696101 1489.8172,190.660956 1492.75458,193.014202 C1495.69195,195.367449 1501.76812,197.08301 1504.38973,197.08301 C1507.01134,197.08301 1521.35727,205.472845 1524.5181,202.985161 C1527.67892,200.497478 1531.96644,199.376771 1534.21354,197.08301 C1536.46063,194.78925 1548.47764,179.7763 1551.02162,179.7763 C1553.56559,179.7763 1562.16581,172.427462 1573.58171,170.4692 C1584.99761,168.510937 1600.98847,166.552674 1604.46612,168.510937 C1607.94376,170.4692 1613.03591,172.458395 1616.94052,172.458395 C1620.84513,172.458395 1622.81842,172.458395 1627.16154,172.458395 C1631.50466,172.458395 1651.35397,155.264707 1651.35397,155.264707 C1651.35397,155.264707 1660.91513,139.669989 1663.31434,139.669989 C1665.71354,139.669989 1679.24121,125.623084 1680.69416,123.975336 C1682.14711,122.327588 1685.29325,114.747946 1693.36998,111.730842 C1701.44672,108.713737 1703.56582,108.024895 1705.74368,108.024895 C1707.92153,108.024895 1707.77781,105.107727 1711.10544,105.107727 C1714.43306,105.107727 1715.91958,102.190558 1718.44048,105.107727 C1720.12108,107.052506 1721.92757,108.024895 1723.85994,108.024895 C1729.89625,96.6108184 1733.95402,89.2223233 1736.03326,85.8594099 C1739.15213,80.8150399 1742.50073,70.7560426 1745.60281,68.2683591 C1748.70489,65.7806757 1750.2082,62.469713 1753.47288,62.469713 C1755.64934,62.469713 1759.32106,61.5357907 1764.48804,59.6679462 C1766.50364,51.6667504 1767.51144,46.4225091 1767.51144,43.9352223 C1767.51144,40.204292 1766.68582,36.6744227 1769.61586,31.7525928 C1772.54589,26.8307629 1771.31744,22.1718588 1775.05839,22.1718588 C1778.79935,22.1718588 1776.26272,19.177359 1782.491,22.1718588 C1788.71929,25.1663587 1785.0654,23.9326295 1794.13875,30.1881242 C1803.21209,36.443619 1804.2832,36.6541963 1814.42871,45.9208481 C1824.57422,55.1875 1829.70996,62.9064998 1856.38184,94.9013672 C1874.16309,116.231279 1895.70247,153.951771 1921,208.062843 L1921,238.440961 L4.54747351e-13,238.440961 C4.54747351e-13,220.137602 4.54747351e-13,210.985922 4.54747351e-13,210.985922 Z" id="Path-3"></path>
        </g>
    </g>
</svg>
