<?xml version="1.0" encoding="UTF-8"?>
<svg width="1920px" height="583px" viewBox="0 0 1920 583" version="1.1" xmlns="http://www.w3.org/2000/svg" xmlns:xlink="http://www.w3.org/1999/xlink">
    <title>4AF7AAD5-4133-4422-B1A6-EF743E231487@2x</title>
    <g id="Page-1" stroke="none" stroke-width="1" fill="none" fill-rule="evenodd">
        <g id="Home-A" transform="translate(0.000000, -6158.000000)" fill="#CD1419">
            <g id="footer" transform="translate(-46.699768, 6147.023545)">
                <path d="M6.73913339,219.823126 C11.0955542,214.80255 17.9080986,212.765766 17.9080986,212.765766 C17.9080986,212.765766 61.4723067,182.328228 71.7393648,176.082251 C82.006423,169.836274 82.4615715,168.510937 88.4477173,168.510937 C94.4338632,168.510937 107.675117,168.510937 113.552195,168.510937 C119.429273,168.510937 127.785547,166.333768 132.611798,163.190554 C137.43805,160.047341 174.684714,129.188645 178.250393,129.188645 C181.816072,129.188645 190.663151,118.769166 190.663151,111.730842 C190.663151,104.692518 192.976647,98.4227466 196.355652,98.4227466 C199.734658,98.4227466 265.087262,45.9208481 270.660209,45.9208481 C276.233155,45.9208481 285.390658,37.7594381 288.631231,33.7429775 C291.871804,29.7265168 302.493333,15.9710908 307.231491,15.9710908 C311.969649,15.9710908 322.461135,11.75 327.117493,11.75 C331.77385,11.75 334.932622,11.75 338.166903,11.75 C341.401183,11.75 341.403281,11.75 345.621269,11.75 C349.839258,11.75 348.564003,15.7902549 353.430106,19.5140469 C358.29621,23.2378389 361.048075,19.9185483 363.852377,26.8307629 C366.656678,33.7429775 371.629752,41.3856739 375.849838,51.7028383 C380.069924,62.0200027 383.639798,83.6489289 383.639798,88.1317559 C383.639798,92.6145828 389.770668,111.364411 389.770668,115.786563 C389.770668,118.734664 389.770668,123.202025 389.770668,129.188645 C392.224694,125.713106 397.476031,123.975336 405.524677,123.975336 C417.597647,123.975336 441.93026,123.975336 448.992402,123.975336 C456.054544,123.975336 465.102979,125.993084 470.149464,129.188645 C475.195948,132.384206 480.789869,134.8707 484.009468,134.8707 C487.229066,134.8707 491.413496,134.8707 503.35013,134.8707 C515.286765,134.8707 519.255156,136.174622 526.770349,139.669989 C534.285542,143.165357 542.039846,147.415001 542.039846,147.415001 C542.039846,147.415001 540.915608,146.260982 554.106523,142.965486 C567.297438,139.669989 580.261827,129.188645 586.969499,129.188645 C593.67717,129.188645 607.042174,123.975336 609.865353,123.975336 C612.688532,123.975336 614.718872,123.975336 617.672093,123.975336 C620.625314,123.975336 630.443516,119.551995 639.989049,119.551995 C649.534581,119.551995 660.401513,118.762027 664.14967,123.975336 C667.897828,129.188645 664.946705,129.188645 671.580965,129.188645 C678.215226,129.188645 714.201317,130.07141 727.870452,134.8707 C741.539588,139.669989 753.004295,142.965486 756.316181,142.965486 C759.628068,142.965486 768.150041,147.415001 773.498559,147.415001 C778.847078,147.415001 780.11604,146.039696 787.123648,152.071525 C794.131256,158.103355 822.392409,186.059158 825.528109,186.059158 C828.663809,186.059158 832.820971,197.08301 840.665465,197.08301 C848.509959,197.08301 845.726632,193.647128 859.309772,197.08301 C872.892911,200.518893 875.49376,200.497478 886.274695,200.497478 C897.05563,200.497478 911.177817,203.911945 915.481801,200.497478 C919.785786,197.08301 925.782419,193.014202 930.201763,193.014202 C934.621108,193.014202 942.862021,181.961797 945.58662,181.961797 C948.311218,181.961797 960.66315,158.457888 968.866309,155.264707 C977.069468,152.071525 982.47311,147.415001 989.585002,147.415001 C996.696893,147.415001 1000.85884,142.758476 1008.88372,147.415001 C1016.90859,152.071525 1025.0698,163.190554 1029.3591,163.190554 C1033.6484,163.190554 1039.16682,157.870172 1044.98307,163.190554 C1050.79932,168.510937 1058.9039,168.834538 1058.9039,172.458395 C1058.9039,176.082251 1069.15628,176.082251 1069.15628,176.082251 C1069.15628,176.082251 1096.50294,158.457888 1103.81048,155.264707 C1111.11803,152.071525 1126.10646,146.260982 1131.20119,142.965486 C1136.29591,139.669989 1146.40566,129.188645 1157.33971,129.188645 C1168.27376,129.188645 1168.88203,118.762027 1180.77461,123.975336 C1192.6672,129.188645 1189.3312,123.085433 1199.28888,127.512344 C1209.24656,131.939254 1214.47343,134.173529 1217.12147,136.921759 C1219.76951,139.669989 1223.99379,147.338859 1231.81416,155.264707 C1239.63454,163.190554 1248.44072,174.251287 1249.81455,176.082251 C1251.18839,177.913214 1253.92032,181.961797 1256.28731,181.961797 C1258.65429,181.961797 1266.55227,183.470349 1272.41571,179.7763 C1278.27916,176.082251 1286.21804,168.510937 1290.50944,168.510937 C1294.80084,168.510937 1297.49502,161.370298 1303.26513,161.370298 C1309.03524,161.370298 1328.87719,165.58782 1330.42197,165.58782 C1331.96675,165.58782 1346.39097,177.590803 1351.03264,179.7763 C1355.67432,181.961797 1374.94157,197.08301 1374.94157,197.08301 C1374.94157,197.08301 1382.5522,201.233908 1386.30665,202.985161 C1390.0611,204.736414 1396.19616,208.062843 1400.56202,208.062843 C1404.92788,208.062843 1409.87159,209.855736 1412.011,208.062843 C1414.1504,206.26995 1416.54675,199.473138 1418.98085,197.08301 C1421.41495,194.692883 1421.7065,191.596068 1424.14794,189.696101 C1426.58938,187.796135 1453.9696,165.01081 1458.63854,163.190554 C1463.30749,161.370298 1470.29097,155.264707 1471.80639,155.264707 C1473.3218,155.264707 1474.55196,156.72805 1474.55196,152.071525 C1474.55196,147.415001 1479.03842,142.418219 1481.17468,139.669989 C1483.31094,136.921759 1482.9785,136.921759 1488.02918,136.921759 C1493.07986,136.921759 1501.38474,141.685358 1505.19163,144.550179 C1508.99852,147.415001 1516.70248,159.550042 1519.41554,161.370298 C1522.1286,163.190554 1534.24248,182.422215 1534.24248,186.059158 C1534.24248,189.696101 1535.65406,190.660956 1538.59051,193.014202 C1541.52695,195.367449 1547.60119,197.08301 1550.22196,197.08301 C1552.84273,197.08301 1567.18411,205.472845 1570.34393,202.985161 C1573.50375,200.497478 1577.7899,199.376771 1580.03628,197.08301 C1582.28266,194.78925 1594.29585,179.7763 1596.83902,179.7763 C1599.38219,179.7763 1607.97967,172.427462 1619.39194,170.4692 C1630.80421,168.510937 1646.78999,166.552674 1650.26652,168.510937 C1653.74306,170.4692 1658.83359,172.458395 1662.73696,172.458395 C1666.64033,172.458395 1668.61299,172.458395 1672.95473,172.458395 C1677.29647,172.458395 1697.13947,155.264707 1697.13947,155.264707 C1697.13947,155.264707 1706.69759,139.669989 1709.09603,139.669989 C1711.49448,139.669989 1725.01784,125.623084 1726.47033,123.975336 C1727.92282,122.327588 1731.06796,114.747946 1739.14212,111.730842 C1747.21629,108.713737 1749.33472,108.024895 1751.51188,108.024895 C1753.68905,108.024895 1753.54537,105.107727 1756.87194,105.107727 C1760.19851,105.107727 1761.68456,102.190558 1764.20465,105.107727 C1765.88472,107.052506 1767.69063,108.024895 1769.62239,108.024895 C1775.65677,96.6108184 1779.71326,89.2223233 1781.79184,85.8594099 C1784.90971,80.8150399 1788.25725,70.7560426 1791.35835,68.2683591 C1794.45944,65.7806757 1795.96227,62.469713 1799.22591,62.469713 C1801.40168,62.469713 1805.07223,61.5357907 1810.23757,59.6679462 C1812.25253,51.6667504 1813.26001,46.4225091 1813.26001,43.9352223 C1813.26001,40.204292 1812.43466,36.6744227 1815.36376,31.7525928 C1818.29286,26.8307629 1817.0648,22.1718588 1820.80456,22.1718588 C1824.54433,22.1718588 1822.0085,19.177359 1828.23481,22.1718588 C1834.46111,25.1663587 1830.80839,23.9326295 1839.87885,30.1881242 C1848.94931,36.443619 1851.92036,37.5524286 1860.32382,41.7366384 C1868.72729,45.9208481 1872.70512,48.8772773 1880.20458,51.7028383 C1887.70404,54.5283994 1894.02264,59.1004545 1902.3873,62.469713 C1910.75196,65.8389715 1916.23577,69.6543712 1926.49549,72.4965882 C1936.7552,75.3388052 1941.26893,75.2543358 1952.70113,78.6747518 C1964.13332,82.0951678 1970.81268,84.1486071 1984.74924,84.1486071 C1998.6858,84.1486071 2000.27777,87.0277051 2007.67551,84.1486071 C2015.07324,81.2695091 2007.76465,84.8529153 2020.48783,78.6747518 C2028.96995,74.555976 2035.14068,72.4965882 2039,72.4965882 L2039,632 L0,632 C1.58847505,360.562468 3.83485285,223.170176 6.73913339,219.823126 Z" id="Path-3"></path>
            </g>
        </g>
    </g>
</svg>
