<?xml version="1.0" encoding="UTF-8"?>
<svg width="139px" height="44px" viewBox="0 0 139 44" version="1.1" xmlns="http://www.w3.org/2000/svg" xmlns:xlink="http://www.w3.org/1999/xlink">
    <title>50C08EEF-2AD8-4306-9FE2-EB0FD3BD02C0@2x</title>
    <defs>
        <polygon id="path-1" points="-8.20417524e-16 0 44.5876112 0 44.5876112 43 -8.20417524e-16 43"></polygon>
    </defs>
    <g id="Page-1" stroke="none" stroke-width="1" fill="none" fill-rule="evenodd">
        <g id="Home-B" transform="translate(-1565.000000, -4758.000000)">
            <g id="Group-18" transform="translate(1565.052273, 4758.035653)">
                <g id="Group-3" transform="translate(0.000000, 0.000000)">
                    <mask id="mask-2" fill="white">
                        <use xlink:href="#path-1"></use>
                    </mask>
                    <g id="Clip-2"></g>
                    <path d="M16.7482351,37.9339419 C16.7482351,39.294379 16.7874003,40.5897872 16.7349337,41.8815004 C16.6957685,42.8510244 16.0085297,43.1990776 14.9747157,42.859153 C12.0661439,41.9029305 9.49232389,40.3570127 7.23625944,38.3145096 C4.15033571,35.5182607 1.98294722,32.1116255 0.878192441,28.0923872 C-0.814779607,21.9345801 -0.0839418263,16.0597971 3.27909431,10.6025302 C6.84608517,4.8164232 12.086835,1.36988386 18.7700472,0.30798913 C25.397098,-0.744299039 31.4063728,0.90507399 36.6116522,5.17629985 C40.8311504,8.63835748 43.4182718,13.1172329 44.2799067,18.482129 C45.2885958,24.7566928 43.8128799,30.4762929 39.9185269,35.5367348 C37.3136703,38.9226789 33.9558069,41.2836766 29.9535648,42.7527418 C29.7680843,42.8214657 29.5840816,42.8997962 29.3919504,42.9426562 C28.4120809,43.1591734 27.9058889,42.7623484 27.90515,41.7669606 C27.9029331,39.8936808 27.9191903,38.0204009 27.9110617,36.1471211 C27.90515,34.6026813 27.6635079,33.1247485 26.4907682,31.8847628 C27.4322114,31.6926316 28.3093646,31.5463162 29.1695215,31.331277 C33.535335,30.2383457 35.9303252,27.4672216 36.4343003,23.0289894 C36.6899826,20.7795756 36.7106737,18.5397684 35.4241332,16.5925919 C34.7043799,15.5026165 34.3016432,14.5574784 34.6378729,13.2118206 C34.9297647,12.0472095 34.6386119,10.8146136 34.2528714,9.64630766 C34.1006443,9.18445366 33.8493958,9.03296554 33.3882807,9.05735144 C32.0078915,9.13198704 30.7073106,9.58053965 29.6232469,10.3453699 C28.3950847,11.2114385 27.2289957,11.2594713 25.8286543,10.9601899 C22.9193436,10.3387192 20.0033821,10.5751884 17.1140235,11.2336075 C16.8768152,11.2875521 16.5568428,11.2217841 16.3447594,11.0961598 C14.9798885,10.2840357 13.6105837,9.49408058 12.0306735,9.16450156 C12.0092435,9.16006777 11.9907693,9.1460274 11.9693393,9.14159361 C10.7123574,8.86522017 10.4825389,9.00488482 10.1610885,10.2515212 C9.79160529,11.6836381 9.77313113,13.1127991 10.1448312,14.5523057 C10.2039485,14.7806463 10.1581326,15.139784 10.0103393,15.3023566 C6.88598936,18.7274659 7.8377781,25.3064838 10.0332473,28.0687403 C11.5340881,29.9575384 13.5499885,30.9455365 15.8466961,31.4561623 C16.5531479,31.6135622 17.2699454,31.7221902 17.8685082,31.8315573 C17.5071536,32.7330963 17.1591004,33.6338963 16.7792717,34.522134 C16.7142426,34.6751 16.5376297,34.8221543 16.3787519,34.8864444 C13.9453355,35.8677918 11.8629281,35.2115896 10.4160319,33.025727 C9.71992555,31.9741778 8.87307004,31.088896 7.61017644,30.7556222 C7.19709422,30.6462551 6.73228435,30.6418213 6.30516176,30.6979828 C5.8226167,30.760056 5.73467969,31.0770725 6.05465215,31.4391661 C6.22830926,31.6364701 6.42265742,31.8352521 6.64730321,31.9638322 C7.77127112,32.6096889 8.5065427,33.5991649 8.95583428,34.7608201 C9.97412999,37.3915405 12.306308,38.2480026 14.7219892,38.12829 C15.3360703,38.0972535 15.9479345,38.0122723 16.7482351,37.9339419" id="Fill-1" fill="#000000" mask="url(#mask-2)"></path>
                </g>
                <path d="M70.5224513,25.3058927 C70.5224513,26.8702846 70.508411,28.4354154 70.5322054,29.9998073 C70.5379696,30.4609224 70.3665294,30.7158658 69.957881,30.9153867 C68.1008584,31.8235764 66.1329908,32.2137507 64.0786642,32.1878869 C62.5083606,32.1679348 60.9543142,32.0053622 59.4741645,31.4326632 C56.6328387,30.3323422 55.1460382,28.1102702 54.6088097,25.2526871 C53.9991624,22.0152752 54.052368,18.7741686 55.2273245,15.6379951 C56.3173,12.7286844 58.4898612,11.1251272 61.5262742,10.7068723 C63.9707751,10.3706425 66.4086253,10.4548847 68.7829244,11.2197149 C69.7310183,11.5249081 69.737669,11.5633343 69.4989828,12.5262076 C69.3304985,13.2060567 69.1391062,13.881472 68.9987026,14.5672328 C68.8885966,15.1052003 68.7097667,15.2795964 68.1038143,15.0970717 C66.4610919,14.6012252 64.764425,14.5044206 63.0648023,14.7416289 C61.0991516,15.0165244 59.8251736,16.1367974 59.2805553,18.0374191 C58.5962724,20.4235416 58.6073569,22.8237045 59.3936172,25.1773125 C59.9855293,26.948615 61.2543346,27.9676497 63.1689966,28.048197 C63.9168306,28.0799726 64.6690984,28.0400684 65.4169324,28.0016421 C65.8085846,27.98169 66.0376642,27.8220733 66.0125393,27.3313996 C65.9622896,26.3204936 65.9741131,25.3044147 66.0066276,24.2912918 C66.0221459,23.7880557 65.8322315,23.6299169 65.3511644,23.6528248 C64.7341274,23.6816445 64.1148736,23.6454351 63.4970976,23.6639093 C63.1054455,23.6749938 62.9347442,23.5308954 62.9413949,23.1274197 C62.9561742,22.2022337 62.9502625,21.2770478 62.9436118,20.3511229 C62.9406559,19.9949411 63.0825375,19.8316295 63.4542376,19.8323685 C65.6401002,19.8404971 67.8267019,19.8449309 70.0125645,19.8294126 C70.5165396,19.8257178 70.5217124,20.1323888 70.5217124,20.480442 C70.5217124,22.0884329 70.5217124,23.6971628 70.5224513,25.3058927" id="Fill-4" fill="#000000"></path>
                <path d="M95.7880085,11.3437874 L95.7880085,11.9918609 C95.7880085,14.0860918 95.799832,16.1795836 95.7784019,18.2730754 C95.7732292,18.8095651 95.9431914,19.0253432 96.4996331,19.0179536 C98.3108398,18.9957846 100.122046,18.9972625 101.932514,19.0179536 C102.415798,19.0238653 102.588716,18.876811 102.582805,18.3765307 C102.559897,16.2830389 102.597584,14.1888081 102.559897,12.0953162 C102.547334,11.4568493 102.790454,11.3016663 103.368326,11.3223574 C104.382927,11.3578278 105.401223,11.3689123 106.415084,11.331225 C106.957486,11.3112729 107.088283,11.5174445 107.085327,12.0169858 C107.069809,15.1465086 107.078676,18.2760313 107.078676,21.4055541 C107.079415,24.6015838 107.064636,27.7976135 107.092082,30.9929043 C107.09715,31.6025516 106.910192,31.8020725 106.304978,31.7762087 C105.312547,31.7340876 104.317159,31.7392603 103.323988,31.7739918 C102.751289,31.7939439 102.55029,31.6040295 102.55768,31.0187681 C102.586499,28.5949583 102.552507,26.1696705 102.589455,23.7458607 C102.599062,23.100004 102.389195,22.9329976 101.76403,22.947038 C99.9979001,22.9869422 98.2302925,22.9780746 96.4641628,22.9507328 C95.9417135,22.9418652 95.7732292,23.1022209 95.777663,23.6276261 C95.8005709,26.1172039 95.7724902,28.6082597 95.799093,31.0985765 C95.8050047,31.6350661 95.6180462,31.7858152 95.116288,31.7739918 C94.0566102,31.7488669 92.9961934,31.7533007 91.9365156,31.7702969 C91.4901798,31.7776866 91.3076524,31.6284154 91.3083941,31.1599107 C91.3187396,24.7685902 91.3180007,18.3765307 91.3076524,11.9852103 C91.3069162,11.50636 91.4576653,11.3230963 91.9564677,11.3341808 C93.2097547,11.3622616 94.4637807,11.3437874 95.7880085,11.3437874" id="Fill-6" fill="#000000"></path>
                <path d="M134.431518,24.8591875 C134.404915,24.8554926 134.378312,24.8525368 134.35171,24.8488419 C134.35171,24.5628619 134.359099,24.276143 134.350232,23.990163 C134.27264,21.5101917 133.048173,20.5717044 130.643576,21.1480982 C130.473614,21.1887413 130.312519,21.2655938 130.143296,21.3114097 C129.676269,21.438512 129.492266,21.7074957 129.505568,22.2173826 C129.541777,23.6036835 129.51813,24.9922014 129.51813,26.3792414 C129.51813,28.256955 129.674052,28.4320901 131.579108,28.6456514 C131.840702,28.6744711 132.110424,28.6781659 132.37128,28.6486072 C133.394009,28.5311116 133.874337,28.1512828 134.107851,27.1344651 C134.278552,26.3903259 134.328063,25.618106 134.431518,24.8591875 M128.527915,30.7790474 C128.472493,30.9689618 128.394162,31.1130602 128.394901,31.2564197 C128.397857,31.6791085 128.154737,31.7714793 127.797078,31.7663065 C127.134964,31.7581779 126.470633,31.7315751 125.811475,31.7736962 C125.239515,31.8099055 125.055512,31.6303367 125.058433,31.0362077 C125.082854,26.2129739 125.071769,21.3890012 125.071769,16.5657674 C125.071769,15.0242835 125.086549,13.4820606 125.062163,11.9405767 C125.055512,11.4802006 125.201089,11.3264956 125.66442,11.3353632 C126.93766,11.360488 128.212377,11.3434918 129.56838,11.3434918 L129.56838,18.3245075 C129.917911,18.1877987 130.151425,18.0998617 130.382721,18.006013 C131.852525,17.411145 133.37184,17.25744 134.917019,17.5944087 C136.609252,17.9631529 137.764256,19.0413049 138.257886,20.6529907 C139.145385,23.5475221 139.047102,26.4716122 138.028806,29.3225446 C137.395512,31.095325 136.004777,31.9879964 134.15145,32.1047531 C132.298861,32.2207709 131.007148,32.2429399 128.527915,30.7790474" id="Fill-8" fill="#000000"></path>
                <path d="M119.502771,30.8275236 C118.047746,31.6174787 116.670313,32.1517514 115.167255,32.1510132 C114.228767,32.1502735 113.258505,32.1088913 112.358443,31.874639 C110.533935,31.3980057 109.521551,30.0745168 109.472041,28.0135395 C109.395188,24.7990356 109.449133,21.5808369 109.435092,18.3641161 C109.433614,17.9355156 109.652349,17.8483175 110.01592,17.8505344 C111.119936,17.860141 112.224691,17.8749203 113.327967,17.8453617 C113.845244,17.8313213 113.957567,18.0559671 113.95535,18.5178211 C113.940571,21.1396739 113.945743,23.7615268 113.947221,26.3833796 C113.948699,28.3372068 114.709096,28.949071 116.647405,28.5625915 C116.712434,28.5492901 116.780419,28.551507 116.84397,28.5359887 C118.185194,28.2115825 118.268697,28.1066493 118.268697,26.7292159 C118.269436,24.019426 118.282737,21.3088973 118.258351,18.5991074 C118.253918,18.0264085 118.424619,17.8187589 119.012836,17.8424058 C120.026698,17.8837879 121.044255,17.8749203 122.058856,17.8446227 C122.560614,17.8298434 122.703973,18.0197578 122.701782,18.499347 C122.689194,22.7299297 122.689933,26.9605124 122.701782,31.1903561 C122.702495,31.6130449 122.572437,31.7955696 122.134969,31.7697058 C121.717453,31.7460588 121.293286,31.7379302 120.877248,31.7770954 C120.185576,31.8413855 119.513855,31.9219328 119.502771,30.8275236" id="Fill-10" fill="#000000"></path>
                <path d="M81.3511173,13.9067446 L85.8159524,13.9067446 C85.8159524,14.9198676 85.8152134,15.9248619 85.8159524,16.9291172 C85.8174303,17.8439576 85.8189082,17.8439576 86.7625683,17.8446966 C87.3589142,17.8446966 87.9559991,17.8594759 88.5508671,17.8395238 C88.9247841,17.8269614 89.0674046,17.9784495 89.0637097,18.341282 C89.0533642,19.2007 89.0526252,20.0608569 89.0644487,20.9202748 C89.0696215,21.289758 88.9122216,21.4264668 88.5486502,21.4183382 C87.8643673,21.4020809 87.1778675,21.4397682 86.4950625,21.4050368 C85.9859146,21.379173 85.7930444,21.5277052 85.8048679,22.0708455 C85.8395993,23.6352374 85.8654631,25.2025852 85.801912,26.7647602 C85.7509233,28.02322 86.3989969,28.5079819 87.4468512,28.6358231 C87.6212473,28.6565142 87.8000772,28.6624259 87.9752122,28.6535583 C89.1413012,28.5914851 89.1413012,28.5900072 89.1405622,29.7900886 C89.1405622,30.2090826 89.1102646,30.6302935 89.146474,31.0455926 C89.1915509,31.5495677 89.0223276,31.8045111 88.5020953,31.9109222 C87.078107,32.2035529 85.6644643,32.246413 84.2567332,31.851066 C82.6103161,31.388473 81.6319245,30.2556375 81.5040834,28.6040476 C81.3422497,26.5238571 81.3873267,24.4274094 81.3540732,22.3376124 C81.3392938,21.4161213 81.3511173,21.4161213 80.4089351,21.4139044 C78.9657337,21.4116875 78.9657337,21.4116875 78.9657337,19.9374495 C78.9657337,18.5504095 78.9657337,18.5504095 80.323954,18.2127019 C80.4939163,18.1705808 80.6631396,18.1166363 80.8360577,18.0937283 C81.2343606,18.0405227 81.3703304,17.8380459 81.3607239,17.4286585 C81.3333821,16.2847385 81.3511173,15.1393406 81.3511173,13.9067446" id="Fill-12" fill="#000000"></path>
                <path d="M73.1080948,24.778714 C73.1080948,22.6874391 73.1236131,20.5954252 73.0977493,18.5048892 C73.0910986,17.9787451 73.2595829,17.8169115 73.7805542,17.8339077 C74.8601842,17.8686391 75.942031,17.8553377 77.0231388,17.8368636 C77.4487835,17.8302129 77.6069223,17.9846569 77.6061859,18.4154743 C77.5958378,22.6637922 77.5950988,26.912849 77.6061859,31.1619059 C77.6069223,31.6414951 77.3793206,31.7693363 76.9573708,31.7664302 C75.898432,31.7560349 74.8394931,31.7464283 73.7812932,31.7649025 C73.2625388,31.7737701 73.0947934,31.5602088 73.0992272,31.0525389 C73.1199183,28.9620029 73.1080948,26.869989 73.1080948,24.778714" id="Fill-14" fill="#000000"></path>
                <path d="M77.7511685,14.2488122 C77.7393451,15.5996428 76.6730165,16.6305009 75.2881935,16.6290246 C73.8812014,16.627545 72.812656,15.5686062 72.8200076,14.1837831 C72.8274353,12.8085666 73.9314512,11.7378043 75.3177522,11.7621902 C76.7225273,11.7865761 77.763731,12.8499487 77.7511685,14.2488122" id="Fill-16" fill="#000000"></path>
            </g>
        </g>
    </g>
</svg>