<?xml version="1.0" encoding="UTF-8"?>
<svg width="34px" height="35px" viewBox="0 0 34 35" version="1.1" xmlns="http://www.w3.org/2000/svg" xmlns:xlink="http://www.w3.org/1999/xlink">
    <title>64D51F9E-878C-4236-9D87-302C9F985318@2x</title>
    <defs>
        <rect id="path-1" x="0" y="0" width="34" height="34"></rect>
    </defs>
    <g id="Page-1" stroke="none" stroke-width="1" fill="none" fill-rule="evenodd">
        <g id="Home-A" transform="translate(-1400.000000, -6596.000000)">
            <g id="footer" transform="translate(-46.699768, 6147.023545)">
                <g id="brand-/-instagram" transform="translate(1446.699768, 449.000000)">
                    <mask id="mask-2" fill="white">
                        <use xlink:href="#path-1"></use>
                    </mask>
                    <g id="brand-/-instagram-(Background/Mask)"></g>
                    <path d="M10.4492664,17.0000068 C10.4492664,20.6181733 13.38035,23.5506742 16.9985166,23.5506742 C20.61385,23.5506742 23.5477668,20.6181733 23.5477668,17.0000068 C23.5477668,13.3832568 20.61385,10.4507565 16.9985166,10.4507565 C13.38035,10.4507565 10.4492664,13.3832568 10.4492664,17.0000068 Z M12.7428503,17.001424 C12.7428503,14.6511739 14.6482665,12.7471736 16.9985166,12.7471736 C19.3487666,12.7471736 21.251351,14.6511739 21.251351,17.001424 C21.251351,19.3502573 19.3487666,21.255673 16.9985166,21.255673 C14.6482665,21.255673 12.7428503,19.3502573 12.7428503,17.001424 Z M25.3356016,10.2099231 C25.3356016,9.36649225 24.6518642,8.68275702 23.8084335,8.68275702 C22.9650026,8.68275702 22.2812667,9.36649225 22.2812667,10.2099231 C22.2812667,11.0533539 22.9650026,11.7370899 23.8084335,11.7370899 C24.6518642,11.7370899 25.3356016,11.0533539 25.3356016,10.2099231 Z M25.3582666,4.92859022 C24.3680166,4.55600687 23.3211001,4.35625678 22.2614334,4.33359011 C20.8971834,4.27409011 20.4650999,4.25709025 17.0056001,4.25709025 C13.5461002,4.25709025 13.1026833,4.25709025 11.7497667,4.33359011 C10.6929333,4.35484011 9.64601699,4.55459022 8.65576698,4.92859022 C6.94160026,5.59017356 5.58868345,6.94450685 4.92568346,8.65725684 C4.55310011,9.64892349 4.35335025,10.6944233 4.33210025,11.75409 C4.27118358,13.1169233 4.25276693,13.5490066 4.25276693,17.0099234 C4.25276693,20.4694233 4.25276693,20.9100067 4.33210025,22.2657568 C4.35335025,23.3254235 4.55310011,24.3709225 4.92568346,25.3640058 C5.59010014,27.0753391 6.94301683,28.4296711 8.65718355,29.0926711 C9.64318352,29.4780044 10.6900998,29.6961722 11.7525998,29.7301722 C13.1168498,29.7896722 13.5489333,29.8080893 17.0084332,29.8080893 C20.4679331,29.8080893 20.9113499,29.8080893 22.2642666,29.7301722 C23.3225165,29.7089222 24.3694344,29.5077573 25.3611011,29.1365906 C27.0738511,28.472174 28.4267655,27.1192568 29.0911822,25.4065068 C29.4637656,24.4148401 29.6635165,23.3693403 29.6847665,22.3096736 C29.7456831,20.9468403 29.7640994,20.514757 29.7640994,17.0538402 C29.7640994,13.5929235 29.7640994,13.1537569 29.6847665,11.7980069 C29.6663498,10.7241735 29.4680171,9.66025685 29.0883505,8.65725684 C28.4239338,6.94450685 27.0710166,5.59017356 25.3582666,4.92859022 Z M26.9222654,24.5522559 C26.490182,25.6671725 25.6104336,26.5483385 24.4969335,26.9761718 C23.7390168,27.2580885 22.9400167,27.405423 22.1311001,27.4167563 C20.7852668,27.4790896 20.4056012,27.4946734 16.954601,27.4946734 C13.5007678,27.4946734 13.1480167,27.494673 11.7766834,27.4167563 C10.9706001,27.4068396 10.1687668,27.2580885 9.41226687,26.9761718 C8.29451691,26.5497551 7.40910041,25.6685892 6.97701706,24.5522559 C6.69935041,23.7957559 6.54918324,22.9953397 6.53643324,22.1878397 C6.47551657,20.8420064 6.46134994,20.4623408 6.46134994,17.0113406 C6.46134994,13.5589239 6.46134991,13.206173 6.53643324,11.833423 C6.54634991,11.017423 6.69368373,10.2099233 6.97701706,9.4435066 C7.40910041,8.32575663 8.29451691,7.44600673 9.41226687,7.01817342 C10.1687668,6.73767342 10.9706001,6.5889236 11.7766834,6.57759027 C13.1239334,6.5166736 13.5021843,6.49967317 16.954601,6.49967317 C20.4070178,6.49967317 20.7611834,6.4996736 22.1311001,6.57759027 C22.9400167,6.58750693 23.7390168,6.73625675 24.4969335,7.01817342 C25.6104336,7.44742342 26.490182,8.32858993 26.9222654,9.4435066 C27.199932,10.2000066 27.3500999,11.0004235 27.3628499,11.8079235 C27.4237665,13.1551734 27.4393484,13.533423 27.4393484,16.9858398 C27.4393484,20.4368399 27.4393494,20.8080069 27.3784328,22.1623402 L27.3628499,22.1623402 L27.3628499,22.1609229 C27.3529332,22.9769229 27.2055987,23.7858392 26.9222654,24.5522559 Z" fill="#FFFFFF" mask="url(#mask-2)"></path>
                </g>
            </g>
        </g>
    </g>
</svg>