<?xml version="1.0" encoding="UTF-8"?>
<svg width="37px" height="38px" viewBox="0 0 37 38" version="1.1" xmlns="http://www.w3.org/2000/svg" xmlns:xlink="http://www.w3.org/1999/xlink">
    <title>95130C39-64DE-40D0-B70D-8924B4D6AF61@2x</title>
    <g id="Page-1" stroke="none" stroke-width="1" fill="none" fill-rule="evenodd">
        <g id="Home-B" transform="translate(-213.000000, -1922.000000)" fill="#C6171E">
            <path d="M222.25,1942.63076 L222.25,1938.93076 L233.6645,1938.93076 L228.8915,1934.13926 L231.5,1931.53076 L240.75,1940.78076 L231.5,1950.03076 L228.8915,1947.42226 L233.6645,1942.63076 L222.25,1942.63076 Z M213,1940.78076 C213,1930.56349 221.282734,1922.28076 231.5,1922.28076 C241.71727,1922.28076 250,1930.5635 250,1940.78076 C250,1950.99803 241.717266,1959.28076 231.5,1959.28076 C221.282731,1959.28076 213,1950.99803 213,1940.78076 C213,1933.96925 213,1933.96925 213,1940.78076 Z M231.500002,1925.98076 C239.673816,1925.98076 246.3,1932.60695 246.3,1940.78076 C246.3,1948.95458 239.673813,1955.58076 231.499998,1955.58076 C223.326184,1955.58076 216.7,1948.95457 216.7,1940.78076 C216.7,1932.60695 223.326188,1925.98076 231.500002,1925.98076 Z" id="arrow-/-circle_right-copy" transform="translate(231.500000, 1940.780762) rotate(-180.000000) translate(-231.500000, -1940.780762) "></path>
        </g>
    </g>
</svg>