<?xml version="1.0" encoding="UTF-8"?>
<svg width="34px" height="35px" viewBox="0 0 34 35" version="1.1" xmlns="http://www.w3.org/2000/svg" xmlns:xlink="http://www.w3.org/1999/xlink">
    <title>2091349D-73AF-4D2E-AB4B-65008265B48E@2x</title>
    <defs>
        <rect id="path-1" x="0" y="0" width="34" height="34"></rect>
    </defs>
    <g id="Page-1" stroke="none" stroke-width="1" fill="none" fill-rule="evenodd">
        <g id="Home-A" transform="translate(-1638.000000, -6596.000000)">
            <g id="footer" transform="translate(-46.699768, 6147.023545)">
                <g id="brand-/-LinkedIn" transform="translate(1684.699768, 449.000000)">
                    <mask id="mask-2" fill="white">
                        <use xlink:href="#path-1"></use>
                    </mask>
                    <g id="brand-/-LinkedIn-(Background/Mask)"></g>
                    <path d="M24.0833468,29.75 L24.0833468,20.1875 C24.0833468,18.6878167 22.4004884,17.4332173 20.9008052,17.4332173 C19.4011219,17.4332173 18.4166802,18.6878167 18.4166802,20.1875 L18.4166802,29.75 L12.7500142,29.75 L12.7500142,12.75 L18.4166802,12.75 L18.4166802,15.5833333 C19.3549385,14.0654742 21.754913,13.086133 23.4104296,13.086133 C26.9117212,13.086133 29.7500135,15.9780166 29.7500135,19.4791667 L29.7500135,29.75 L24.0833468,29.75 Z M4.25,29.75 L4.25,12.75 L9.91666667,12.75 L9.91666667,29.75 L4.25,29.75 Z M9.91668085,7.08333333 C9.91668085,8.64814088 8.64815506,9.91666667 7.08334752,9.91666667 C5.51853998,9.91666667 4.25,8.64814088 4.25,7.08333333 C4.25,5.51852579 5.51853998,4.25 7.08334752,4.25 C8.64815506,4.25 9.91668085,5.51852579 9.91668085,7.08333333 Z" fill="#FFFFFF" mask="url(#mask-2)"></path>
                </g>
            </g>
        </g>
    </g>
</svg>