<?xml version="1.0" encoding="UTF-8"?>
<svg width="38px" height="38px" viewBox="0 0 38 38" version="1.1" xmlns="http://www.w3.org/2000/svg" xmlns:xlink="http://www.w3.org/1999/xlink">
    <title>D2708A4E-185A-458D-A1BA-51928C3EAA91@2x</title>
    <g id="Page-1" stroke="none" stroke-width="1" fill="none" fill-rule="evenodd">
        <g id="Home-B" transform="translate(-908.000000, -1922.000000)" fill="#C6171E">
            <path d="M917.75,1942.63076 L917.75,1938.93076 L929.1645,1938.93076 L924.3915,1934.13926 L927,1931.53076 L936.25,1940.78076 L927,1950.03076 L924.3915,1947.42226 L929.1645,1942.63076 L917.75,1942.63076 Z M908.5,1940.78076 C908.5,1930.56349 916.782734,1922.28076 927,1922.28076 C937.21727,1922.28076 945.5,1930.5635 945.5,1940.78076 C945.5,1950.99803 937.217266,1959.28076 927,1959.28076 C916.782731,1959.28076 908.5,1950.99803 908.5,1940.78076 C908.5,1933.96925 908.5,1933.96925 908.5,1940.78076 Z M927.000002,1925.98076 C935.173816,1925.98076 941.8,1932.60695 941.8,1940.78076 C941.8,1948.95458 935.173813,1955.58076 926.999998,1955.58076 C918.826184,1955.58076 912.2,1948.95457 912.2,1940.78076 C912.2,1932.60695 918.826188,1925.98076 927.000002,1925.98076 Z" id="arrow-/-circle_right"></path>
        </g>
    </g>
</svg>