<?xml version="1.0" encoding="UTF-8"?>
<svg width="266px" height="31px" viewBox="0 0 266 31" version="1.1" xmlns="http://www.w3.org/2000/svg" xmlns:xlink="http://www.w3.org/1999/xlink">
    <title>78BDA0F3-992C-4986-B18A-60937ADD80E7@2x</title>
    <g id="Page-1" stroke="none" stroke-width="1" fill="none" fill-rule="evenodd">
        <g id="Home-A" transform="translate(-213.000000, -37.000000)" fill-rule="nonzero">
            <g id="Asset-1" transform="translate(213.000000, 37.500000)">
                <path d="M78.256,8.36 C76.568,11.496 74.8826667,14.6306667 73.2,17.764 C72.108,19.792 70.98,21.8 69.948,23.86 C69.5438568,24.7977975 68.5905494,25.3771645 67.572,25.304 C66.5263265,25.373588 65.5479307,24.7846352 65.12,23.828 C63.28,20.3613333 61.4306667,16.908 59.572,13.468 C58.66,11.768 57.744,10.072 56.728,8.184 C56.892,11.252 56.808,14.104 56.82,16.956 C56.82,20.652 56.82,24.352 56.82,28.052 C56.82,28.6 56.676,28.744 56.14,28.72 C55.1140969,28.6640033 54.0859031,28.6640033 53.06,28.72 C52.316,28.768 52.084,28.592 52.0879493,27.784 C52.124,18.948 52.112,10.112 52.112,1.276 C52.1200206,1.12277155 52.1200206,0.969228447 52.112,0.816 C52.072,0.46 52.188,0.32 52.576,0.328 C53.94,0.348 55.3,0.328 56.66,0.328 C57.165551,0.315849913 57.6328143,0.596207861 57.86,1.048 C61.1,7.14 64.496,13.148 67.592,19.332 C67.864,18.724 68.128,18.052 68.46,17.412 C69.42,15.56 70.404,13.724 71.388,11.884 C72.9266667,9.00933333 74.464,6.13066667 76,3.248 C76.38,2.536 76.78,1.832 77.14,1.112 C77.3552904,0.581398728 77.8941494,0.255804118 78.464,0.312 C79.696,0.348 80.932,0.364 82.164,0.312 C82.8,0.284 82.9,0.512 82.9,1.084 C82.884,9.66266667 82.884,18.2413333 82.9,26.82 C82.8759785,27.2303154 82.8759785,27.6416846 82.9,28.052 C82.972,28.624 82.728,28.728 82.212,28.708 C81.108,28.672 80,28.656 78.9,28.708 C78.284,28.74 78.2,28.52 78.204,27.972 C78.2413333,21.5533333 78.264,15.1333333 78.272,8.712 C78.272,8.588 78.272,8.46 78.272,8.336 L78.272,8.336 L78.256,8.36 Z" id="Path" fill="#E00E16"></path>
                <path d="M101.476,29.0401267 C93,29.072 87.076,23.04 87.0439512,14.528 C87.024,5.92 93.156,-0.04 101.496,-0.000200124322 C109.836,0.04 115.876,5.9 115.852071,14.556 C115.828,23.068 109.968,29.044 101.476,29.0401267 Z M110.4,14.4 C110.376,14 110.368,13.436 110.308,12.876 C109.848,8.52 107.324,4.94 102.268,4.58 C98.712,4.328 95.404,5.616 93.672,9.032 C92.624,11.096 92.368,13.32 92.52,15.608 C92.5888517,17.4602836 93.1403939,19.2624477 94.12,20.836 C95.784,23.372 98.26,24.436 101.192,24.504 C104.9,24.592 108.044,22.992 109.544,19.304 C110.134516,17.7375254 110.424904,16.073897 110.4,14.4 L110.4,14.4 Z" id="Shape" fill="#E00E16"></path>
                <path d="M24,14.52 C24,19.02 24,23.516 24,28.012 C24,28.596 23.856,28.74 23.284,28.72 C21.9506667,28.6746667 20.6173333,28.6746667 19.284,28.72 C18.732,28.72 18.608,28.56 18.612,28.032 C18.636,24.384 18.612,20.736 18.64,17.088 C18.64,16.468 18.468,16.328 17.876,16.332 C13.9213333,16.3613333 9.964,16.3613333 6.004,16.332 C5.472,16.332 5.32,16.46 5.324,17.004 C5.352,20.68 5.324,24.352 5.352,28.028 C5.352,28.544 5.26,28.736 4.692,28.716 C3.36,28.672 2.02,28.676 0.692,28.716 C0.12,28.736 0,28.564 0,28.036 C0.02,22.036 0,16.064 0,10.076 C0,7.044 0.02,4 0,0.98 C0,0.504 0.088,0.308 0.624,0.324 C1.984,0.368 3.348,0.364 4.708,0.324 C5.224,0.324 5.336,0.472 5.336,0.964 C5.312,4.536 5.336,8.108 5.304,11.68 C5.304,12.416 5.528,12.536 6.192,12.532 C10.0986667,12.5 14.004,12.5 17.908,12.532 C18.492,12.532 18.624,12.38 18.62,11.804 C18.592,8.204 18.62,4.604 18.596,1.004 C18.596,0.472 18.712,0.296 19.268,0.312 C20.6013333,0.357333333 21.9346667,0.357333333 23.268,0.312 C23.848,0.304 24,0.448 24,1.032 C23.968,5.528 24,10.024 24,14.52 Z" id="Path" fill="#E00E16"></path>
                <path d="M256.888,0.952 C258.676,3.604 260.292,6.324 261.832,9.096 C263.304,11.744 264.732,14.428 265.572,17.356 C266.896815,21.9338728 264.364801,26.7399285 259.84,28.236 C256.806211,29.2897577 253.441482,28.66328 250.990239,26.588266 C248.538995,24.513252 247.36559,21.2981323 247.904,18.132 C248.097704,17.290947 248.3737,16.4709962 248.728,15.684 C249.672,13.124 251.024,10.768 252.304,8.372 C253.584,5.976 255.076,3.856 256.4,1.548 C256.54493,1.33544912 256.708223,1.13601841 256.888,0.952 Z" id="Path" fill="#E00E16"></path>
                <path d="M29.656,14.536 C29.656,10.04 29.656,5.544 29.656,1.048 C29.656,0.488 29.764,0.32 30.36,0.323930575 C35.8773333,0.348 41.3973333,0.348 46.92,0.323930575 C47.476,0.323930575 47.604,0.484 47.58,1.008 C47.5346667,1.96 47.5346667,2.91066667 47.58,3.86 C47.608,4.396 47.464,4.544 46.912,4.54 C43.212,4.516 39.512,4.54 35.812,4.508 C35.108,4.508 34.968,4.704 34.98,5.368 C35.024,7.5 35.008,9.632 34.98,11.768 C34.98,12.268 35.112,12.416 35.624,12.412 C38.476,12.384 41.328,12.412 44.18,12.388 C44.74,12.388 44.956,12.528 44.928,13.116 C44.882003,14.0154123 44.882003,14.9165877 44.928,15.816 C44.952,16.36 44.76,16.512 44.232,16.508 C41.38,16.508 38.528,16.508 35.676,16.508 C35.156,16.508 34.968,16.604 34.976,17.176 C35.016,19.384 35.016,21.5933333 34.976,23.804 C34.976,24.404 35.168,24.516 35.724,24.512 C39.448,24.512 43.176,24.512 46.9,24.512 C47.46,24.512 47.588,24.68 47.572,25.2 C47.532,26.228 47.544,27.256 47.572,28.284 C47.572,28.656 47.464,28.756 47.096,28.756 C41.444,28.756 35.792,28.756 30.14,28.756 C29.524,28.756 29.656,28.396 29.652,28.06 L29.656,14.536 Z" id="Path" fill="#E00E16"></path>
                <path d="M171.848,29.016 C168.969238,29.1264276 166.143678,28.2185661 163.868,26.452 C162.349823,25.2803828 161.134548,23.7619761 160.324,22.024 C159.763378,20.8806663 159.349435,19.671091 159.092,18.424 C158.944,17.624 158.952,16.752 158.832,15.944 C158.672,14.884 158.916,13.888 158.928,12.864 C158.988656,11.5739274 159.250479,10.3012498 159.704,9.092 C160.117335,7.80586006 160.746294,6.59934104 161.564,5.524 C162.72412,3.96628801 164.25987,2.72778013 166.028,1.924 C170.18,0.112 174.36,0.104 178.428,2.096 C181.876,3.768 183.88,6.696 184.8,10.4 C185.764,14.328 185.624,18.188 183.868,21.884 C181.92,25.988 178.624,28.264 174.14,28.892 C173.36,28.988 172.608,28.984 171.848,29.016 Z M172.064,27.236 C176.304,27.272 179.84,25.276 181.664,21.824 C182.5299,20.13721 183.043004,18.2916666 183.172,16.4 C183.412,13.516 183.104,10.708 181.788,8.092 C179.932,4.4 176.8,2.608 172.772,2.4 C168.288,2.164 164.24,4.12 162.232,8.504 C160.86,11.504 160.72,14.644 161.208,17.836 C162.088,23.564 166.292,27.2 172.064,27.236 Z" id="Shape" fill="#FFFFFF"></path>
                <path d="M213.312,14.832 C213.312,19.148 213.312,23.464 213.312,27.78 C213.312,28.084 213.552,28.612 213.088,28.672 C212.624,28.732 211.952,28.948 211.528,28.372 C210.432,26.884 209.344,25.384 208.232,23.904 C206.428,21.504 204.608,19.104 202.8,16.704 C201.376,14.816 199.944,12.936 198.536,11.036 C197.128,9.136 195.708,7.16 194.284,5.232 C194.18,5.096 194.004,4.832 193.784,4.988 C193.564,5.144 193.672,5.412 193.672,5.628 C193.672,13.028 193.672,20.4266667 193.672,27.824 C193.672,28.108 193.848,28.564 193.524,28.648 C193.017821,28.7281681 192.502179,28.7281681 191.996,28.648 C191.82,28.648 191.88,28.392 191.88,28.248 C191.88,27.732 191.88,27.22 191.88,26.708 C191.88,18.3826667 191.88,10.0586667 191.88,1.736 C191.88,1.464 191.624,0.984 192.128,0.936 C192.632,0.888 193.352,0.72 193.696,1.232 C195.092,3.308 196.652,5.256 198.128,7.268 C199.4,9 200.668,10.736 201.956,12.468 C204.16,15.432 206.4,18.4 208.616,21.34 C209.416,22.416 210.216,23.508 211.016,24.592 C211.12,24.732 211.216,24.928 211.416,24.828 C211.616,24.728 211.484,24.56 211.484,24.428 C211.484,16.8493333 211.477333,9.27066667 211.464,1.692 C211.464,1.06 211.648,0.928 212.232,0.948 C213.308,0.992 213.312,0.948 213.312,2.044 L213.312,14.832 Z" id="Path" fill="#FFFFFF"></path>
                <path d="M221.356,0.928 L222.372,0.928 C227.356,0.928 232.34,0.928 237.32,0.928 C238.052,0.928 238.384,1.044 238.144,1.84 C238.109152,2.11490002 238.109152,2.39309998 238.144,2.668 L237.28,2.668 C232.94,2.668 228.6,2.668 224.26,2.668 C223.748,2.668 223.56,2.756 223.564,3.324 C223.596,6.612 223.596,9.9 223.564,13.188 C223.564,13.736 223.728,13.868 224.26,13.864 C227.828,13.84 231.4,13.864 234.968,13.864 C235.224,13.864 235.636,13.696 235.708,14.048 C235.792729,14.4997409 235.783196,14.9641168 235.68,15.412 C235.64,15.604 235.28,15.5 235.04,15.504 C231.468,15.504 227.9,15.504 224.328,15.504 C223.724,15.504 223.556,15.656 223.564,16.264 C223.593333,19.656 223.593333,23.0466667 223.564,26.436 C223.564,26.952 223.712,27.064 224.204,27.064 C228.648,27.064 233.092,27.064 237.536,27.036 C238.068,27.036 238.192,27.148 238.156,27.68 C238.092,28.748 238.128,28.752 237.052,28.752 C232.144,28.752 227.24,28.752 222.332,28.752 C221.672,28.752 221.488,28.62 221.488,27.924 C221.52,19.272 221.488,10.616 221.488,1.96 C221.547026,1.61051572 221.50109,1.25137643 221.356,0.928 Z" id="Path" fill="#FFFFFF"></path>
                <path d="M132.316,29.016 C129.856657,29.1253525 127.425835,28.4532359 125.372,27.096 C123.334861,25.7599861 121.742898,23.8462883 120.8,21.6 C120.076318,19.8055351 119.644197,17.9069053 119.52,15.976 C119.332506,13.5549325 119.676536,11.1221441 120.528,8.848 C121.042197,7.44854719 121.812682,6.15717043 122.8,5.04 C126.184,1.156 130.524,0.268 135.372,0.8 C137.700228,1.07343183 139.89596,2.02797692 141.684,3.544 C142.22,3.976 142.084,4.208 141.78,4.66 C141.476,5.112 141.108,5.256 140.58,4.988 C140.268712,4.78751407 139.970753,4.56705143 139.688,4.328 C137.901542,3.09115183 135.772555,2.44490211 133.6,2.48 C131.952,2.516 130.356,2.556 128.764,3.188 C125.48,4.5 123.332,6.812 122.364,10.152 C121.124,14.352 121.316,18.464 123.588,22.316 C124.757061,24.3311093 126.626367,25.8459166 128.84,26.572 C132.12949,27.7837656 135.784997,27.491325 138.84,25.772 C139.482276,25.4039691 140.071651,24.9505001 140.592,24.424 C140.879805,24.1391231 141.297864,24.0296845 141.688337,24.1370028 C142.078811,24.2443211 142.382215,24.5520477 142.484,24.944 C142.552,25.228 142.284,25.504 142.112,25.62 C140.844,26.484 139.668,27.5 138.204,28.064 C136.323005,28.7653346 134.322167,29.0888397 132.316,29.016 Z" id="Path" fill="#FFFFFF"></path>
                <path d="M149.544,14.832 C149.544,10.468 149.544,6.104 149.544,1.74 C149.544,1.14 149.628,0.88 150.32,0.912 C151.628,0.968 151.628,0.912 151.628,2.26 C151.628,10.808 151.628,19.356 151.628,27.904 C151.628,28.616 151.424,28.748 150.776,28.704 C149.54,28.652 149.536,28.704 149.536,27.44 L149.544,14.832 Z" id="Path" fill="#FFFFFF"></path>
            </g>
        </g>
    </g>
</svg>
