<?xml version="1.0" encoding="UTF-8"?>
<svg width="173px" height="157px" viewBox="0 0 173 157" version="1.1" xmlns="http://www.w3.org/2000/svg" xmlns:xlink="http://www.w3.org/1999/xlink">
    <title>247DE21E-EE4B-45A3-8D6B-A9CFB7BF67F8@2x</title>
    <defs>
        <polygon id="path-1" points="0 0.7254 24.2716 0.7254 24.2716 26.3054 0 26.3054"></polygon>
        <polygon id="path-3" points="0.0861 0.1161 20.157 0.1161 20.157 23.0421 0.0861 23.0421"></polygon>
    </defs>
    <g id="Page-1" stroke="none" stroke-width="1" fill="none" fill-rule="evenodd">
        <g id="Home-A" transform="translate(-213.000000, -6412.000000)">
            <g id="footer" transform="translate(-46.699768, 6147.023545)">
                <g id="Group-23" transform="translate(259.699768, 265.440961)">
                    <path d="M85.2821,0.0003 C87.4101,3.3433 89.5291,6.6203 91.5961,9.9283 C97.7321,19.7443 103.6171,29.7063 108.9831,39.9673 C113.3371,48.2943 117.4611,56.7293 120.3331,65.7083 C121.6491,69.8193 122.5381,73.9943 122.2581,78.3673 C121.7721,85.9353 119.2771,92.7503 114.6581,98.7483 C109.2351,105.7923 102.1711,110.4523 93.4791,112.3303 C81.1021,115.0033 70.0001,112.1583 60.4501,103.8133 C54.4961,98.6103 50.7581,92.0183 48.9621,84.3113 C47.4951,78.0173 48.0171,71.8693 50.0211,65.7663 C52.1991,59.1293 54.9901,52.7573 58.0821,46.5103 C65.4651,31.5953 73.9941,17.3393 82.9791,3.3473 C83.6571,2.2913 84.3501,1.2453 85.0381,0.1963 C85.0661,0.1533 85.1201,0.1283 85.2821,0.0003" id="Fill-1" fill="#FFFFFF"></path>
                    <path d="M49.8358,145.8645 C52.6978,142.2225 55.5538,138.6155 58.3738,134.9795 C58.8948,134.3075 59.4198,133.9825 60.2918,134.2145 C61.0938,134.4265 61.9288,134.5155 62.8488,134.6765 C61.6748,141.2575 60.5078,147.7975 59.3328,154.3895 C58.2358,154.1925 57.2278,154.0105 56.1038,153.8095 C56.9308,149.1745 57.7508,144.5795 58.6178,139.7195 C58.3038,140.0685 58.1458,140.2255 58.0088,140.3985 C55.6778,143.3595 53.3358,146.3115 51.0298,149.2915 C50.5138,149.9595 49.9548,150.2635 49.0978,150.1225 C48.2338,149.9785 47.8148,149.4945 47.5598,148.6925 C46.4378,145.1605 45.2798,141.6385 44.1298,138.1145 C44.0208,137.7795 43.8808,137.4545 43.7008,136.9805 C42.8478,141.7715 42.0248,146.3955 41.1838,151.1205 C40.0968,150.9405 39.0678,150.7705 37.9418,150.5845 C39.1188,144.0025 40.2838,137.4865 41.4708,130.8455 C42.6138,131.0675 43.6908,131.2065 44.7168,131.5155 C45.0408,131.6145 45.3318,132.1355 45.4588,132.5215 C46.9098,136.9395 48.3268,141.3705 49.7538,145.7975 C49.7608,145.8175 49.7938,145.8315 49.8358,145.8645" id="Fill-3" fill="#FFFFFF"></path>
                    <path d="M68.5233,145.638 C68.6043,146.299 68.6383,146.971 68.7733,147.62 C69.3023,150.168 71.1513,151.98 73.5663,152.363 C76.5713,152.839 78.9163,151.877 80.2443,149.53 C81.2533,147.745 81.4423,145.792 81.1813,143.783 C80.8113,140.94 79.0113,138.985 76.2853,138.47 C73.3353,137.911 70.7653,139.049 69.4853,141.515 C68.8183,142.799 68.5463,144.185 68.5233,145.638 M85.0723,145.45 C84.9253,151.618 80.7193,155.831 74.8553,155.681 C68.6723,155.523 64.5883,151.277 64.7813,145.065 C64.9553,139.463 68.7943,135.123 74.9113,135.174 C81.0333,135.225 85.2133,139.534 85.0723,145.45" id="Fill-5" fill="#FFFFFF"></path>
                    <g id="Group-9" transform="translate(0.000000, 116.685000)">
                        <mask id="mask-2" fill="white">
                            <use xlink:href="#path-1"></use>
                        </mask>
                        <g id="Clip-8"></g>
                        <path d="M9.3256,0.7254 C10.4506,1.3164 11.5036,1.8704 12.6336,2.4634 C11.2976,5.0144 9.9866,7.5194 8.6406,10.0904 C11.4296,11.5574 14.1376,12.9824 16.9366,14.4544 C18.2806,11.9174 19.6056,9.4134 20.9646,6.8464 C22.0666,7.4274 23.1396,7.9934 24.2716,8.5884 C21.1556,14.5094 18.0706,20.3714 14.9486,26.3054 C13.8196,25.7124 12.7456,25.1494 11.6316,24.5644 C12.9936,21.9734 14.3266,19.4394 15.7026,16.8234 C12.9336,15.3664 10.2096,13.9324 7.3956,12.4514 C6.0346,15.0294 4.6996,17.5554 3.3116,20.1814 C2.1966,19.5974 1.1296,19.0384 -0.0004,18.4464 C3.1266,12.5044 6.2116,6.6434 9.3256,0.7254" id="Fill-7" fill="#FFFFFF" mask="url(#mask-2)"></path>
                    </g>
                    <path d="M21.2753,145.3382 C23.3453,138.9642 25.3883,132.6722 27.4613,126.2902 C31.4833,127.5952 35.4423,128.8792 39.4813,130.1892 C39.1643,131.1572 38.8753,132.0442 38.5613,133.0052 C35.7163,132.0872 32.9473,131.1942 30.1043,130.2772 C29.5273,132.0542 28.9803,133.7412 28.3973,135.5362 C30.6273,136.2662 32.8093,136.9802 35.0563,137.7152 C34.7613,138.6122 34.4783,139.4752 34.1653,140.4262 C31.9503,139.7142 29.7863,139.0192 27.5103,138.2882 C26.9353,140.0442 26.3673,141.7782 25.7543,143.6482 C28.5813,144.5722 31.3683,145.4852 34.2073,146.4142 C33.9033,147.3482 33.6133,148.2382 33.2893,149.2362 C29.2793,147.9362 25.3223,146.6512 21.2753,145.3382" id="Fill-10" fill="#FFFFFF"></path>
                    <path d="M131.1576,143.1389 C131.1166,140.9259 130.6306,138.8309 129.4446,136.9359 C126.1706,131.6989 119.0506,133.1279 116.6776,136.6419 C115.0526,139.0479 114.9766,141.6449 115.6186,144.3429 C116.2006,146.7949 117.3746,148.8539 119.6276,150.1599 C123.4976,152.4059 131.2386,150.5239 131.1576,143.1389 M132.7006,142.5529 C132.5906,146.8089 131.0706,149.7879 127.4906,151.3689 C123.8446,152.9779 120.2906,152.8239 117.1706,150.0859 C115.1476,148.3119 114.2646,145.9119 113.8776,143.3079 C113.6226,141.5979 113.7186,139.9089 114.2816,138.2709 C115.6176,134.3879 119.4616,131.9589 123.8116,132.2219 C128.0206,132.4759 131.1936,135.2839 132.2656,139.7729 C132.5166,140.8239 132.6036,141.9139 132.7006,142.5529" id="Fill-12" fill="#FFFFFF"></path>
                    <path d="M154.6635,143.0637 C154.0015,143.5317 153.5325,143.3707 153.0185,143.0287 C147.6085,139.4257 142.1885,135.8397 136.7705,132.2497 C136.5415,132.0967 136.3095,131.9467 135.8515,131.6457 C137.8095,137.1397 139.6865,142.4097 141.5995,147.7767 C141.2135,147.9277 140.8645,148.0637 140.3795,148.2537 C138.1705,142.0697 135.9775,135.9307 133.7895,129.8027 C134.4225,129.3157 134.9285,129.4237 135.5075,129.8107 C140.7735,133.3257 146.0545,136.8177 151.3315,140.3167 C151.6765,140.5447 152.0245,140.7687 152.5875,141.1347 C150.6355,135.6527 148.7595,130.3857 146.8565,125.0447 C147.2795,124.9047 147.6375,124.7857 148.0885,124.6347 C150.2915,130.8097 152.4755,136.9297 154.6635,143.0637" id="Fill-14" fill="#FFFFFF"></path>
                    <g id="Group-18" transform="translate(152.000000, 116.685000)">
                        <mask id="mask-4" fill="white">
                            <use xlink:href="#path-3"></use>
                        </mask>
                        <g id="Clip-17"></g>
                        <path d="M2.0111,6.3641 C3.3441,8.6601 4.6261,10.8681 5.9461,13.1411 C8.4411,11.7001 10.8681,10.2971 13.3551,8.8601 C13.5601,9.1881 13.7461,9.4871 13.9951,9.8871 C11.5281,11.3231 9.0831,12.7451 6.5651,14.2111 C7.9091,16.5331 9.2301,18.8131 10.6151,21.2051 C13.5971,19.4821 16.5491,17.7771 19.5711,16.0311 C19.7731,16.4091 19.9481,16.7401 20.1571,17.1311 C16.7431,19.1071 13.3781,21.0561 9.9491,23.0421 C6.6531,17.3571 3.3991,11.7461 0.0861,6.0341 C3.4711,4.0701 6.8331,2.1191 10.2851,0.1161 C10.4901,0.4501 10.6841,0.7651 10.9371,1.1791 C7.9581,2.9091 5.0321,4.6091 2.0111,6.3641" id="Fill-16" fill="#FFFFFF" mask="url(#mask-4)"></path>
                    </g>
                    <path d="M103.2914,137.5696 C102.7644,138.5706 102.6794,138.6176 101.8494,138.0496 C97.7874,135.2676 89.8924,136.5946 89.3374,144.3766 C89.1814,146.5666 89.5144,148.6506 90.5914,150.5896 C93.2314,155.3416 99.8594,155.1776 102.8544,152.2556 C103.6434,151.4866 103.6924,151.5136 104.3834,152.4576 C102.5374,154.5986 100.1474,155.4886 97.3724,155.5856 C92.0974,155.7676 88.5204,152.2066 87.8934,147.0626 C87.5594,144.3226 87.9294,141.7236 89.4914,139.3776 C92.3894,135.0256 99.4254,134.0856 103.2914,137.5696" id="Fill-19" fill="#FFFFFF"></path>
                    <path d="M106.7318,134.8508 C107.3028,134.8088 107.7108,134.7788 108.2148,134.7418 C108.9688,141.2288 109.7168,147.6618 110.4778,154.2078 C110.0088,154.2708 109.5608,154.3308 109.0018,154.4058 C108.2438,147.8728 107.4938,141.4168 106.7318,134.8508" id="Fill-21" fill="#FFFFFF"></path>
                </g>
            </g>
        </g>
    </g>
</svg>