<?xml version="1.0" encoding="UTF-8"?>
<svg width="35px" height="35px" viewBox="0 0 35 35" version="1.1" xmlns="http://www.w3.org/2000/svg" xmlns:xlink="http://www.w3.org/1999/xlink">
    <title>DA9E10EB-421C-4C03-8343-8B40634EE459@2x</title>
    <defs>
        <rect id="path-1" x="0" y="0" width="34" height="34"></rect>
    </defs>
    <g id="Page-1" stroke="none" stroke-width="1" fill="none" fill-rule="evenodd">
        <g id="Home-A" transform="translate(-1479.000000, -6596.000000)">
            <g id="footer" transform="translate(-46.699768, 6147.023545)">
                <g id="brand-/-youtube" transform="translate(1526.033101, 449.000000)">
                    <mask id="mask-2" fill="white">
                        <use xlink:href="#path-1"></use>
                    </mask>
                    <g id="brand-/-youtube-(Background/Mask)"></g>
                    <path d="M28.0938644,7.70242715 C26.6148645,7.29631603 22.9168925,7.08995142 16.9999487,7.08333333 C11.0839486,7.0767292 7.38597634,7.26751048 5.90603187,7.65567716 C4.7160319,7.98009383 3.73286502,8.96042771 3.40419836,10.174511 C3.01414282,11.653511 2.81722538,13.9267889 2.81344604,16.9943446 C2.80966967,20.0770105 3.00139259,22.3502879 3.38861481,23.8141767 C3.71444815,25.02826 4.67069865,25.9873452 5.88619862,26.3145952 C7.38030975,26.7207063 11.0778096,26.9270703 16.9786982,26.9336871 C22.8956429,26.9402911 26.5936153,26.749982 28.0726153,26.3627597 C29.285282,26.0369264 30.2457823,25.0792617 30.5758656,23.8651784 C30.9668656,22.3871228 31.1638515,20.1147894 31.1668234,17.048178 C31.1855739,13.9645666 30.9933103,11.6832609 30.5900326,10.2042609 C30.2641992,8.98876093 29.3079478,8.02967716 28.0938644,7.70242715 Z M14.1680326,12.7570943 L21.5446156,17.0141778 L14.1609491,21.2570943 L14.1680326,12.7570943 Z" fill="#FFFFFF" mask="url(#mask-2)"></path>
                </g>
            </g>
        </g>
    </g>
</svg>