<?xml version="1.0" encoding="UTF-8"?>
<svg width="267px" height="195px" viewBox="0 0 267 195" version="1.1" xmlns="http://www.w3.org/2000/svg" xmlns:xlink="http://www.w3.org/1999/xlink">
    <title>A98B53B5-CF3A-4F81-A549-09199BC8A205@2x</title>
    <defs>
        <polygon id="path-1" points="5.62623063e-15 0 220.956858 0 220.956858 57.1321166 5.62623063e-15 57.1321166"></polygon>
    </defs>
    <g id="Page-1" stroke="none" stroke-width="1" fill="none" fill-rule="evenodd">
        <g id="Home-B" transform="translate(-213.000000, -4925.000000)">
            <g id="Group-11" transform="translate(213.506146, 4925.940961)">
                <g id="Group-10" transform="translate(0.000000, -0.000000)">
                    <g id="Group-5" transform="translate(0.000000, 0.000000)">
                        <polygon id="Fill-1" fill="#353535" points="181.902087 0 143.40689 38.4951973 143.40689 0 117.487403 0 78.9922056 38.4951973 78.9922056 0 57.5227556 0 57.5227556 128.826202 78.9922056 128.826202 78.9922056 68.8599708 121.935856 25.9179036 121.935856 107.356752 111.20034 118.090685 111.20034 53.6775841 89.729306 75.1486177 89.729306 128.826202 143.40689 128.826202 143.40689 68.8599708 186.350541 25.9179036 186.350541 107.356752 175.613441 118.090685 175.613441 53.6775841 154.142407 75.1486177 154.142407 128.826202 207.821575 128.826202 207.821575 0"></polygon>
                        <path d="M10.7795215,164.232054 C12.6590278,164.232054 14.3358423,163.900376 15.8099649,163.237021 C17.2840875,162.573666 18.5002386,161.615486 19.4584183,160.362482 L19.4584183,160.362482 L15.3400883,156.686388 C14.1423637,158.197364 12.732734,158.952852 11.1111991,158.952852 C9.74763569,158.952852 8.651257,158.515222 7.82206304,157.639962 C6.99286908,156.764701 6.5782721,155.59001 6.5782721,154.115887 C6.5782721,152.641765 6.99286908,151.467073 7.82206304,150.591813 C8.651257,149.716553 9.74763569,149.278922 11.1111991,149.278922 C12.732734,149.278922 14.1423637,150.03441 15.3400883,151.545386 L15.3400883,151.545386 L19.4584183,147.869293 C18.5002386,146.616288 17.2840875,145.658109 15.8099649,144.994754 C14.3358423,144.331398 12.6590278,143.999721 10.7795215,143.999721 C8.7341764,143.999721 6.89152315,144.428138 5.25156176,145.284971 C3.61160037,146.141805 2.32634973,147.33953 1.39580984,148.878145 C0.465269945,150.416761 2.84217094e-14,152.162675 2.84217094e-14,154.115887 C2.84217094e-14,156.0691 0.465269945,157.815014 1.39580984,159.353629 C2.32634973,160.892244 3.61160037,162.089969 5.25156176,162.946803 C6.89152315,163.803637 8.7341764,164.232054 10.7795215,164.232054 Z M27.8609171,163.789817 L27.8609171,158.925212 L29.6298642,158.925212 L32.9190003,163.789817 L39.8842296,163.789817 L35.8211792,157.81962 C37.0004772,157.211545 37.9033773,156.391564 38.5298794,155.359678 C39.1563815,154.327792 39.4696326,153.120854 39.4696326,151.738864 C39.4696326,150.264742 39.1103152,148.974885 38.3916804,147.869293 C37.6730457,146.763701 36.6503731,145.91608 35.3236628,145.326431 C33.9969524,144.736782 32.4399104,144.441958 30.6525368,144.441958 L30.6525368,144.441958 L21.3379246,144.441958 L21.3379246,163.789817 L27.8609171,163.789817 Z M30.2379398,154.005328 L27.8609171,154.005328 L27.8609171,149.472401 L30.2379398,149.472401 C31.1224134,149.472401 31.7857685,149.670486 32.2280053,150.066657 C32.6702421,150.462827 32.8913605,151.02023 32.8913605,151.738864 C32.8913605,152.457499 32.6702421,153.014902 32.2280053,153.411072 C31.7857685,153.807243 31.1224134,154.005328 30.2379398,154.005328 L30.2379398,154.005328 Z M58.0159375,163.789817 L58.0159375,158.869933 L48.342008,158.869933 L48.342008,156.327071 L56.5233884,156.327071 L56.5233884,151.628305 L48.342008,151.628305 L48.342008,149.361842 L57.6566202,149.361842 L57.6566202,144.441958 L41.9295747,144.441958 L41.9295747,163.789817 L58.0159375,163.789817 Z M65.0640862,163.789817 L66.3631568,160.417761 L73.7153432,160.417761 L75.0144138,163.789817 L81.7585247,163.789817 L73.3007462,144.441958 L66.8883129,144.441958 L58.4305345,163.789817 L65.0640862,163.789817 Z M71.9187563,155.718995 L68.1597437,155.718995 L70.03925,150.854391 L71.9187563,155.718995 Z M91.598293,163.789817 L91.598293,149.500041 L97.2644518,149.500041 L97.2644518,144.441958 L79.4091418,144.441958 L79.4091418,149.500041 L85.0753005,149.500041 L85.0753005,163.789817 L91.598293,163.789817 Z M105.473472,163.789817 L105.473472,144.441958 L98.9504795,144.441958 L98.9504795,163.789817 L105.473472,163.789817 Z M121.117598,163.789817 L129.298978,144.441958 L122.886545,144.441958 L118.16014,155.746635 L113.544293,144.441958 L106.523784,144.441958 L114.705165,163.789817 L121.117598,163.789817 Z M145.60646,163.789817 L145.60646,158.869933 L135.93253,158.869933 L135.93253,156.327071 L144.113911,156.327071 L144.113911,151.628305 L135.93253,151.628305 L135.93253,149.361842 L145.247142,149.361842 L145.247142,144.441958 L129.520097,144.441958 L129.520097,163.789817 L145.60646,163.789817 Z" id="CREATIVE" fill="#353535" fill-rule="nonzero"></path>
                        <text id="-" font-family="Montserrat-ExtraBold, Montserrat" font-size="17.4533" font-weight="600"></text>
                        <g id="Group-4" transform="translate(45.183642, 136.867883)">
                            <mask id="mask-2" fill="white">
                                <use xlink:href="#path-1"></use>
                            </mask>
                            <g id="Clip-3"></g>
                            <path d="M121.814411,26.9219333 C123.822903,26.9219333 125.60567,26.5073363 127.162712,25.6781424 C128.719754,24.8489484 129.931298,23.7018967 130.797345,22.2369874 C131.663392,20.7720781 132.096416,19.1090835 132.096416,17.2480037 C132.096416,15.386924 131.663392,13.7239294 130.797345,12.2590201 C129.931298,10.7941107 128.719754,9.64705909 127.162712,8.81786513 C125.60567,7.98867117 123.822903,7.57407419 121.814411,7.57407419 L121.814411,7.57407419 L114.158186,7.57407419 L114.158186,26.9219333 L121.814411,26.9219333 Z M121.703852,25.6505026 L115.567816,25.6505026 L115.567816,8.84550493 L121.703852,8.84550493 C123.491225,8.84550493 125.066694,9.20021568 126.430257,9.90963718 C127.79382,10.6190587 128.844133,11.6094848 129.581194,12.8809155 C130.318255,14.1523463 130.686786,15.6080424 130.686786,17.2480037 C130.686786,18.8879651 130.318255,20.3436612 129.581194,21.6150919 C128.844133,22.8865227 127.79382,23.8769488 126.430257,24.5863703 C125.066694,25.2957918 123.491225,25.6505026 121.703852,25.6505026 L121.703852,25.6505026 Z M150.338683,26.9219333 L150.338683,25.6505026 L138.39829,25.6505026 L138.39829,17.7178803 L148.707935,17.7178803 L148.707935,16.4740894 L138.39829,16.4740894 L138.39829,8.84550493 L149.924086,8.84550493 L149.924086,7.57407419 L136.98866,7.57407419 L136.98866,26.9219333 L150.338683,26.9219333 Z M160.565409,27.0601323 C162.094811,27.0601323 163.384668,26.8298006 164.43498,26.3691373 C165.485293,25.908474 166.263814,25.2911852 166.770543,24.5172708 C167.277273,23.7433564 167.530638,22.8865227 167.530638,21.9467695 C167.530638,20.8043245 167.231207,19.8968178 166.632344,19.2242494 C166.033482,18.5516809 165.310241,18.0495579 164.46262,17.7178803 C163.615,17.3862027 162.481768,17.0453119 161.062925,16.6952078 C159.791494,16.3819567 158.787248,16.0871322 158.050187,15.8107342 C157.313126,15.5343362 156.695837,15.1381658 156.19832,14.6222229 C155.700804,14.10628 155.452046,13.415285 155.452046,12.549238 C155.452046,11.4067929 155.912709,10.4762531 156.834036,9.75761829 C157.755362,9.03898352 159.109712,8.67966614 160.897086,8.67966614 C161.799986,8.67966614 162.716706,8.81786513 163.647246,9.09426312 C164.577786,9.37066111 165.430013,9.77604482 166.203927,10.3104143 L166.203927,10.3104143 L166.729084,9.17718251 C165.973596,8.64281307 165.079909,8.21900282 164.048023,7.90575177 C163.016137,7.59250072 161.965825,7.43587519 160.897086,7.43587519 C159.367684,7.43587519 158.091647,7.66620685 157.068974,8.12687016 C156.046301,8.58753347 155.286207,9.20942895 154.788691,9.99255658 C154.291174,10.7756842 154.042416,11.6371246 154.042416,12.5768778 C154.042416,13.7377493 154.341847,14.6636826 154.940709,15.3546775 C155.539572,16.0456725 156.26742,16.5570088 157.124254,16.8886864 C157.981087,17.2203639 159.118926,17.5612548 160.537769,17.9113589 C161.790773,18.2061834 162.785806,18.4917947 163.522867,18.7681927 C164.259928,19.0445907 164.877217,19.4407611 165.374734,19.956704 C165.87225,20.4726469 166.121008,21.1636419 166.121008,22.0296889 C166.121008,23.1537074 165.651131,24.0658208 164.711378,24.766029 C163.771625,25.4662372 162.380422,25.8163414 160.537769,25.8163414 C159.266338,25.8163414 158.054793,25.5906163 156.903135,25.1391663 C155.751477,24.6877162 154.834757,24.1026738 154.152975,23.3840391 L154.152975,23.3840391 L153.51726,24.4343514 C154.235895,25.2082658 155.235534,25.8393745 156.516178,26.3276776 C157.796822,26.8159807 159.146566,27.0601323 160.565409,27.0601323 Z M173.721953,26.9219333 L173.721953,7.57407419 L172.312323,7.57407419 L172.312323,26.9219333 L173.721953,26.9219333 Z M188.730363,27.0601323 C190.0755,27.0601323 191.351538,26.8482272 192.558476,26.4244169 C193.765413,26.0006067 194.792693,25.3833178 195.640313,24.5725504 L195.640313,24.5725504 L195.640313,17.3309231 L194.285963,17.3309231 L194.285963,23.9921146 C192.830267,25.1714127 190.996827,25.7610618 188.785643,25.7610618 C187.127255,25.7610618 185.634706,25.3879245 184.307996,24.6416499 C182.981285,23.8953753 181.93558,22.8727028 181.170878,21.5736322 C180.406177,20.2745617 180.023827,18.8326855 180.023827,17.2480037 C180.023827,15.6448954 180.401571,14.193806 181.157059,12.8947354 C181.912546,11.5956649 182.958252,10.577599 184.294176,9.84053768 C185.630099,9.10347638 187.127255,8.73494573 188.785643,8.73494573 C190.001794,8.73494573 191.111993,8.91460443 192.116239,9.27392181 C193.120485,9.63323919 194.027992,10.2182816 194.838759,11.029049 L194.838759,11.029049 L195.723233,10.0892959 C194.875612,9.22324885 193.857546,8.56450031 192.669035,8.11305026 C191.480523,7.66160022 190.176846,7.43587519 188.758003,7.43587519 C186.823217,7.43587519 185.086517,7.85968544 183.547901,8.70730594 C182.009286,9.55492643 180.802348,10.7250112 179.927088,12.2175604 C179.051827,13.7101095 178.614197,15.386924 178.614197,17.2480037 C178.614197,19.1090835 179.051827,20.785898 179.927088,22.2784471 C180.802348,23.7709962 182.009286,24.9410811 183.547901,25.7887016 C185.086517,26.636322 186.814004,27.0601323 188.730363,27.0601323 Z M203.241258,26.9219333 L203.241258,10.1169357 L216.425442,26.9219333 L217.586313,26.9219333 L217.586313,7.57407419 L216.176684,7.57407419 L216.176684,24.3790718 L203.020139,7.57407419 L201.831628,7.57407419 L201.831628,26.9219333 L203.241258,26.9219333 Z" id="DESIGN" fill="#353535" fill-rule="nonzero" mask="url(#mask-2)"></path>
                            <path d="M4.22892199,53.9648303 L4.22892199,45.6636131 L7.43977016,45.6636131 L7.43977016,44.8282705 L0.0522089134,44.8282705 L0.0522089134,45.6636131 L3.26305709,45.6636131 L3.26305709,53.9648303 L4.22892199,53.9648303 Z M7.86283203,53.9648303 L8.95921922,51.5240636 L14.0495883,51.5240636 L15.1459755,53.9648303 L16.1640493,53.9648303 L11.9873362,44.8282705 L11.0345235,44.8282705 L6.85781045,53.9648303 L7.86283203,53.9648303 Z M13.6971781,50.7409299 L9.31162938,50.7409299 L11.5044037,45.833292 L13.6971781,50.7409299 Z M21.6774802,54.0431437 C22.3213901,54.0431437 22.9348449,53.9430766 23.5178444,53.7429424 C24.1008439,53.5428083 24.6055301,53.2556592 25.0319029,52.8814954 L25.0319029,52.8814954 L25.0319029,49.3965504 L24.1051947,49.3965504 L24.1051947,52.4768763 C23.4525833,52.9467565 22.6563973,53.1816966 21.7166369,53.1816966 C20.9770106,53.1816966 20.311347,53.0163684 19.7196459,52.6857119 C19.1279449,52.3550555 18.6624154,51.9025782 18.3230575,51.3282802 C17.9836996,50.7539821 17.8140206,50.1100722 17.8140206,49.3965504 C17.8140206,48.6830286 17.9836996,48.0369433 18.3230575,47.4582945 C18.6624154,46.8796457 19.1301203,46.4271684 19.7261721,46.1008627 C20.3222238,45.774557 20.9900628,45.6114042 21.7296891,45.6114042 C22.8434793,45.6114042 23.761486,45.9681651 24.4837093,46.6816869 L24.4837093,46.6816869 L25.0841118,46.0682321 C24.6838435,45.6331579 24.1922095,45.3046768 23.60921,45.0827889 C23.0262105,44.860901 22.3866513,44.7499571 21.6905324,44.7499571 C20.768175,44.7499571 19.9415338,44.9500913 19.210609,45.3503596 C18.4796843,45.7506279 17.9053862,46.3053476 17.4877149,47.0145187 C17.0700436,47.7236898 16.8612079,48.5177003 16.8612079,49.3965504 C16.8612079,50.2754004 17.0700436,51.069411 17.4877149,51.7785821 C17.9053862,52.4877531 18.4796843,53.0424728 19.210609,53.4427412 C19.9415338,53.8430095 20.7638242,54.0431437 21.6774802,54.0431437 Z M34.0955399,53.9648303 L34.0955399,53.1294877 L28.9790664,53.1294877 L28.9790664,44.8282705 L28.0132015,44.8282705 L28.0132015,53.9648303 L34.0955399,53.9648303 Z M36.9202118,53.9648303 L36.9202118,44.8282705 L35.9543469,44.8282705 L35.9543469,53.9648303 L36.9202118,53.9648303 Z M41.1153677,53.9648303 L41.1153677,46.5511646 L46.9888704,53.9648303 L47.7850564,53.9648303 L47.7850564,44.8282705 L46.8322437,44.8282705 L46.8322437,52.2419362 L40.9456887,44.8282705 L40.1495028,44.8282705 L40.1495028,53.9648303 L41.1153677,53.9648303 Z M57.4752004,53.9648303 L57.4752004,53.1294877 L51.9802122,53.1294877 L51.9802122,49.7359083 L56.7051189,49.7359083 L56.7051189,48.9136179 L51.9802122,48.9136179 L51.9802122,45.6636131 L57.279417,45.6636131 L57.279417,44.8282705 L51.0143473,44.8282705 L51.0143473,53.9648303 L57.4752004,53.9648303 Z M67.6797719,54.0431437 C68.3236818,54.0431437 68.9371365,53.9430766 69.5201361,53.7429424 C70.1031356,53.5428083 70.6078217,53.2556592 71.0341945,52.8814954 L71.0341945,52.8814954 L71.0341945,49.3965504 L70.1074863,49.3965504 L70.1074863,52.4768763 C69.4548749,52.9467565 68.658689,53.1816966 67.7189285,53.1816966 C66.9793023,53.1816966 66.3136386,53.0163684 65.7219376,52.6857119 C65.1302366,52.3550555 64.6647071,51.9025782 64.3253492,51.3282802 C63.9859912,50.7539821 63.8163123,50.1100722 63.8163123,49.3965504 C63.8163123,48.6830286 63.9859912,48.0369433 64.3253492,47.4582945 C64.6647071,46.8796457 65.132412,46.4271684 65.7284637,46.1008627 C66.3245155,45.774557 66.9923545,45.6114042 67.7319808,45.6114042 C68.8457709,45.6114042 69.7637776,45.9681651 70.486001,46.6816869 L70.486001,46.6816869 L71.0864035,46.0682321 C70.6861351,45.6331579 70.1945012,45.3046768 69.6115017,45.0827889 C69.0285021,44.860901 68.3889429,44.7499571 67.6928241,44.7499571 C66.7704666,44.7499571 65.9438255,44.9500913 65.2129007,45.3503596 C64.4819759,45.7506279 63.9076779,46.3053476 63.4900066,47.0145187 C63.0723352,47.7236898 62.8634996,48.5177003 62.8634996,49.3965504 C62.8634996,50.2754004 63.0723352,51.069411 63.4900066,51.7785821 C63.9076779,52.4877531 64.4819759,53.0424728 65.2129007,53.4427412 C65.9438255,53.8430095 66.7661159,54.0431437 67.6797719,54.0431437 Z M78.009475,54.0431437 C78.9144295,54.0431437 79.7301938,53.8430095 80.4567679,53.4427412 C81.1833419,53.0424728 81.7554646,52.4877531 82.1731359,51.7785821 C82.5908072,51.069411 82.7996429,50.2754004 82.7996429,49.3965504 C82.7996429,48.5177003 82.5908072,47.7236898 82.1731359,47.0145187 C81.7554646,46.3053476 81.1833419,45.7506279 80.4567679,45.3503596 C79.7301938,44.9500913 78.9144295,44.7499571 78.009475,44.7499571 C77.1045205,44.7499571 76.2844055,44.9522666 75.54913,45.3568857 C74.8138545,45.7615048 74.2395564,46.3162245 73.8262359,47.0210448 C73.4129153,47.7258652 73.206255,48.5177003 73.206255,49.3965504 C73.206255,50.2754004 73.4129153,51.0672356 73.8262359,51.7720559 C74.2395564,52.4768763 74.8138545,53.031596 75.54913,53.4362151 C76.2844055,53.8408341 77.1045205,54.0431437 78.009475,54.0431437 Z M78.009475,53.1816966 C77.2872517,53.1816966 76.632465,53.0185438 76.0451147,52.692238 C75.4577644,52.3659323 74.9965857,51.9134551 74.6615785,51.3348063 C74.3265713,50.7561575 74.1590677,50.1100722 74.1590677,49.3965504 C74.1590677,48.6830286 74.3265713,48.0369433 74.6615785,47.4582945 C74.9965857,46.8796457 75.4577644,46.4271684 76.0451147,46.1008627 C76.632465,45.774557 77.2872517,45.6114042 78.009475,45.6114042 C78.7316984,45.6114042 79.3843098,45.774557 79.9673093,46.1008627 C80.5503088,46.4271684 81.0071368,46.8796457 81.3377933,47.4582945 C81.6684497,48.0369433 81.833778,48.6830286 81.833778,49.3965504 C81.833778,50.1100722 81.6684497,50.7561575 81.3377933,51.3348063 C81.0071368,51.9134551 80.5503088,52.3659323 79.9673093,52.692238 C79.3843098,53.0185438 78.7316984,53.1816966 78.009475,53.1816966 Z M91.6805487,53.9648303 L91.6805487,53.1294877 L86.1855606,53.1294877 L86.1855606,49.7359083 L90.9104672,49.7359083 L90.9104672,48.9136179 L86.1855606,48.9136179 L86.1855606,45.6636131 L91.4847653,45.6636131 L91.4847653,44.8282705 L85.2196957,44.8282705 L85.2196957,53.9648303 L91.6805487,53.9648303 Z M96.7240994,54.0431437 C97.4724272,54.0431437 98.1032849,53.9321997 98.6166725,53.7103119 C99.1300602,53.488424 99.5107502,53.1882227 99.7587425,52.8097081 C100.006735,52.4311935 100.130731,52.0113468 100.130731,51.5501681 C100.130731,50.993273 99.9871565,50.5516726 99.7000075,50.2253669 C99.4128585,49.8990612 99.0626237,49.6554196 98.6493031,49.4944421 C98.2359825,49.3334646 97.6943151,49.1703118 97.0243007,49.0049835 C96.4587041,48.8657598 96.0084022,48.7374128 95.673395,48.6199428 C95.3383878,48.5024727 95.0599403,48.3327938 94.8380524,48.1109059 C94.6161645,47.889018 94.5052206,47.5953429 94.5052206,47.2298805 C94.5052206,46.7425973 94.7075301,46.3445043 95.1121492,46.0356016 C95.5167683,45.7266988 96.1193462,45.5722475 96.9198828,45.5722475 C97.3375541,45.5722475 97.7639269,45.6353332 98.1990012,45.7615048 C98.6340755,45.8876763 99.0430453,46.0769336 99.4259107,46.3292767 L99.4259107,46.3292767 L99.7522164,45.5591952 C99.386754,45.3068522 98.9538551,45.1088934 98.4535197,44.9653189 C97.9531842,44.8217443 97.441972,44.7499571 96.9198828,44.7499571 C96.1715551,44.7499571 95.5450481,44.8630764 95.040362,45.089315 C94.5356758,45.3155536 94.1615119,45.6179303 93.9178703,45.9964449 C93.6742287,46.3749595 93.5524079,46.7948062 93.5524079,47.2559849 C93.5524079,47.8215815 93.6981578,48.269708 93.9896576,48.6003645 C94.2811573,48.9310209 94.6313921,49.1768379 95.040362,49.3378154 C95.4493318,49.4987928 95.9975254,49.6662964 96.6849427,49.8403261 C97.2592408,49.9795499 97.7073673,50.1078968 98.0293222,50.2253669 C98.3512772,50.3428369 98.6231986,50.5103405 98.8450865,50.7278777 C99.0669744,50.9454148 99.1779183,51.2369146 99.1779183,51.602377 C99.1779183,52.0809587 98.9734334,52.4703502 98.5644636,52.7705514 C98.1554938,53.0707527 97.5420391,53.2208533 96.7240994,53.2208533 C96.1410999,53.2208533 95.5755033,53.1186108 95.0273097,52.9141259 C94.4791161,52.709641 94.0396911,52.4420703 93.7090347,52.1114139 L93.7090347,52.1114139 L93.33052,52.8553909 C93.669878,53.2121518 94.1506351,53.4993008 94.7727913,53.716838 C95.3949475,53.9343751 96.0453835,54.0431437 96.7240994,54.0431437 Z M107.124454,53.9648303 L107.124454,49.7489605 L112.84133,49.7489605 L112.84133,53.9648303 L113.794143,53.9648303 L113.794143,44.8282705 L112.84133,44.8282705 L112.84133,48.9005657 L107.124454,48.9005657 L107.124454,44.8282705 L106.158589,44.8282705 L106.158589,53.9648303 L107.124454,53.9648303 Z M123.484287,53.9648303 L123.484287,53.1294877 L117.989299,53.1294877 L117.989299,49.7359083 L122.714206,49.7359083 L122.714206,48.9136179 L117.989299,48.9136179 L117.989299,45.6636131 L123.288504,45.6636131 L123.288504,44.8282705 L117.023434,44.8282705 L117.023434,53.9648303 L123.484287,53.9648303 Z M126.974623,53.9648303 L126.974623,51.0672356 L129.428441,51.0672356 C129.680785,51.0672356 129.924426,51.0541834 130.159366,51.0280789 L130.159366,51.0280789 L132.247723,53.9648303 L133.304953,53.9648303 L131.073022,50.8322955 C131.743037,50.6147584 132.2586,50.2601728 132.619711,49.7685389 C132.980823,49.276905 133.161379,48.6743271 133.161379,47.9608053 C133.161379,46.9862389 132.830722,46.2205081 132.169409,45.6636131 C131.508097,45.106718 130.594441,44.8282705 129.428441,44.8282705 L129.428441,44.8282705 L126.008758,44.8282705 L126.008758,53.9648303 L126.974623,53.9648303 Z M129.402337,50.2449452 L126.974623,50.2449452 L126.974623,45.6636131 L129.402337,45.6636131 C130.307292,45.6636131 130.99906,45.8615719 131.477641,46.2574895 C131.956223,46.6534071 132.195514,47.221179 132.195514,47.9608053 C132.195514,48.6830286 131.956223,49.2442744 131.477641,49.6445427 C130.99906,50.0448111 130.307292,50.2449452 129.402337,50.2449452 L129.402337,50.2449452 Z M142.159755,53.9648303 L142.159755,53.1294877 L136.664767,53.1294877 L136.664767,49.7359083 L141.389673,49.7359083 L141.389673,48.9136179 L136.664767,48.9136179 L136.664767,45.6636131 L141.963971,45.6636131 L141.963971,44.8282705 L135.698902,44.8282705 L135.698902,53.9648303 L142.159755,53.9648303 Z" id="TAGLINEGOESHERE" fill="#353535" fill-rule="nonzero" mask="url(#mask-2)"></path>
                        </g>
                    </g>
                </g>
            </g>
        </g>
    </g>
</svg>