<?xml version="1.0" encoding="UTF-8"?>
<svg width="267px" height="197px" viewBox="0 0 267 197" version="1.1" xmlns="http://www.w3.org/2000/svg" xmlns:xlink="http://www.w3.org/1999/xlink">
    <title>5971958A-1840-41D4-8F5D-CD1629EC1D9C@2x</title>
    <defs>
        <polygon id="path-1" points="0 -1.14174601e-14 19.7433853 -1.14174601e-14 19.7433853 20.5293028 0 20.5293028"></polygon>
    </defs>
    <g id="Page-1" stroke="none" stroke-width="1" fill="none" fill-rule="evenodd">
        <g id="Home-B" transform="translate(-1441.000000, -5191.000000)">
            <g id="Group-14-Copy" transform="translate(1441.358408, 5191.000161)">
                <polygon id="Fill-1" fill="#353535" points="43.1134642 7.81597009e-13 43.1134642 130.716833 82.3289962 78.4310639 82.3289962 52.2873759"></polygon>
                <polygon id="Fill-2" fill="#353535" points="226.117191 7.81597009e-13 186.903266 52.2873759 186.903266 130.716833 226.117191 78.4310639"></polygon>
                <polygon id="Fill-3" fill="#353535" points="154.223335 6.03961325e-13 134.616372 26.143688 115.00941 6.03961325e-13 56.1853082 6.03961325e-13 134.616372 104.573145 186.902141 34.8528944 213.045829 6.03961325e-13"></polygon>
                <g id="Group-6" transform="translate(-0.000000, 152.982674)">
                    <mask id="mask-2" fill="white">
                        <use xlink:href="#path-1"></use>
                    </mask>
                    <g id="Clip-5"></g>
                    <path d="M5.32820251,19.2245287 C3.66349073,18.355215 2.36032349,17.1404253 1.41548708,15.5785528 C0.472257522,14.0182873 -0.000160686466,12.2459155 -0.000160686466,10.2630446 C-0.000160686466,8.28178044 0.472257522,6.51101559 1.41548708,4.94914314 C2.36032349,3.38887756 3.66349073,2.17248102 5.32820251,1.30316724 C6.9929143,0.433853457 8.86169789,-1.14174601e-14 10.937767,-1.14174601e-14 C12.8451154,-1.14174601e-14 14.5451782,0.335834713 16.0411692,1.009111 C17.5371602,1.6823873 18.7712322,2.65454041 19.7433853,3.92557036 L15.5655372,7.65510322 C14.3491407,6.12376121 12.9190312,5.3556799 11.2736017,5.3556799 C9.89009127,5.3556799 8.77814093,5.80078141 7.93614385,6.6877707 C7.09575364,7.57636685 6.6747551,8.76866043 6.6747551,10.2630446 C6.6747551,11.7590356 7.09575364,12.9513291 7.93614385,13.8399253 C8.77814093,14.7285214 9.89009127,15.1720161 11.2736017,15.1720161 C12.9190312,15.1720161 14.3491407,14.4055416 15.5655372,12.8725928 L19.7433853,16.6021256 C18.7712322,17.8731556 17.5371602,18.8453087 16.0411692,19.518585 C14.5451782,20.1918613 12.8451154,20.5293028 10.937767,20.5293028 C8.86169789,20.5293028 6.9929143,20.0938425 5.32820251,19.2245287" id="Fill-4" fill="#000000" mask="url(#mask-2)"></path>
                </g>
                <path d="M32.6998564,159.138091 C32.2515412,158.736375 31.5782649,158.535517 30.6800276,158.535517 L28.2681237,158.535517 L28.2681237,163.134363 L30.6800276,163.134363 C31.5782649,163.134363 32.2515412,162.933505 32.6998564,162.531789 C33.1481717,162.130073 33.3731327,161.564456 33.3731327,160.83494 C33.3731327,160.105423 33.1481717,159.539807 32.6998564,159.138091 L32.6998564,159.138091 Z M30.0629915,168.126892 L28.2681237,168.126892 L28.2681237,173.06318 L21.6494482,173.06318 L21.6494482,153.430508 L31.1010261,153.430508 C32.9135694,153.430508 34.4947243,153.729384 35.8412768,154.328745 C37.1862226,154.926499 38.2242571,155.786171 38.9537737,156.907763 C39.6832902,158.030961 40.0480485,159.338949 40.0480485,160.83494 C40.0480485,162.237733 39.7298893,163.462164 39.0935709,164.508233 C38.4572525,165.555908 37.5413397,166.388264 36.3458323,167.0053 L40.4674402,173.06318 L33.4004494,173.06318 L30.0629915,168.126892 Z" id="Fill-7" fill="#353535"></path>
                <polygon id="Fill-9" fill="#353535" points="58.8663619 168.070009 58.8663619 173.062537 42.5438307 173.062537 42.5438307 153.431472 58.5016036 153.431472 58.5016036 158.422393 49.0500257 158.422393 49.0500257 160.721817 57.3510885 160.721817 57.3510885 165.490991 49.0500257 165.490991 49.0500257 168.070009"></polygon>
                <path d="M72.9719019,164.873473 L71.0645535,159.937185 L69.1572052,164.873473 L72.9719019,164.873473 Z M74.7956933,169.64104 L67.3350207,169.64104 L66.0173917,173.062055 L59.2862356,173.062055 L67.8684997,153.43099 L74.3746947,153.43099 L82.955352,173.062055 L76.1133223,173.062055 L74.7956933,169.64104 Z" id="Fill-11" fill="#353535"></path>
                <polygon id="Fill-13" fill="#353535" points="87.3041705 158.562994 81.5548088 158.562994 81.5548088 153.430668 99.6722078 153.430668 99.6722078 158.562994 93.922846 158.562994 93.922846 173.061734 87.3041705 173.061734"></polygon>
                <polygon id="Fill-15" fill="#353535" points="101.381912 173.062377 108.000587 173.062377 108.000587 153.431311 101.381912 153.431311"></polygon>
                <polygon id="Fill-17" fill="#353535" points="132.174741 153.430829 123.873678 173.061894 117.367483 173.061894 109.066421 153.430829 116.189652 153.430829 120.872055 164.900629 125.668546 153.430829"></polygon>
                <polygon id="Fill-18" fill="#353535" points="149.142589 168.070009 149.142589 173.062537 132.820058 173.062537 132.820058 153.431472 148.777831 153.431472 148.777831 158.422393 139.326253 158.422393 139.326253 160.721817 147.627316 160.721817 147.627316 165.490991 139.326253 165.490991 139.326253 168.070009"></polygon>
                <path d="M169.33429,171.772546 C171.146833,171.772546 172.74727,171.412609 174.129174,170.692733 C175.514291,169.972858 176.579643,168.966961 177.326835,167.678255 C178.074027,166.387943 178.448426,164.911234 178.448426,163.246522 C178.448426,161.583417 178.074027,160.105102 177.326835,158.816397 C176.579643,157.526084 175.514291,156.520187 174.129174,155.800312 C172.74727,155.080436 171.146833,154.720499 169.33429,154.720499 L163.107689,154.720499 L163.107689,171.772546 L169.33429,171.772546 Z M161.67758,153.430186 L169.44677,153.430186 C171.484275,153.430186 173.293604,153.851185 174.873152,154.693182 C176.4527,155.535179 177.681952,156.698549 178.560907,158.184899 C179.439862,159.671249 179.878536,161.358456 179.878536,163.246522 C179.878536,165.136195 179.439862,166.821796 178.560907,168.308146 C177.681952,169.796103 176.4527,170.959473 174.873152,171.80147 C173.293604,172.64186 171.484275,173.062859 169.44677,173.062859 L161.67758,173.062859 L161.67758,153.430186 Z" id="Fill-19" fill="#353535"></path>
                <polygon id="Fill-20" fill="#353535" points="198.38817 171.772546 198.38817 173.062859 184.842301 173.062859 184.842301 153.430186 197.967172 153.430186 197.967172 154.720499 186.272411 154.720499 186.272411 162.462372 196.7331 162.462372 196.7331 163.723761 186.272411 163.723761 186.272411 171.772546"></polygon>
                <path d="M204.656389,172.458999 C203.356435,171.964085 202.342504,171.322946 201.612987,170.538796 L202.258947,169.473444 C202.949898,170.201354 203.880273,170.795894 205.050071,171.25385 C206.218261,171.711807 207.447513,171.939982 208.737825,171.939982 C210.606609,171.939982 212.019043,171.586471 212.971913,170.87463 C213.926391,170.164396 214.402023,169.238842 214.402023,168.097968 C214.402023,167.219013 214.149745,166.51842 213.64519,165.994582 C213.140634,165.472351 212.513957,165.069028 211.765158,164.789434 C211.017966,164.508233 210.008855,164.218997 208.737825,163.92012 C207.298074,163.565003 206.142739,163.219527 205.273425,162.882085 C204.404111,162.546251 203.664953,162.027234 203.057558,161.325034 C202.450164,160.624441 202.146466,159.684425 202.146466,158.506593 C202.146466,157.553722 202.398744,156.679588 202.903299,155.885797 C203.409462,155.090399 204.180757,154.458901 205.217184,153.991303 C206.255219,153.523706 207.548745,153.29071 209.102583,153.29071 C210.18561,153.29071 211.250961,153.44979 212.298637,153.767949 C213.346313,154.084502 214.252584,154.515141 215.019059,155.056655 L214.487187,156.20717 C213.70143,155.665656 212.83533,155.252692 211.8921,154.973098 C210.948871,154.691896 210.016889,154.552099 209.102583,154.552099 C207.288433,154.552099 205.914564,154.916857 204.979369,155.646374 C204.044173,156.375891 203.576576,157.320727 203.576576,158.479276 C203.576576,159.358231 203.828853,160.058824 204.333409,160.582662 C204.839571,161.1065 205.464642,161.508216 206.213441,161.787811 C206.960633,162.069012 207.979385,162.367889 209.269697,162.686048 C210.709448,163.041165 211.858356,163.386641 212.719636,163.722476 C213.579308,164.059917 214.313645,164.569293 214.92104,165.252211 C215.528435,165.933521 215.832132,166.855862 215.832132,168.014411 C215.832132,168.967282 215.575034,169.836596 215.060837,170.622353 C214.546641,171.408109 213.75767,172.034787 212.690712,172.500777 C211.625361,172.968375 210.315766,173.202977 208.765142,173.202977 C207.325391,173.202977 205.956342,172.95552 204.656389,172.458999" id="Fill-21" fill="#353535"></path>
                <polygon id="Fill-22" fill="#353535" points="220.683578 173.062377 222.113688 173.062377 222.113688 153.431311 220.683578 153.431311"></polygon>
                <path d="M242.980271,163.331043 L244.354141,163.331043 L244.354141,170.679236 C243.494468,171.50195 242.451613,172.128627 241.227182,172.55766 C240.002751,172.9883 238.707618,173.20362 237.34339,173.20362 C235.399084,173.20362 233.645995,172.77298 232.084122,171.911701 C230.523857,171.053635 229.297819,169.864555 228.41083,168.350889 C227.522233,166.837222 227.078739,165.135552 227.078739,163.24588 C227.078739,161.357814 227.522233,159.656144 228.41083,158.142478 C229.297819,156.628811 230.523857,155.441338 232.084122,154.580059 C233.645995,153.721993 235.408725,153.289746 237.370707,153.289746 C238.810458,153.289746 240.134514,153.519528 241.339663,153.977484 C242.544811,154.435441 243.578025,155.103896 244.439305,155.982851 L243.541067,156.937329 C242.718353,156.114614 241.797619,155.520074 240.778867,155.155316 C239.760115,154.792165 238.633703,154.608982 237.399631,154.608982 C235.715636,154.608982 234.197149,154.983382 232.840955,155.730574 C231.486369,156.477766 230.425838,157.51098 229.657757,158.830216 C228.891282,160.147845 228.508848,161.619733 228.508848,163.24588 C228.508848,164.854351 228.896103,166.316598 229.672218,167.635834 C230.448334,168.953463 231.510472,169.991497 232.855417,170.748331 C234.20197,171.505164 235.715636,171.884384 237.399631,171.884384 C239.642814,171.884384 241.503563,171.28663 242.980271,170.089516 L242.980271,163.331043 Z" id="Fill-23" fill="#353535"></path>
                <polygon id="Fill-24" fill="#353535" points="266.62191 153.430829 266.62191 173.061894 265.444079 173.061894 252.06693 156.009847 252.06693 173.061894 250.636821 173.061894 250.636821 153.430829 251.841969 153.430829 265.191801 170.482877 265.191801 153.430829"></polygon>
                <polygon id="Fill-25" fill="#353535" points="49.1560788 188.497918 45.8989641 188.497918 45.8989641 187.649494 53.3933809 187.649494 53.3933809 188.497918 50.1362662 188.497918 50.1362662 196.921103 49.1560788 196.921103"></polygon>
                <path d="M62.0690038,193.649527 L59.8434963,188.669853 L57.6179887,193.649527 L62.0690038,193.649527 Z M62.4257278,194.444925 L57.2612648,194.444925 L56.1477076,196.921103 L55.1289554,196.921103 L59.3662575,187.649494 L60.33359,187.649494 L64.572499,196.921103 L63.539285,196.921103 L62.4257278,194.444925 Z" id="Fill-26" fill="#353535"></path>
                <path d="M74.6234374,192.285138 L75.5634532,192.285138 L75.5634532,195.821847 C75.1312066,196.201067 74.6186168,196.491909 74.0272906,196.695981 C73.4359644,196.898446 72.8141078,196.999679 72.1601139,196.999679 C71.232953,196.999679 70.3989902,196.797214 69.6566187,196.390677 C68.9158541,195.98414 68.3325623,195.421738 67.90835,194.701862 C67.4857446,193.983594 67.2736384,193.176948 67.2736384,192.285138 C67.2736384,191.393328 67.4857446,190.588289 67.90835,189.868413 C68.3325623,189.148538 68.9158541,188.586135 69.6566187,188.179599 C70.3989902,187.773062 71.2377736,187.570597 72.1729688,187.570597 C72.8799892,187.570597 73.5275557,187.683077 74.1204887,187.908038 C74.7118149,188.132999 75.209943,188.467227 75.6164797,188.907508 L75.007478,189.530972 C74.2747478,188.806276 73.3427663,188.444731 72.2131404,188.444731 C71.4627346,188.444731 70.7846377,188.610238 70.1804566,188.941252 C69.5746686,189.272266 69.1006436,189.73183 68.7567745,190.318335 C68.4112986,190.906448 68.2393641,191.562049 68.2393641,192.285138 C68.2393641,193.009834 68.4112986,193.662221 68.7567745,194.245513 C69.1006436,194.828804 69.5730618,195.286761 70.1724223,195.622596 C70.7733897,195.95843 71.4482728,196.125544 72.2002855,196.125544 C73.1531562,196.125544 73.9614091,195.887728 74.6234374,195.410489 L74.6234374,192.285138 Z" id="Fill-27" fill="#353535"></path>
                <polygon id="Fill-28" fill="#353535" points="80.4507321 187.649815 81.4309195 187.649815 81.4309195 196.073 86.6226992 196.073 86.6226992 196.921424 80.4507321 196.921424"></polygon>
                <polygon id="Fill-29" fill="#353535" points="90.3700683 196.921103 91.3502557 196.921103 91.3502557 187.649494 90.3700683 187.649494"></polygon>
                <polygon id="Fill-30" fill="#353535" points="104.235864 187.649815 104.235864 196.921424 103.427611 196.921424 97.4677501 189.398084 97.4677501 196.921424 96.4875627 196.921424 96.4875627 187.649815 97.2958156 187.649815 103.268532 195.173156 103.268532 187.649815"></polygon>
                <polygon id="Fill-31" fill="#353535" points="115.930464 196.07316 115.930464 196.919978 109.374457 196.919978 109.374457 187.649976 115.731213 187.649976 115.731213 188.4984 110.354644 188.4984 110.354644 191.795687 115.149528 191.795687 115.149528 192.62965 110.354644 192.62965 110.354644 196.07316"></polygon>
                <path d="M132.471368,192.285138 L133.411384,192.285138 L133.411384,195.821847 C132.979138,196.201067 132.466548,196.491909 131.875222,196.695981 C131.283895,196.898446 130.662039,196.999679 130.008045,196.999679 C129.080884,196.999679 128.246921,196.797214 127.50455,196.390677 C126.763785,195.98414 126.180493,195.421738 125.756281,194.701862 C125.333676,193.983594 125.12157,193.176948 125.12157,192.285138 C125.12157,191.393328 125.333676,190.588289 125.756281,189.868413 C126.180493,189.148538 126.763785,188.586135 127.50455,188.179599 C128.246921,187.773062 129.085705,187.570597 130.0209,187.570597 C130.72792,187.570597 131.375487,187.683077 131.96842,187.908038 C132.559746,188.132999 133.057874,188.467227 133.464411,188.907508 L132.855409,189.530972 C132.122679,188.806276 131.190697,188.444731 130.061071,188.444731 C129.310666,188.444731 128.632569,188.610238 128.028388,188.941252 C127.4226,189.272266 126.948575,189.73183 126.604706,190.318335 C126.25923,190.906448 126.087295,191.562049 126.087295,192.285138 C126.087295,193.009834 126.25923,193.662221 126.604706,194.245513 C126.948575,194.828804 127.420993,195.286761 128.020353,195.622596 C128.621321,195.95843 129.296204,196.125544 130.048217,196.125544 C131.001087,196.125544 131.80934,195.887728 132.471368,195.410489 L132.471368,192.285138 Z" id="Fill-32" fill="#353535"></path>
                <path d="M144.336939,195.629184 C144.928265,195.29817 145.392649,194.838606 145.728484,194.252101 C146.062712,193.665595 146.231433,193.009994 146.231433,192.285298 C146.231433,191.562209 146.062712,190.906609 145.728484,190.318496 C145.392649,189.73199 144.928265,189.272427 144.336939,188.941413 C143.745613,188.610399 143.083585,188.444892 142.350854,188.444892 C141.618124,188.444892 140.954489,188.610399 140.356735,188.941413 C139.760589,189.272427 139.292991,189.73199 138.953943,190.318496 C138.613287,190.906609 138.444566,191.562209 138.444566,192.285298 C138.444566,193.009994 138.613287,193.665595 138.953943,194.252101 C139.292991,194.838606 139.760589,195.29817 140.356735,195.629184 C140.954489,195.960198 141.618124,196.125705 142.350854,196.125705 C143.083585,196.125705 143.745613,195.960198 144.336939,195.629184 M139.853787,196.38441 C139.108202,195.973053 138.52491,195.41065 138.107125,194.695595 C137.686126,193.980541 137.477234,193.177108 137.477234,192.285298 C137.477234,191.393489 137.686126,190.590056 138.107125,189.875001 C138.52491,189.159947 139.108202,188.597544 139.853787,188.186187 C140.599372,187.776436 141.431728,187.570758 142.350854,187.570758 C143.268374,187.570758 144.097516,187.773222 144.83346,188.179759 C145.571011,188.586296 146.151089,189.148699 146.575302,189.868574 C146.999514,190.588449 147.21162,191.393489 147.21162,192.285298 C147.21162,193.177108 146.999514,193.983754 146.575302,194.702023 C146.151089,195.421898 145.571011,195.984301 144.83346,196.390838 C144.097516,196.797374 143.268374,196.999839 142.350854,196.999839 C141.431728,196.999839 140.599372,196.795768 139.853787,196.38441" id="Fill-33" fill="#353535"></path>
                <polygon id="Fill-34" fill="#353535" points="158.083988 196.07316 158.083988 196.919978 151.52798 196.919978 151.52798 187.649976 157.884736 187.649976 157.884736 188.4984 152.508167 188.4984 152.508167 191.795687 157.303051 191.795687 157.303051 192.62965 152.508167 192.62965 152.508167 196.07316"></polygon>
                <path d="M163.083426,196.668665 C162.451928,196.448524 161.963441,196.157682 161.619572,195.79453 L162.003613,195.039304 C162.339447,195.375138 162.784549,195.646699 163.342131,195.853984 C163.898106,196.062877 164.471757,196.165716 165.063083,196.165716 C165.893832,196.165716 166.515689,196.013064 166.93026,195.709366 C167.344831,195.404062 167.552116,195.008773 167.552116,194.5235 C167.552116,194.152314 167.439636,193.856651 167.214675,193.636511 C166.989714,193.41637 166.713333,193.246043 166.387139,193.125528 C166.060946,193.00662 165.606203,192.876464 165.022911,192.73506 C164.325532,192.558305 163.769557,192.389584 163.354986,192.225684 C162.938808,192.061784 162.583691,191.81272 162.288028,191.478492 C161.992365,191.142657 161.844533,190.687914 161.844533,190.112657 C161.844533,189.645059 161.968262,189.21924 162.215719,188.835199 C162.463176,188.451159 162.842396,188.144248 163.354986,187.914466 C163.865969,187.684684 164.502287,187.570597 165.260727,187.570597 C165.790993,187.570597 166.31001,187.642906 166.817779,187.78913 C167.325548,187.933748 167.764222,188.134606 168.135408,188.391705 L167.804394,189.172641 C167.415533,188.917149 167.000962,188.725933 166.559074,188.597383 C166.118793,188.468834 165.68494,188.40456 165.260727,188.40456 C164.449261,188.40456 163.838652,188.562032 163.427295,188.875371 C163.015937,189.18871 162.811866,189.592033 162.811866,190.086947 C162.811866,190.458133 162.924346,190.755403 163.149307,190.980364 C163.374268,191.206932 163.657076,191.378866 163.996125,191.497774 C164.33678,191.616682 164.79313,191.746838 165.36678,191.888242 C166.048091,192.055356 166.597639,192.220863 167.01703,192.384763 C167.434815,192.548664 167.791539,192.794514 168.082382,193.125528 C168.373224,193.456542 168.519449,193.904857 168.519449,194.470474 C168.519449,194.938071 168.394113,195.36389 168.141836,195.747931 C167.891165,196.133579 167.50391,196.437276 166.983286,196.662237 C166.462662,196.887198 165.82313,196.999679 165.063083,196.999679 C164.373738,196.999679 163.714923,196.890412 163.083426,196.668665" id="Fill-35" fill="#353535"></path>
                <polygon id="Fill-36" fill="#353535" points="186.107547 187.649815 186.107547 196.921424 185.140214 196.921424 185.140214 192.642344 179.339433 192.642344 179.339433 196.921424 178.359245 196.921424 178.359245 187.649815 179.339433 187.649815 179.339433 191.782671 185.140214 191.782671 185.140214 187.649815"></polygon>
                <polygon id="Fill-37" fill="#353535" points="197.801343 196.07316 197.801343 196.919978 191.245336 196.919978 191.245336 187.649976 197.602092 187.649976 197.602092 188.4984 192.225523 188.4984 192.225523 191.795687 197.020407 191.795687 197.020407 192.62965 192.225523 192.62965 192.225523 196.07316"></polygon>
                <path d="M207.773545,192.537094 C208.258819,192.130557 208.501455,191.561727 208.501455,190.828997 C208.501455,190.078591 208.258819,189.501727 207.773545,189.100011 C207.288272,188.698294 206.586072,188.497436 205.666946,188.497436 L203.203622,188.497436 L203.203622,193.146096 L205.666946,193.146096 C206.586072,193.146096 207.288272,192.943631 207.773545,192.537094 L207.773545,192.537094 Z M208.554482,196.920621 L206.435027,193.941494 C206.197211,193.967204 205.949754,193.980059 205.694263,193.980059 L203.203622,193.980059 L203.203622,196.920621 L202.223435,196.920621 L202.223435,187.649012 L205.694263,187.649012 C206.876915,187.649012 207.804076,187.933427 208.475745,188.497436 C209.145808,189.063053 209.481643,189.839168 209.481643,190.828997 C209.481643,191.552086 209.29846,192.164302 208.932095,192.66243 C208.56573,193.162164 208.041892,193.522102 207.362188,193.742243 L209.627867,196.920621 L208.554482,196.920621 Z" id="Fill-38" fill="#353535"></path>
                <polygon id="Fill-39" fill="#353535" points="220.473882 196.07316 220.473882 196.919978 213.917875 196.919978 213.917875 187.649976 220.274631 187.649976 220.274631 188.4984 214.898062 188.4984 214.898062 191.795687 219.692946 191.795687 219.692946 192.62965 214.898062 192.62965 214.898062 196.07316"></polygon>
            </g>
        </g>
    </g>
</svg>