<?xml version="1.0" encoding="UTF-8"?>
<svg width="263px" height="194px" viewBox="0 0 263 194" version="1.1" xmlns="http://www.w3.org/2000/svg" xmlns:xlink="http://www.w3.org/1999/xlink">
    <title>D36AEC48-ECAD-45DF-9550-060A41374779@2x</title>
    <defs>
        <polygon id="path-1" points="0 -1.12435901e-14 19.4427247 -1.12435901e-14 19.4427247 20.2166739 0 20.2166739"></polygon>
    </defs>
    <g id="Page-1" stroke="none" stroke-width="1" fill="none" fill-rule="evenodd">
        <g id="Home-B" transform="translate(-1443.000000, -4923.000000)">
            <g id="Group-13" transform="translate(1443.388524, 4923.000158)">
                <g id="Group-12" transform="translate(14.566101, 0.000000)" fill="#353535">
                    <polygon id="Fill-1" points="53.6368486 48.2718978 107.286356 128.725588 9.9475983e-14 128.725588"></polygon>
                    <polygon id="Fill-2" points="85.8183248 2.13162821e-13 60.0870056 38.6040995 120.172112 128.726221 171.634751 128.726221"></polygon>
                    <polygon id="Fill-3" points="150.181594 2.13162821e-13 124.450274 38.6040995 184.535381 128.726221 235.999602 128.726221"></polygon>
                    <polygon id="Fill-4" points="85.8183248 2.13162821e-13 60.0870056 38.6040995 120.172112 128.726221 171.634751 128.726221"></polygon>
                    <path d="M17.6357882,156.714668 C17.1943001,156.319069 16.5312768,156.12127 15.6467182,156.12127 L13.2715438,156.12127 L13.2715438,160.650084 L15.6467182,160.650084 C16.5312768,160.650084 17.1943001,160.452284 17.6357882,160.056686 C18.0772763,159.661087 18.2988116,159.104084 18.2988116,158.385677 C18.2988116,157.66727 18.0772763,157.110267 17.6357882,156.714668 L17.6357882,156.714668 Z M15.0390786,165.566584 L13.2715438,165.566584 L13.2715438,170.4277 L6.75366031,170.4277 L6.75366031,151.094002 L16.0613056,151.094002 C17.8462467,151.094002 19.403323,151.388328 20.7293697,151.978561 C22.053834,152.567212 23.076061,153.413793 23.7944681,154.518304 C24.5128753,155.624398 24.8720789,156.912467 24.8720789,158.385677 C24.8720789,159.767107 24.5587648,160.972892 23.9321365,162.003031 C23.3055082,163.034752 22.4035433,163.854433 21.2262416,164.462072 L25.2850839,170.4277 L18.3257123,170.4277 L15.0390786,165.566584 Z" id="Fill-8"></path>
                    <polygon id="Fill-10" points="43.403819 165.510567 43.403819 170.427067 27.3298542 170.427067 27.3298542 151.094952 43.0446154 151.094952 43.0446154 156.00987 33.7369701 156.00987 33.7369701 158.274276 41.9116208 158.274276 41.9116208 162.970824 33.7369701 162.970824 33.7369701 165.510567"></polygon>
                    <path d="M57.2945538,162.362709 L55.4162514,157.501593 L53.5379489,162.362709 L57.2945538,162.362709 Z M59.0905717,167.057674 L51.7435134,167.057674 L50.4459498,170.426592 L43.8172987,170.426592 L52.2688684,151.094477 L58.6759843,151.094477 L67.1259717,170.426592 L60.3881353,170.426592 L59.0905717,167.057674 Z" id="Fill-12"></path>
                    <polygon id="Fill-14" points="71.4085645 156.148329 65.7467565 156.148329 65.7467565 151.094161 83.588256 151.094161 83.588256 156.148329 77.926448 156.148329 77.926448 170.426276 71.4085645 170.426276"></polygon>
                    <polygon id="Fill-16" points="85.2719239 170.426909 91.7898074 170.426909 91.7898074 151.094794 85.2719239 151.094794"></polygon>
                    <polygon id="Fill-18" points="115.595827 151.094319 107.421176 170.426434 101.01406 170.426434 92.8394098 151.094319 99.8541652 151.094319 104.465263 162.389452 109.188711 151.094319"></polygon>
                    <polygon id="Fill-19" points="132.305281 165.510567 132.305281 170.427067 116.231317 170.427067 116.231317 151.094952 131.946078 151.094952 131.946078 156.00987 122.638433 156.00987 122.638433 158.274276 130.813083 158.274276 130.813083 162.970824 122.638433 162.970824 122.638433 165.510567"></polygon>
                    <path d="M152.189494,169.156721 C153.974435,169.156721 155.5505,168.802264 156.91136,168.093351 C158.275384,167.384439 159.324512,166.39386 160.060325,165.124779 C160.796139,163.854116 161.164837,162.399896 161.164837,160.760535 C161.164837,159.122756 160.796139,157.666953 160.060325,156.397873 C159.324512,155.12721 158.275384,154.136631 156.91136,153.427718 C155.5505,152.718805 153.974435,152.364349 152.189494,152.364349 L146.057715,152.364349 L146.057715,169.156721 L152.189494,169.156721 Z M144.649384,151.093686 L152.300262,151.093686 C154.306738,151.093686 156.088515,151.508273 157.644009,152.337448 C159.199502,153.166623 160.410034,154.312277 161.275604,155.775992 C162.141174,157.239707 162.573168,158.901221 162.573168,160.760535 C162.573168,162.621431 162.141174,164.281363 161.275604,165.745078 C160.410034,167.210375 159.199502,168.356029 157.644009,169.185204 C156.088515,170.012796 154.306738,170.427384 152.300262,170.427384 L144.649384,170.427384 L144.649384,151.093686 Z" id="Fill-20"></path>
                    <polygon id="Fill-21" points="180.80093 169.156721 180.80093 170.427384 167.461343 170.427384 167.461343 151.093686 180.386342 151.093686 180.386342 152.364349 168.869674 152.364349 168.869674 159.988326 179.171063 159.988326 179.171063 161.230506 168.869674 161.230506 168.869674 169.156721"></polygon>
                    <path d="M186.973693,169.83272 C185.693536,169.345342 184.695045,168.713967 183.976638,167.941758 L184.61276,166.89263 C185.29319,167.609455 186.209396,168.194941 187.36138,168.645924 C188.511781,169.096906 189.722313,169.321606 190.992975,169.321606 C192.8333,169.321606 194.224225,168.973479 195.162585,168.272479 C196.102528,167.57306 196.570917,166.661601 196.570917,165.538101 C196.570917,164.672531 196.322481,163.982607 195.825609,163.466746 C195.328737,162.952468 194.711603,162.555287 193.974207,162.27995 C193.238393,162.003031 192.24465,161.7182 190.992975,161.423875 C189.57515,161.074165 188.437408,160.733951 187.581333,160.401648 C186.725257,160.070927 185.997356,159.559814 185.39921,158.868307 C184.801065,158.178383 184.501993,157.252682 184.501993,156.092787 C184.501993,155.154427 184.750429,154.293604 185.247301,153.511901 C185.745755,152.728616 186.505304,152.106735 187.525949,151.646258 C188.548176,151.185781 189.822003,150.956334 191.352179,150.956334 C192.418713,150.956334 193.467841,151.112991 194.499562,151.426305 C195.531283,151.738037 196.423754,152.162119 197.178556,152.695386 L196.654783,153.82838 C195.880993,153.295113 195.028082,152.888438 194.099216,152.613101 C193.17035,152.336182 192.252562,152.198514 191.352179,152.198514 C189.565656,152.198514 188.212708,152.557717 187.291754,153.276125 C186.370801,153.994532 185.910324,154.92498 185.910324,156.065886 C185.910324,156.931456 186.15876,157.62138 186.655632,158.137241 C187.154086,158.653102 187.769638,159.0487 188.507033,159.324037 C189.242847,159.600956 190.246085,159.895281 191.516748,160.208596 C192.934574,160.558305 194.065986,160.89852 194.914149,161.22924 C195.760731,161.561543 196.483885,162.063162 197.08203,162.73568 C197.680175,163.406615 197.979248,164.31491 197.979248,165.455816 C197.979248,166.394176 197.726065,167.250252 197.219698,168.024043 C196.713332,168.797834 195.936376,169.414967 194.885666,169.873862 C193.836539,170.334339 192.546887,170.565368 191.019876,170.565368 C189.602051,170.565368 188.25385,170.32168 186.973693,169.83272" id="Fill-22"></path>
                    <polygon id="Fill-23" points="202.756814 170.426909 204.165145 170.426909 204.165145 151.094794 202.756814 151.094794"></polygon>
                    <path d="M224.713963,160.843769 L226.066911,160.843769 L226.066911,168.080059 C225.22033,168.890245 224.193356,169.507379 222.987571,169.929879 C221.781786,170.35396 220.506376,170.566001 219.162923,170.566001 C217.248226,170.566001 215.521833,170.14192 213.983745,169.293756 C212.44724,168.448757 211.239873,167.277785 210.366391,165.78717 C209.491327,164.296554 209.054586,162.620798 209.054586,160.759902 C209.054586,158.900588 209.491327,157.224832 210.366391,155.734216 C211.239873,154.243601 212.44724,153.074211 213.983745,152.226048 C215.521833,151.381049 217.25772,150.955385 219.189824,150.955385 C220.607649,150.955385 221.911543,151.181667 223.098338,151.63265 C224.285134,152.083632 225.302614,152.741908 226.150778,153.607478 L225.266219,154.54742 C224.456033,153.737234 223.549321,153.151748 222.546083,152.792545 C221.542845,152.434924 220.433586,152.254531 219.218307,152.254531 C217.559957,152.254531 216.064594,152.623229 214.729053,153.359042 C213.395095,154.094856 212.350714,155.112335 211.594329,156.411481 C210.839527,157.709045 210.462917,159.158518 210.462917,160.759902 C210.462917,162.343879 210.844274,163.783858 211.608571,165.083004 C212.372868,166.380568 213.41883,167.402794 214.743295,168.148102 C216.069342,168.89341 217.559957,169.266855 219.218307,169.266855 C221.42733,169.266855 223.259743,168.678205 224.713963,167.499321 L224.713963,160.843769 Z" id="Fill-24"></path>
                    <polygon id="Fill-25" points="247.995577 151.094319 247.995577 170.426434 246.835682 170.426434 233.662247 153.634062 233.662247 170.426434 232.253916 170.426434 232.253916 151.094319 233.440712 151.094319 246.587246 167.886691 246.587246 151.094319"></polygon>
                    <polygon id="Fill-26" points="33.8414082 185.627392 30.6338942 185.627392 30.6338942 184.791887 38.0141828 184.791887 38.0141828 185.627392 34.8066689 185.627392 34.8066689 193.922304 33.8414082 193.922304"></polygon>
                    <path d="M46.5576897,190.700549 L44.3660731,185.796708 L42.1744566,190.700549 L46.5576897,190.700549 Z M46.9089813,191.483834 L41.823165,191.483834 L40.7265655,193.922304 L39.7233273,193.922304 L43.8961019,184.791887 L44.8487035,184.791887 L49.0230605,193.922304 L48.0055808,193.922304 L46.9089813,191.483834 Z" id="Fill-27"></path>
                    <path d="M58.920939,189.356938 L59.8466399,189.356938 L59.8466399,192.839788 C59.4209757,193.213233 58.9161918,193.499647 58.3338706,193.700611 C57.7515494,193.899993 57.1391626,193.999684 56.495128,193.999684 C55.5820863,193.999684 54.7608235,193.800302 54.0297572,193.399956 C53.3002732,192.99961 52.725864,192.445772 52.3081118,191.736859 C51.891942,191.029529 51.6830659,190.235167 51.6830659,189.356938 C51.6830659,188.478709 51.891942,187.685929 52.3081118,186.977016 C52.725864,186.268103 53.3002732,185.714265 54.0297572,185.313919 C54.7608235,184.913574 55.5868335,184.714192 56.5077872,184.714192 C57.2040408,184.714192 57.8417459,184.824959 58.4256495,185.046495 C59.0079707,185.26803 59.498513,185.597168 59.8988589,186.030744 L59.2991313,186.644713 C58.5775594,185.931053 57.6597705,185.575014 56.547347,185.575014 C55.8083687,185.575014 55.1405982,185.738001 54.5456178,186.063974 C53.949055,186.389948 53.4822486,186.842513 53.1436162,187.420087 C52.8034013,187.999243 52.6340851,188.64486 52.6340851,189.356938 C52.6340851,190.070598 52.8034013,190.71305 53.1436162,191.287459 C53.4822486,191.861868 53.9474727,192.312851 54.5377059,192.643571 C55.1295214,192.974292 55.7941272,193.138861 56.5346879,193.138861 C57.4730479,193.138861 58.2689924,192.904666 58.920939,192.434695 L58.920939,189.356938 Z" id="Fill-28"></path>
                    <polygon id="Fill-29" points="64.6594931 184.792204 65.6247539 184.792204 65.6247539 193.087117 70.7374709 193.087117 70.7374709 193.922621 64.6594931 193.922621"></polygon>
                    <polygon id="Fill-30" points="74.4277735 193.922304 75.3930342 193.922304 75.3930342 184.791887 74.4277735 184.791887"></polygon>
                    <polygon id="Fill-31" points="88.082415 184.792204 88.082415 193.922621 87.2864705 193.922621 81.4173688 186.513849 81.4173688 193.922621 80.4521081 193.922621 80.4521081 184.792204 81.2480526 184.792204 87.1298135 192.200976 87.1298135 184.792204"></polygon>
                    <polygon id="Fill-32" points="99.598925 193.087275 99.598925 193.921197 93.1427548 193.921197 93.1427548 184.792362 99.402708 184.792362 99.402708 185.627866 94.1080156 185.627866 94.1080156 188.87494 98.8298812 188.87494 98.8298812 189.696203 94.1080156 189.696203 94.1080156 193.087275"></polygon>
                    <path d="M115.887937,189.356938 L116.813638,189.356938 L116.813638,192.839788 C116.387974,193.213233 115.88319,193.499647 115.300869,193.700611 C114.718547,193.899993 114.106161,193.999684 113.462126,193.999684 C112.549084,193.999684 111.727822,193.800302 110.996755,193.399956 C110.267271,192.99961 109.692862,192.445772 109.27511,191.736859 C108.85894,191.029529 108.650064,190.235167 108.650064,189.356938 C108.650064,188.478709 108.85894,187.685929 109.27511,186.977016 C109.692862,186.268103 110.267271,185.714265 110.996755,185.313919 C111.727822,184.913574 112.553832,184.714192 113.474785,184.714192 C114.171039,184.714192 114.808744,184.824959 115.392648,185.046495 C115.974969,185.26803 116.465511,185.597168 116.865857,186.030744 L116.266129,186.644713 C115.544557,185.931053 114.626769,185.575014 113.514345,185.575014 C112.775367,185.575014 112.107596,185.738001 111.512616,186.063974 C110.916053,186.389948 110.449247,186.842513 110.110614,187.420087 C109.770399,187.999243 109.601083,188.64486 109.601083,189.356938 C109.601083,190.070598 109.770399,190.71305 110.110614,191.287459 C110.449247,191.861868 110.914471,192.312851 111.504704,192.643571 C112.09652,192.974292 112.761125,193.138861 113.501686,193.138861 C114.440046,193.138861 115.235991,192.904666 115.887937,192.434695 L115.887937,189.356938 Z" id="Fill-33"></path>
                    <path d="M127.572814,192.650059 C128.155135,192.324086 128.612447,191.871521 128.943168,191.293947 C129.272306,190.716373 129.438457,190.070756 129.438457,189.357096 C129.438457,188.645018 129.272306,187.999401 128.943168,187.420245 C128.612447,186.842671 128.155135,186.390106 127.572814,186.064133 C126.990493,185.738159 126.338546,185.575173 125.616974,185.575173 C124.895402,185.575173 124.241873,185.738159 123.653222,186.064133 C123.066154,186.390106 122.605677,186.842671 122.271792,187.420245 C121.936324,187.999401 121.770173,188.645018 121.770173,189.357096 C121.770173,190.070756 121.936324,190.716373 122.271792,191.293947 C122.605677,191.871521 123.066154,192.324086 123.653222,192.650059 C124.241873,192.976032 124.895402,193.139019 125.616974,193.139019 C126.338546,193.139019 126.990493,192.976032 127.572814,192.650059 M123.157933,193.393785 C122.423702,192.988692 121.849292,192.434853 121.43787,191.730688 C121.023282,191.026522 120.817571,190.235325 120.817571,189.357096 C120.817571,188.478867 121.023282,187.68767 121.43787,186.983504 C121.849292,186.279338 122.423702,185.7255 123.157933,185.320407 C123.892164,184.916897 124.711844,184.71435 125.616974,184.71435 C126.520521,184.71435 127.337037,184.913732 128.061774,185.314078 C128.788093,185.714423 129.359337,186.268262 129.77709,186.977174 C130.194842,187.686087 130.403718,188.478867 130.403718,189.357096 C130.403718,190.235325 130.194842,191.029687 129.77709,191.737017 C129.359337,192.44593 128.788093,192.999768 128.061774,193.400114 C127.337037,193.80046 126.520521,193.999842 125.616974,193.999842 C124.711844,193.999842 123.892164,193.798878 123.157933,193.393785" id="Fill-34"></path>
                    <polygon id="Fill-35" points="141.110516 193.087275 141.110516 193.921197 134.654346 193.921197 134.654346 184.792362 140.914299 184.792362 140.914299 185.627866 135.619607 185.627866 135.619607 188.87494 140.341473 188.87494 140.341473 189.696203 135.619607 189.696203 135.619607 193.087275"></polygon>
                    <path d="M146.033821,193.67371 C145.41194,193.456922 144.930892,193.170509 144.592259,192.812888 L144.970452,192.069162 C145.301172,192.399883 145.739495,192.667307 146.288586,192.871436 C146.836095,193.077147 147.40101,193.178421 147.983331,193.178421 C148.801429,193.178421 149.413816,193.028093 149.822074,192.729021 C150.230331,192.428366 150.43446,192.039097 150.43446,191.561213 C150.43446,191.19568 150.323693,190.90452 150.102157,190.687732 C149.880622,190.470943 149.60845,190.30321 149.287224,190.18453 C148.965998,190.067433 148.51818,189.939259 147.943771,189.800008 C147.257012,189.625945 146.709503,189.459793 146.301246,189.298389 C145.891405,189.136985 145.541696,188.891714 145.250535,188.562576 C144.959375,188.231855 144.813795,187.784037 144.813795,187.21754 C144.813795,186.757063 144.935639,186.337729 145.179328,185.959536 C145.423017,185.581344 145.796462,185.279107 146.301246,185.052824 C146.804447,184.826542 147.431075,184.714192 148.177966,184.714192 C148.700156,184.714192 149.211269,184.7854 149.711306,184.929397 C150.211343,185.071813 150.643336,185.269612 151.00887,185.522795 L150.682896,186.291839 C150.299957,186.040239 149.891699,185.851934 149.45654,185.725342 C149.022964,185.59875 148.595718,185.535455 148.177966,185.535455 C147.378856,185.535455 146.777546,185.690529 146.372453,185.999096 C145.96736,186.307663 145.766396,186.704844 145.766396,187.192222 C145.766396,187.557755 145.877164,187.850498 146.098699,188.072033 C146.320234,188.295151 146.598736,188.464467 146.932621,188.581564 C147.268089,188.698661 147.717489,188.826835 148.282404,188.966086 C148.953339,189.130655 149.494518,189.293642 149.907523,189.455046 C150.318946,189.61645 150.670237,189.858557 150.956651,190.18453 C151.243064,190.510503 151.387062,190.951991 151.387062,191.508994 C151.387062,191.969471 151.263635,192.388806 151.015199,192.766998 C150.768346,193.146773 150.386988,193.445845 149.874293,193.667381 C149.361597,193.888916 148.731804,193.999684 147.983331,193.999684 C147.304484,193.999684 146.655702,193.892081 146.033821,193.67371" id="Fill-36"></path>
                    <polygon id="Fill-37" points="168.707321 184.792204 168.707321 193.922621 167.754719 193.922621 167.754719 189.708704 162.042274 189.708704 162.042274 193.922621 161.077014 193.922621 161.077014 184.792204 162.042274 184.792204 162.042274 188.862123 167.754719 188.862123 167.754719 184.792204"></polygon>
                    <polygon id="Fill-38" points="180.223039 193.087275 180.223039 193.921197 173.766869 193.921197 173.766869 184.792362 180.026822 184.792362 180.026822 185.627866 174.73213 185.627866 174.73213 188.87494 179.453996 188.87494 179.453996 189.696203 174.73213 189.696203 174.73213 193.087275"></polygon>
                    <path d="M190.04338,189.605057 C190.521264,189.204711 190.760205,188.644544 190.760205,187.922972 C190.760205,187.183993 190.521264,186.615914 190.04338,186.220315 C189.565497,185.824716 188.873991,185.626917 187.968861,185.626917 L185.54305,185.626917 L185.54305,190.204785 L187.968861,190.204785 C188.873991,190.204785 189.565497,190.005403 190.04338,189.605057 L190.04338,189.605057 Z M190.812424,193.92183 L188.725246,190.98807 C188.491051,191.013388 188.247363,191.026048 187.995762,191.026048 L185.54305,191.026048 L185.54305,193.92183 L184.577789,193.92183 L184.577789,184.791413 L187.995762,184.791413 C189.160404,184.791413 190.073446,185.071497 190.734887,185.626917 C191.394745,186.18392 191.725466,186.948217 191.725466,187.922972 C191.725466,188.635049 191.545073,189.237942 191.184287,189.728484 C190.823501,190.220609 190.30764,190.575065 189.638287,190.791853 L191.869464,193.92183 L190.812424,193.92183 Z" id="Fill-39"></path>
                    <polygon id="Fill-40" points="202.550311 193.087275 202.550311 193.921197 196.094141 193.921197 196.094141 184.792362 202.354094 184.792362 202.354094 185.627866 197.059402 185.627866 197.059402 188.87494 201.781267 188.87494 201.781267 189.696203 197.059402 189.696203 197.059402 193.087275"></polygon>
                </g>
                <g id="Group-7" transform="translate(0.000000, 150.652989)">
                    <mask id="mask-2" fill="white">
                        <use xlink:href="#path-1"></use>
                    </mask>
                    <g id="Clip-6"></g>
                    <path d="M5.24706237,18.9317694 C3.60770153,18.0756939 2.32437948,16.8794036 1.39393144,15.341316 C0.465065784,13.8048108 -0.000158239464,12.0594295 -0.000158239464,10.1067545 C-0.000158239464,8.15566195 0.465065784,6.41186307 1.39393144,4.87377548 C2.32437948,3.33727029 3.60770153,2.13939755 5.24706237,1.28332205 C6.88642322,0.427246552 8.72674818,-1.12435901e-14 10.771202,-1.12435901e-14 C12.6495045,-1.12435901e-14 14.323678,0.330720479 15.7968874,0.993743832 C17.2700968,1.65676718 18.4853759,2.61411594 19.4427247,3.8657901 L15.3284986,7.53852805 C14.1306259,6.03050596 12.7222946,5.27412132 11.1019225,5.27412132 C9.73948075,5.27412132 8.64446366,5.71244464 7.81528887,6.58592648 C6.98769647,7.46099071 6.57310908,8.63512753 6.57310908,10.1067545 C6.57310908,11.5799639 6.98769647,12.7541008 7.81528887,13.629165 C8.64446366,14.5042292 9.73948075,14.9409702 11.1019225,14.9409702 C12.7222946,14.9409702 14.1306259,14.1861679 15.3284986,12.6765634 L19.4427247,16.3493014 C18.4853759,17.6009755 17.2700968,18.5583243 15.7968874,19.2213476 C14.323678,19.884371 12.6495045,20.2166739 10.771202,20.2166739 C8.72674818,20.2166739 6.88642322,19.7878449 5.24706237,18.9317694" id="Fill-5" fill="#000000" mask="url(#mask-2)"></path>
                </g>
            </g>
        </g>
    </g>
</svg>