<?xml version="1.0" encoding="UTF-8"?>
<svg width="353px" height="353px" viewBox="0 0 353 353" version="1.1" xmlns="http://www.w3.org/2000/svg" xmlns:xlink="http://www.w3.org/1999/xlink">
    <title>D5BA2819-0183-4039-A90E-4BF8754E6040@2x</title>
    <defs>
        <path d="M67.3444255,47.2978631 L254.961707,47.7351692 C265.97098,47.7608301 274.889375,56.6792255 274.915036,67.6884982 L275.352342,255.30578 C275.378088,266.351445 266.444678,275.326597 255.399013,275.352342 C255.367935,275.352415 255.336858,275.352415 255.30578,275.352342 L67.6884982,274.915036 C56.6792255,274.889375 47.7608301,265.97098 47.7351692,254.961707 L47.2978631,67.3444255 C47.2721174,56.2987605 56.2055271,47.3236088 67.2511921,47.2978631 C67.2822698,47.2977907 67.3133477,47.2977907 67.3444255,47.2978631 Z" id="path-1"></path>
    </defs>
    <g id="Page-1" stroke="none" stroke-width="1" fill="none" fill-rule="evenodd">
        <g id="Quem-Somos" transform="translate(-973.000000, -2930.000000)">
            <g id="figura_03" transform="translate(973.659524, 2930.010714)">
                <rect id="Rectangle-Copy-2" fill="#C6171E" transform="translate(176.000000, 176.000000) rotate(-315.000000) translate(-176.000000, -176.000000) " x="51.5492065" y="51.5492065" width="248.901587" height="248.901587" rx="20"></rect>
                <g id="Group-3" transform="translate(14.674897, 14.674897)">
                    <clipPath id="mask-2" fill="white">
                        <use xlink:href="#path-1"></use>
                    </clipPath>
                    <use id="Mask" fill="#9B0C12" transform="translate(161.325103, 161.325103) rotate(-315.000000) translate(-161.325103, -161.325103) " xlink:href="#path-1"></use>
                    <g opacity="0.383493823" mask="url(#mask-2)">
                        <g transform="translate(-27.403417, 12.804874)">
                            <g id="Group-2" transform="translate(22.338741, 123.852773)">
                                <path d="M17.3661119,-1.03422758e-13 C18.3606268,1.56964194 19.3509356,3.10829484 20.3169423,4.66150321 C23.1845849,9.27041894 25.9349234,13.9478862 28.4427086,18.7657432 C30.4775384,22.6755274 32.4048784,26.6360209 33.7470997,30.8519392 C34.3621286,32.7821809 34.7776003,34.7424726 34.6467431,36.7957314 C34.4196123,40.3491416 33.253581,43.548995 31.0949041,46.3652416 C28.5604801,49.6726176 25.2591393,51.8606317 21.1969572,52.7424109 C15.4126005,53.9974671 10.2241116,52.6616515 5.76094554,48.7434158 C2.97836013,46.3004463 1.23141619,43.2052983 0.392060569,39.5866234 C-0.293537816,36.6313956 -0.0495825624,33.7447194 0.886981285,30.879172 C1.90486355,27.7628951 3.20922967,24.771044 4.6542673,21.8378842 C8.10469189,14.8348302 12.0906964,8.14119703 16.2898113,1.57152007 C16.6066727,1.07569539 16.9305443,0.584566024 17.2520792,0.0920280649 C17.2651649,0.0718382343 17.2904017,0.0600999607 17.3661119,-1.03422758e-13" id="Fill-1" fill="#66080C"></path>
                                <path d="M66.2469637,-1.03422758e-13 C67.2414786,1.56964194 68.2317874,3.10829484 69.1977941,4.66150321 C72.0654367,9.27041894 74.8157751,13.9478862 77.3235604,18.7657432 C79.3583902,22.6755274 81.2857302,26.6360209 82.6279514,30.8519392 C83.2429804,32.7821809 83.6584521,34.7424726 83.5275948,36.7957314 C83.3004641,40.3491416 82.1344327,43.548995 79.9757559,46.3652416 C77.4413319,49.6726176 74.139991,51.8606317 70.0778089,52.7424109 C64.2934523,53.9974671 59.1049633,52.6616515 54.6417973,48.7434158 C51.8592119,46.3004463 50.112268,43.2052983 49.2729123,39.5866234 C48.5873139,36.6313956 48.8312692,33.7447194 49.767833,30.879172 C50.7857153,27.7628951 52.0900814,24.771044 53.5351191,21.8378842 C56.9855437,14.8348302 60.9715482,8.14119703 65.170663,1.57152007 C65.4875244,1.07569539 65.8113961,0.584566024 66.132931,0.0920280649 C66.1460167,0.0718382343 66.1712534,0.0600999607 66.2469637,-1.03422758e-13" id="Fill-1-Copy" fill="#66080C"></path>
                                <path d="M115.127815,-1.03422758e-13 C116.12233,1.56964194 117.112639,3.10829484 118.078646,4.66150321 C120.946288,9.27041894 123.696627,13.9478862 126.204412,18.7657432 C128.239242,22.6755274 130.166582,26.6360209 131.508803,30.8519392 C132.123832,32.7821809 132.539304,34.7424726 132.408447,36.7957314 C132.181316,40.3491416 131.015285,43.548995 128.856608,46.3652416 C126.322184,49.6726176 123.020843,51.8606317 118.958661,52.7424109 C113.174304,53.9974671 107.985815,52.6616515 103.522649,48.7434158 C100.740064,46.3004463 98.9931197,43.2052983 98.1537641,39.5866234 C97.4681657,36.6313956 97.712121,33.7447194 98.6486848,30.879172 C99.6665671,27.7628951 100.970933,24.771044 102.415971,21.8378842 C105.866395,14.8348302 109.8524,8.14119703 114.051515,1.57152007 C114.368376,1.07569539 114.692248,0.584566024 115.013783,0.0920280649 C115.026868,0.0718382343 115.052105,0.0600999607 115.127815,-1.03422758e-13" id="Fill-1-Copy-2" fill="#66080C"></path>
                                <path d="M164.008667,-1.03422758e-13 C165.003182,1.56964194 165.993491,3.10829484 166.959498,4.66150321 C169.82714,9.27041894 172.577479,13.9478862 175.085264,18.7657432 C177.120094,22.6755274 179.047434,26.6360209 180.389655,30.8519392 C181.004684,32.7821809 181.420156,34.7424726 181.289298,36.7957314 C181.062168,40.3491416 179.896136,43.548995 177.737459,46.3652416 C175.203035,49.6726176 171.901695,51.8606317 167.839512,52.7424109 C162.055156,53.9974671 156.866667,52.6616515 152.403501,48.7434158 C149.620915,46.3004463 147.873971,43.2052983 147.034616,39.5866234 C146.349017,36.6313956 146.592973,33.7447194 147.529537,30.879172 C148.547419,27.7628951 149.851785,24.771044 151.296823,21.8378842 C154.747247,14.8348302 158.733252,8.14119703 162.932367,1.57152007 C163.249228,1.07569539 163.5731,0.584566024 163.894634,0.0920280649 C163.90772,0.0718382343 163.932957,0.0600999607 164.008667,-1.03422758e-13" id="Fill-1-Copy-3" fill="#66080C"></path>
                                <path d="M212.889519,-1.03422758e-13 C213.884034,1.56964194 214.874343,3.10829484 215.840349,4.66150321 C218.707992,9.27041894 221.45833,13.9478862 223.966116,18.7657432 C226.000945,22.6755274 227.928285,26.6360209 229.270507,30.8519392 C229.885536,32.7821809 230.301007,34.7424726 230.17015,36.7957314 C229.943019,40.3491416 228.776988,43.548995 226.618311,46.3652416 C224.083887,49.6726176 220.782546,51.8606317 216.720364,52.7424109 C210.936008,53.9974671 205.747519,52.6616515 201.284353,48.7434158 C198.501767,46.3004463 196.754823,43.2052983 195.915468,39.5866234 C195.229869,36.6313956 195.473824,33.7447194 196.410388,30.879172 C197.428271,27.7628951 198.732637,24.771044 200.177674,21.8378842 C203.628099,14.8348302 207.614103,8.14119703 211.813218,1.57152007 C212.13008,1.07569539 212.453951,0.584566024 212.775486,0.0920280649 C212.788572,0.0718382343 212.813809,0.0600999607 212.889519,-1.03422758e-13" id="Fill-1-Copy-4" fill="#66080C"></path>
                                <path d="M261.770371,-1.03422758e-13 C262.764886,1.56964194 263.755194,3.10829484 264.721201,4.66150321 C267.588844,9.27041894 270.339182,13.9478862 272.846967,18.7657432 C274.881797,22.6755274 276.809137,26.6360209 278.151358,30.8519392 C278.766387,32.7821809 279.181859,34.7424726 279.051002,36.7957314 C278.823871,40.3491416 277.65784,43.548995 275.499163,46.3652416 C272.964739,49.6726176 269.663398,51.8606317 265.601216,52.7424109 C259.816859,53.9974671 254.62837,52.6616515 250.165204,48.7434158 C247.382619,46.3004463 245.635675,43.2052983 244.796319,39.5866234 C244.110721,36.6313956 244.354676,33.7447194 245.29124,30.879172 C246.309122,27.7628951 247.613488,24.771044 249.058526,21.8378842 C252.508951,14.8348302 256.494955,8.14119703 260.69407,1.57152007 C261.010932,1.07569539 261.334803,0.584566024 261.656338,0.0920280649 C261.669424,0.0718382343 261.694661,0.0600999607 261.770371,-1.03422758e-13" id="Fill-1-Copy-5" fill="#66080C"></path>
                                <path d="M309.878779,-1.03422758e-13 C310.873294,1.56964194 311.863603,3.10829484 312.829609,4.66150321 C315.697252,9.27041894 318.447591,13.9478862 320.955376,18.7657432 C322.990206,22.6755274 324.917546,26.6360209 326.259767,30.8519392 C326.874796,32.7821809 327.290267,34.7424726 327.15941,36.7957314 C326.932279,40.3491416 325.766248,43.548995 323.607571,46.3652416 C321.073147,49.6726176 317.771806,51.8606317 313.709624,52.7424109 C307.925268,53.9974671 302.736779,52.6616515 298.273613,48.7434158 C295.491027,46.3004463 293.744083,43.2052983 292.904728,39.5866234 C292.219129,36.6313956 292.463085,33.7447194 293.399648,30.879172 C294.417531,27.7628951 295.721897,24.771044 297.166934,21.8378842 C300.617359,14.8348302 304.603364,8.14119703 308.802478,1.57152007 C309.11934,1.07569539 309.443211,0.584566024 309.764746,0.0920280649 C309.777832,0.0718382343 309.803069,0.0600999607 309.878779,-1.03422758e-13" id="Fill-1-Copy-6" fill="#66080C"></path>
                            </g>
                            <g id="Group-2-Copy-3" transform="translate(22.338741, 247.705547)">
                                <path d="M17.3661119,-1.03422758e-13 C18.3606268,1.56964194 19.3509356,3.10829484 20.3169423,4.66150321 C23.1845849,9.27041894 25.9349234,13.9478862 28.4427086,18.7657432 C30.4775384,22.6755274 32.4048784,26.6360209 33.7470997,30.8519392 C34.3621286,32.7821809 34.7776003,34.7424726 34.6467431,36.7957314 C34.4196123,40.3491416 33.253581,43.548995 31.0949041,46.3652416 C28.5604801,49.6726176 25.2591393,51.8606317 21.1969572,52.7424109 C15.4126005,53.9974671 10.2241116,52.6616515 5.76094554,48.7434158 C2.97836013,46.3004463 1.23141619,43.2052983 0.392060569,39.5866234 C-0.293537816,36.6313956 -0.0495825624,33.7447194 0.886981285,30.879172 C1.90486355,27.7628951 3.20922967,24.771044 4.6542673,21.8378842 C8.10469189,14.8348302 12.0906964,8.14119703 16.2898113,1.57152007 C16.6066727,1.07569539 16.9305443,0.584566024 17.2520792,0.0920280649 C17.2651649,0.0718382343 17.2904017,0.0600999607 17.3661119,-1.03422758e-13" id="Fill-1" fill="#66080C"></path>
                                <path d="M66.2469637,-1.03422758e-13 C67.2414786,1.56964194 68.2317874,3.10829484 69.1977941,4.66150321 C72.0654367,9.27041894 74.8157751,13.9478862 77.3235604,18.7657432 C79.3583902,22.6755274 81.2857302,26.6360209 82.6279514,30.8519392 C83.2429804,32.7821809 83.6584521,34.7424726 83.5275948,36.7957314 C83.3004641,40.3491416 82.1344327,43.548995 79.9757559,46.3652416 C77.4413319,49.6726176 74.139991,51.8606317 70.0778089,52.7424109 C64.2934523,53.9974671 59.1049633,52.6616515 54.6417973,48.7434158 C51.8592119,46.3004463 50.112268,43.2052983 49.2729123,39.5866234 C48.5873139,36.6313956 48.8312692,33.7447194 49.767833,30.879172 C50.7857153,27.7628951 52.0900814,24.771044 53.5351191,21.8378842 C56.9855437,14.8348302 60.9715482,8.14119703 65.170663,1.57152007 C65.4875244,1.07569539 65.8113961,0.584566024 66.132931,0.0920280649 C66.1460167,0.0718382343 66.1712534,0.0600999607 66.2469637,-1.03422758e-13" id="Fill-1-Copy" fill="#66080C"></path>
                                <path d="M115.127815,-1.03422758e-13 C116.12233,1.56964194 117.112639,3.10829484 118.078646,4.66150321 C120.946288,9.27041894 123.696627,13.9478862 126.204412,18.7657432 C128.239242,22.6755274 130.166582,26.6360209 131.508803,30.8519392 C132.123832,32.7821809 132.539304,34.7424726 132.408447,36.7957314 C132.181316,40.3491416 131.015285,43.548995 128.856608,46.3652416 C126.322184,49.6726176 123.020843,51.8606317 118.958661,52.7424109 C113.174304,53.9974671 107.985815,52.6616515 103.522649,48.7434158 C100.740064,46.3004463 98.9931197,43.2052983 98.1537641,39.5866234 C97.4681657,36.6313956 97.712121,33.7447194 98.6486848,30.879172 C99.6665671,27.7628951 100.970933,24.771044 102.415971,21.8378842 C105.866395,14.8348302 109.8524,8.14119703 114.051515,1.57152007 C114.368376,1.07569539 114.692248,0.584566024 115.013783,0.0920280649 C115.026868,0.0718382343 115.052105,0.0600999607 115.127815,-1.03422758e-13" id="Fill-1-Copy-2" fill="#66080C"></path>
                                <path d="M164.008667,-1.03422758e-13 C165.003182,1.56964194 165.993491,3.10829484 166.959498,4.66150321 C169.82714,9.27041894 172.577479,13.9478862 175.085264,18.7657432 C177.120094,22.6755274 179.047434,26.6360209 180.389655,30.8519392 C181.004684,32.7821809 181.420156,34.7424726 181.289298,36.7957314 C181.062168,40.3491416 179.896136,43.548995 177.737459,46.3652416 C175.203035,49.6726176 171.901695,51.8606317 167.839512,52.7424109 C162.055156,53.9974671 156.866667,52.6616515 152.403501,48.7434158 C149.620915,46.3004463 147.873971,43.2052983 147.034616,39.5866234 C146.349017,36.6313956 146.592973,33.7447194 147.529537,30.879172 C148.547419,27.7628951 149.851785,24.771044 151.296823,21.8378842 C154.747247,14.8348302 158.733252,8.14119703 162.932367,1.57152007 C163.249228,1.07569539 163.5731,0.584566024 163.894634,0.0920280649 C163.90772,0.0718382343 163.932957,0.0600999607 164.008667,-1.03422758e-13" id="Fill-1-Copy-3" fill="#66080C"></path>
                                <path d="M212.889519,-1.03422758e-13 C213.884034,1.56964194 214.874343,3.10829484 215.840349,4.66150321 C218.707992,9.27041894 221.45833,13.9478862 223.966116,18.7657432 C226.000945,22.6755274 227.928285,26.6360209 229.270507,30.8519392 C229.885536,32.7821809 230.301007,34.7424726 230.17015,36.7957314 C229.943019,40.3491416 228.776988,43.548995 226.618311,46.3652416 C224.083887,49.6726176 220.782546,51.8606317 216.720364,52.7424109 C210.936008,53.9974671 205.747519,52.6616515 201.284353,48.7434158 C198.501767,46.3004463 196.754823,43.2052983 195.915468,39.5866234 C195.229869,36.6313956 195.473824,33.7447194 196.410388,30.879172 C197.428271,27.7628951 198.732637,24.771044 200.177674,21.8378842 C203.628099,14.8348302 207.614103,8.14119703 211.813218,1.57152007 C212.13008,1.07569539 212.453951,0.584566024 212.775486,0.0920280649 C212.788572,0.0718382343 212.813809,0.0600999607 212.889519,-1.03422758e-13" id="Fill-1-Copy-4" fill="#66080C"></path>
                                <path d="M261.770371,-1.03422758e-13 C262.764886,1.56964194 263.755194,3.10829484 264.721201,4.66150321 C267.588844,9.27041894 270.339182,13.9478862 272.846967,18.7657432 C274.881797,22.6755274 276.809137,26.6360209 278.151358,30.8519392 C278.766387,32.7821809 279.181859,34.7424726 279.051002,36.7957314 C278.823871,40.3491416 277.65784,43.548995 275.499163,46.3652416 C272.964739,49.6726176 269.663398,51.8606317 265.601216,52.7424109 C259.816859,53.9974671 254.62837,52.6616515 250.165204,48.7434158 C247.382619,46.3004463 245.635675,43.2052983 244.796319,39.5866234 C244.110721,36.6313956 244.354676,33.7447194 245.29124,30.879172 C246.309122,27.7628951 247.613488,24.771044 249.058526,21.8378842 C252.508951,14.8348302 256.494955,8.14119703 260.69407,1.57152007 C261.010932,1.07569539 261.334803,0.584566024 261.656338,0.0920280649 C261.669424,0.0718382343 261.694661,0.0600999607 261.770371,-1.03422758e-13" id="Fill-1-Copy-5" fill="#66080C"></path>
                                <path d="M309.878779,-1.03422758e-13 C310.873294,1.56964194 311.863603,3.10829484 312.829609,4.66150321 C315.697252,9.27041894 318.447591,13.9478862 320.955376,18.7657432 C322.990206,22.6755274 324.917546,26.6360209 326.259767,30.8519392 C326.874796,32.7821809 327.290267,34.7424726 327.15941,36.7957314 C326.932279,40.3491416 325.766248,43.548995 323.607571,46.3652416 C321.073147,49.6726176 317.771806,51.8606317 313.709624,52.7424109 C307.925268,53.9974671 302.736779,52.6616515 298.273613,48.7434158 C295.491027,46.3004463 293.744083,43.2052983 292.904728,39.5866234 C292.219129,36.6313956 292.463085,33.7447194 293.399648,30.879172 C294.417531,27.7628951 295.721897,24.771044 297.166934,21.8378842 C300.617359,14.8348302 304.603364,8.14119703 308.802478,1.57152007 C309.11934,1.07569539 309.443211,0.584566024 309.764746,0.0920280649 C309.777832,0.0718382343 309.803069,0.0600999607 309.878779,-1.03422758e-13" id="Fill-1-Copy-6" fill="#66080C"></path>
                            </g>
                            <g id="Group-2-Copy-4" transform="translate(22.338741, -0.000000)">
                                <path d="M17.3661119,-1.03422758e-13 C18.3606268,1.56964194 19.3509356,3.10829484 20.3169423,4.66150321 C23.1845849,9.27041894 25.9349234,13.9478862 28.4427086,18.7657432 C30.4775384,22.6755274 32.4048784,26.6360209 33.7470997,30.8519392 C34.3621286,32.7821809 34.7776003,34.7424726 34.6467431,36.7957314 C34.4196123,40.3491416 33.253581,43.548995 31.0949041,46.3652416 C28.5604801,49.6726176 25.2591393,51.8606317 21.1969572,52.7424109 C15.4126005,53.9974671 10.2241116,52.6616515 5.76094554,48.7434158 C2.97836013,46.3004463 1.23141619,43.2052983 0.392060569,39.5866234 C-0.293537816,36.6313956 -0.0495825624,33.7447194 0.886981285,30.879172 C1.90486355,27.7628951 3.20922967,24.771044 4.6542673,21.8378842 C8.10469189,14.8348302 12.0906964,8.14119703 16.2898113,1.57152007 C16.6066727,1.07569539 16.9305443,0.584566024 17.2520792,0.0920280649 C17.2651649,0.0718382343 17.2904017,0.0600999607 17.3661119,-1.03422758e-13" id="Fill-1" fill="#66080C"></path>
                                <path d="M66.2469637,-1.03422758e-13 C67.2414786,1.56964194 68.2317874,3.10829484 69.1977941,4.66150321 C72.0654367,9.27041894 74.8157751,13.9478862 77.3235604,18.7657432 C79.3583902,22.6755274 81.2857302,26.6360209 82.6279514,30.8519392 C83.2429804,32.7821809 83.6584521,34.7424726 83.5275948,36.7957314 C83.3004641,40.3491416 82.1344327,43.548995 79.9757559,46.3652416 C77.4413319,49.6726176 74.139991,51.8606317 70.0778089,52.7424109 C64.2934523,53.9974671 59.1049633,52.6616515 54.6417973,48.7434158 C51.8592119,46.3004463 50.112268,43.2052983 49.2729123,39.5866234 C48.5873139,36.6313956 48.8312692,33.7447194 49.767833,30.879172 C50.7857153,27.7628951 52.0900814,24.771044 53.5351191,21.8378842 C56.9855437,14.8348302 60.9715482,8.14119703 65.170663,1.57152007 C65.4875244,1.07569539 65.8113961,0.584566024 66.132931,0.0920280649 C66.1460167,0.0718382343 66.1712534,0.0600999607 66.2469637,-1.03422758e-13" id="Fill-1-Copy" fill="#66080C"></path>
                                <path d="M115.127815,-1.03422758e-13 C116.12233,1.56964194 117.112639,3.10829484 118.078646,4.66150321 C120.946288,9.27041894 123.696627,13.9478862 126.204412,18.7657432 C128.239242,22.6755274 130.166582,26.6360209 131.508803,30.8519392 C132.123832,32.7821809 132.539304,34.7424726 132.408447,36.7957314 C132.181316,40.3491416 131.015285,43.548995 128.856608,46.3652416 C126.322184,49.6726176 123.020843,51.8606317 118.958661,52.7424109 C113.174304,53.9974671 107.985815,52.6616515 103.522649,48.7434158 C100.740064,46.3004463 98.9931197,43.2052983 98.1537641,39.5866234 C97.4681657,36.6313956 97.712121,33.7447194 98.6486848,30.879172 C99.6665671,27.7628951 100.970933,24.771044 102.415971,21.8378842 C105.866395,14.8348302 109.8524,8.14119703 114.051515,1.57152007 C114.368376,1.07569539 114.692248,0.584566024 115.013783,0.0920280649 C115.026868,0.0718382343 115.052105,0.0600999607 115.127815,-1.03422758e-13" id="Fill-1-Copy-2" fill="#66080C"></path>
                                <path d="M164.008667,-1.03422758e-13 C165.003182,1.56964194 165.993491,3.10829484 166.959498,4.66150321 C169.82714,9.27041894 172.577479,13.9478862 175.085264,18.7657432 C177.120094,22.6755274 179.047434,26.6360209 180.389655,30.8519392 C181.004684,32.7821809 181.420156,34.7424726 181.289298,36.7957314 C181.062168,40.3491416 179.896136,43.548995 177.737459,46.3652416 C175.203035,49.6726176 171.901695,51.8606317 167.839512,52.7424109 C162.055156,53.9974671 156.866667,52.6616515 152.403501,48.7434158 C149.620915,46.3004463 147.873971,43.2052983 147.034616,39.5866234 C146.349017,36.6313956 146.592973,33.7447194 147.529537,30.879172 C148.547419,27.7628951 149.851785,24.771044 151.296823,21.8378842 C154.747247,14.8348302 158.733252,8.14119703 162.932367,1.57152007 C163.249228,1.07569539 163.5731,0.584566024 163.894634,0.0920280649 C163.90772,0.0718382343 163.932957,0.0600999607 164.008667,-1.03422758e-13" id="Fill-1-Copy-3" fill="#66080C"></path>
                                <path d="M212.889519,-1.03422758e-13 C213.884034,1.56964194 214.874343,3.10829484 215.840349,4.66150321 C218.707992,9.27041894 221.45833,13.9478862 223.966116,18.7657432 C226.000945,22.6755274 227.928285,26.6360209 229.270507,30.8519392 C229.885536,32.7821809 230.301007,34.7424726 230.17015,36.7957314 C229.943019,40.3491416 228.776988,43.548995 226.618311,46.3652416 C224.083887,49.6726176 220.782546,51.8606317 216.720364,52.7424109 C210.936008,53.9974671 205.747519,52.6616515 201.284353,48.7434158 C198.501767,46.3004463 196.754823,43.2052983 195.915468,39.5866234 C195.229869,36.6313956 195.473824,33.7447194 196.410388,30.879172 C197.428271,27.7628951 198.732637,24.771044 200.177674,21.8378842 C203.628099,14.8348302 207.614103,8.14119703 211.813218,1.57152007 C212.13008,1.07569539 212.453951,0.584566024 212.775486,0.0920280649 C212.788572,0.0718382343 212.813809,0.0600999607 212.889519,-1.03422758e-13" id="Fill-1-Copy-4" fill="#66080C"></path>
                                <path d="M261.770371,-1.03422758e-13 C262.764886,1.56964194 263.755194,3.10829484 264.721201,4.66150321 C267.588844,9.27041894 270.339182,13.9478862 272.846967,18.7657432 C274.881797,22.6755274 276.809137,26.6360209 278.151358,30.8519392 C278.766387,32.7821809 279.181859,34.7424726 279.051002,36.7957314 C278.823871,40.3491416 277.65784,43.548995 275.499163,46.3652416 C272.964739,49.6726176 269.663398,51.8606317 265.601216,52.7424109 C259.816859,53.9974671 254.62837,52.6616515 250.165204,48.7434158 C247.382619,46.3004463 245.635675,43.2052983 244.796319,39.5866234 C244.110721,36.6313956 244.354676,33.7447194 245.29124,30.879172 C246.309122,27.7628951 247.613488,24.771044 249.058526,21.8378842 C252.508951,14.8348302 256.494955,8.14119703 260.69407,1.57152007 C261.010932,1.07569539 261.334803,0.584566024 261.656338,0.0920280649 C261.669424,0.0718382343 261.694661,0.0600999607 261.770371,-1.03422758e-13" id="Fill-1-Copy-5" fill="#66080C"></path>
                                <path d="M309.878779,-1.03422758e-13 C310.873294,1.56964194 311.863603,3.10829484 312.829609,4.66150321 C315.697252,9.27041894 318.447591,13.9478862 320.955376,18.7657432 C322.990206,22.6755274 324.917546,26.6360209 326.259767,30.8519392 C326.874796,32.7821809 327.290267,34.7424726 327.15941,36.7957314 C326.932279,40.3491416 325.766248,43.548995 323.607571,46.3652416 C321.073147,49.6726176 317.771806,51.8606317 313.709624,52.7424109 C307.925268,53.9974671 302.736779,52.6616515 298.273613,48.7434158 C295.491027,46.3004463 293.744083,43.2052983 292.904728,39.5866234 C292.219129,36.6313956 292.463085,33.7447194 293.399648,30.879172 C294.417531,27.7628951 295.721897,24.771044 297.166934,21.8378842 C300.617359,14.8348302 304.603364,8.14119703 308.802478,1.57152007 C309.11934,1.07569539 309.443211,0.584566024 309.764746,0.0920280649 C309.777832,0.0718382343 309.803069,0.0600999607 309.878779,-1.03422758e-13" id="Fill-1-Copy-6" fill="#66080C"></path>
                            </g>
                            <g id="Group-2-Copy" transform="translate(-0.000000, 61.926387)">
                                <path d="M17.3661119,-1.03422758e-13 C18.3606268,1.56964194 19.3509356,3.10829484 20.3169423,4.66150321 C23.1845849,9.27041894 25.9349234,13.9478862 28.4427086,18.7657432 C30.4775384,22.6755274 32.4048784,26.6360209 33.7470997,30.8519392 C34.3621286,32.7821809 34.7776003,34.7424726 34.6467431,36.7957314 C34.4196123,40.3491416 33.253581,43.548995 31.0949041,46.3652416 C28.5604801,49.6726176 25.2591393,51.8606317 21.1969572,52.7424109 C15.4126005,53.9974671 10.2241116,52.6616515 5.76094554,48.7434158 C2.97836013,46.3004463 1.23141619,43.2052983 0.392060569,39.5866234 C-0.293537816,36.6313956 -0.0495825624,33.7447194 0.886981285,30.879172 C1.90486355,27.7628951 3.20922967,24.771044 4.6542673,21.8378842 C8.10469189,14.8348302 12.0906964,8.14119703 16.2898113,1.57152007 C16.6066727,1.07569539 16.9305443,0.584566024 17.2520792,0.0920280649 C17.2651649,0.0718382343 17.2904017,0.0600999607 17.3661119,-1.03422758e-13" id="Fill-1" fill="#66080C"></path>
                                <path d="M66.2469637,-1.03422758e-13 C67.2414786,1.56964194 68.2317874,3.10829484 69.1977941,4.66150321 C72.0654367,9.27041894 74.8157751,13.9478862 77.3235604,18.7657432 C79.3583902,22.6755274 81.2857302,26.6360209 82.6279514,30.8519392 C83.2429804,32.7821809 83.6584521,34.7424726 83.5275948,36.7957314 C83.3004641,40.3491416 82.1344327,43.548995 79.9757559,46.3652416 C77.4413319,49.6726176 74.139991,51.8606317 70.0778089,52.7424109 C64.2934523,53.9974671 59.1049633,52.6616515 54.6417973,48.7434158 C51.8592119,46.3004463 50.112268,43.2052983 49.2729123,39.5866234 C48.5873139,36.6313956 48.8312692,33.7447194 49.767833,30.879172 C50.7857153,27.7628951 52.0900814,24.771044 53.5351191,21.8378842 C56.9855437,14.8348302 60.9715482,8.14119703 65.170663,1.57152007 C65.4875244,1.07569539 65.8113961,0.584566024 66.132931,0.0920280649 C66.1460167,0.0718382343 66.1712534,0.0600999607 66.2469637,-1.03422758e-13" id="Fill-1-Copy" fill="#66080C"></path>
                                <path d="M115.127815,-1.03422758e-13 C116.12233,1.56964194 117.112639,3.10829484 118.078646,4.66150321 C120.946288,9.27041894 123.696627,13.9478862 126.204412,18.7657432 C128.239242,22.6755274 130.166582,26.6360209 131.508803,30.8519392 C132.123832,32.7821809 132.539304,34.7424726 132.408447,36.7957314 C132.181316,40.3491416 131.015285,43.548995 128.856608,46.3652416 C126.322184,49.6726176 123.020843,51.8606317 118.958661,52.7424109 C113.174304,53.9974671 107.985815,52.6616515 103.522649,48.7434158 C100.740064,46.3004463 98.9931197,43.2052983 98.1537641,39.5866234 C97.4681657,36.6313956 97.712121,33.7447194 98.6486848,30.879172 C99.6665671,27.7628951 100.970933,24.771044 102.415971,21.8378842 C105.866395,14.8348302 109.8524,8.14119703 114.051515,1.57152007 C114.368376,1.07569539 114.692248,0.584566024 115.013783,0.0920280649 C115.026868,0.0718382343 115.052105,0.0600999607 115.127815,-1.03422758e-13" id="Fill-1-Copy-2" fill="#66080C"></path>
                                <path d="M164.008667,-1.03422758e-13 C165.003182,1.56964194 165.993491,3.10829484 166.959498,4.66150321 C169.82714,9.27041894 172.577479,13.9478862 175.085264,18.7657432 C177.120094,22.6755274 179.047434,26.6360209 180.389655,30.8519392 C181.004684,32.7821809 181.420156,34.7424726 181.289298,36.7957314 C181.062168,40.3491416 179.896136,43.548995 177.737459,46.3652416 C175.203035,49.6726176 171.901695,51.8606317 167.839512,52.7424109 C162.055156,53.9974671 156.866667,52.6616515 152.403501,48.7434158 C149.620915,46.3004463 147.873971,43.2052983 147.034616,39.5866234 C146.349017,36.6313956 146.592973,33.7447194 147.529537,30.879172 C148.547419,27.7628951 149.851785,24.771044 151.296823,21.8378842 C154.747247,14.8348302 158.733252,8.14119703 162.932367,1.57152007 C163.249228,1.07569539 163.5731,0.584566024 163.894634,0.0920280649 C163.90772,0.0718382343 163.932957,0.0600999607 164.008667,-1.03422758e-13" id="Fill-1-Copy-3" fill="#66080C"></path>
                                <path d="M212.889519,-1.03422758e-13 C213.884034,1.56964194 214.874343,3.10829484 215.840349,4.66150321 C218.707992,9.27041894 221.45833,13.9478862 223.966116,18.7657432 C226.000945,22.6755274 227.928285,26.6360209 229.270507,30.8519392 C229.885536,32.7821809 230.301007,34.7424726 230.17015,36.7957314 C229.943019,40.3491416 228.776988,43.548995 226.618311,46.3652416 C224.083887,49.6726176 220.782546,51.8606317 216.720364,52.7424109 C210.936008,53.9974671 205.747519,52.6616515 201.284353,48.7434158 C198.501767,46.3004463 196.754823,43.2052983 195.915468,39.5866234 C195.229869,36.6313956 195.473824,33.7447194 196.410388,30.879172 C197.428271,27.7628951 198.732637,24.771044 200.177674,21.8378842 C203.628099,14.8348302 207.614103,8.14119703 211.813218,1.57152007 C212.13008,1.07569539 212.453951,0.584566024 212.775486,0.0920280649 C212.788572,0.0718382343 212.813809,0.0600999607 212.889519,-1.03422758e-13" id="Fill-1-Copy-4" fill="#66080C"></path>
                                <path d="M261.770371,-1.03422758e-13 C262.764886,1.56964194 263.755194,3.10829484 264.721201,4.66150321 C267.588844,9.27041894 270.339182,13.9478862 272.846967,18.7657432 C274.881797,22.6755274 276.809137,26.6360209 278.151358,30.8519392 C278.766387,32.7821809 279.181859,34.7424726 279.051002,36.7957314 C278.823871,40.3491416 277.65784,43.548995 275.499163,46.3652416 C272.964739,49.6726176 269.663398,51.8606317 265.601216,52.7424109 C259.816859,53.9974671 254.62837,52.6616515 250.165204,48.7434158 C247.382619,46.3004463 245.635675,43.2052983 244.796319,39.5866234 C244.110721,36.6313956 244.354676,33.7447194 245.29124,30.879172 C246.309122,27.7628951 247.613488,24.771044 249.058526,21.8378842 C252.508951,14.8348302 256.494955,8.14119703 260.69407,1.57152007 C261.010932,1.07569539 261.334803,0.584566024 261.656338,0.0920280649 C261.669424,0.0718382343 261.694661,0.0600999607 261.770371,-1.03422758e-13" id="Fill-1-Copy-5" fill="#66080C"></path>
                                <path d="M309.878779,-1.03422758e-13 C310.873294,1.56964194 311.863603,3.10829484 312.829609,4.66150321 C315.697252,9.27041894 318.447591,13.9478862 320.955376,18.7657432 C322.990206,22.6755274 324.917546,26.6360209 326.259767,30.8519392 C326.874796,32.7821809 327.290267,34.7424726 327.15941,36.7957314 C326.932279,40.3491416 325.766248,43.548995 323.607571,46.3652416 C321.073147,49.6726176 317.771806,51.8606317 313.709624,52.7424109 C307.925268,53.9974671 302.736779,52.6616515 298.273613,48.7434158 C295.491027,46.3004463 293.744083,43.2052983 292.904728,39.5866234 C292.219129,36.6313956 292.463085,33.7447194 293.399648,30.879172 C294.417531,27.7628951 295.721897,24.771044 297.166934,21.8378842 C300.617359,14.8348302 304.603364,8.14119703 308.802478,1.57152007 C309.11934,1.07569539 309.443211,0.584566024 309.764746,0.0920280649 C309.777832,0.0718382343 309.803069,0.0600999607 309.878779,-1.03422758e-13" id="Fill-1-Copy-6" fill="#66080C"></path>
                            </g>
                            <g id="Group-2-Copy-2" transform="translate(-0.000000, 185.779160)">
                                <path d="M17.3661119,-1.03422758e-13 C18.3606268,1.56964194 19.3509356,3.10829484 20.3169423,4.66150321 C23.1845849,9.27041894 25.9349234,13.9478862 28.4427086,18.7657432 C30.4775384,22.6755274 32.4048784,26.6360209 33.7470997,30.8519392 C34.3621286,32.7821809 34.7776003,34.7424726 34.6467431,36.7957314 C34.4196123,40.3491416 33.253581,43.548995 31.0949041,46.3652416 C28.5604801,49.6726176 25.2591393,51.8606317 21.1969572,52.7424109 C15.4126005,53.9974671 10.2241116,52.6616515 5.76094554,48.7434158 C2.97836013,46.3004463 1.23141619,43.2052983 0.392060569,39.5866234 C-0.293537816,36.6313956 -0.0495825624,33.7447194 0.886981285,30.879172 C1.90486355,27.7628951 3.20922967,24.771044 4.6542673,21.8378842 C8.10469189,14.8348302 12.0906964,8.14119703 16.2898113,1.57152007 C16.6066727,1.07569539 16.9305443,0.584566024 17.2520792,0.0920280649 C17.2651649,0.0718382343 17.2904017,0.0600999607 17.3661119,-1.03422758e-13" id="Fill-1" fill="#66080C"></path>
                                <path d="M66.2469637,-1.03422758e-13 C67.2414786,1.56964194 68.2317874,3.10829484 69.1977941,4.66150321 C72.0654367,9.27041894 74.8157751,13.9478862 77.3235604,18.7657432 C79.3583902,22.6755274 81.2857302,26.6360209 82.6279514,30.8519392 C83.2429804,32.7821809 83.6584521,34.7424726 83.5275948,36.7957314 C83.3004641,40.3491416 82.1344327,43.548995 79.9757559,46.3652416 C77.4413319,49.6726176 74.139991,51.8606317 70.0778089,52.7424109 C64.2934523,53.9974671 59.1049633,52.6616515 54.6417973,48.7434158 C51.8592119,46.3004463 50.112268,43.2052983 49.2729123,39.5866234 C48.5873139,36.6313956 48.8312692,33.7447194 49.767833,30.879172 C50.7857153,27.7628951 52.0900814,24.771044 53.5351191,21.8378842 C56.9855437,14.8348302 60.9715482,8.14119703 65.170663,1.57152007 C65.4875244,1.07569539 65.8113961,0.584566024 66.132931,0.0920280649 C66.1460167,0.0718382343 66.1712534,0.0600999607 66.2469637,-1.03422758e-13" id="Fill-1-Copy" fill="#66080C"></path>
                                <path d="M115.127815,-1.03422758e-13 C116.12233,1.56964194 117.112639,3.10829484 118.078646,4.66150321 C120.946288,9.27041894 123.696627,13.9478862 126.204412,18.7657432 C128.239242,22.6755274 130.166582,26.6360209 131.508803,30.8519392 C132.123832,32.7821809 132.539304,34.7424726 132.408447,36.7957314 C132.181316,40.3491416 131.015285,43.548995 128.856608,46.3652416 C126.322184,49.6726176 123.020843,51.8606317 118.958661,52.7424109 C113.174304,53.9974671 107.985815,52.6616515 103.522649,48.7434158 C100.740064,46.3004463 98.9931197,43.2052983 98.1537641,39.5866234 C97.4681657,36.6313956 97.712121,33.7447194 98.6486848,30.879172 C99.6665671,27.7628951 100.970933,24.771044 102.415971,21.8378842 C105.866395,14.8348302 109.8524,8.14119703 114.051515,1.57152007 C114.368376,1.07569539 114.692248,0.584566024 115.013783,0.0920280649 C115.026868,0.0718382343 115.052105,0.0600999607 115.127815,-1.03422758e-13" id="Fill-1-Copy-2" fill="#66080C"></path>
                                <path d="M164.008667,-1.03422758e-13 C165.003182,1.56964194 165.993491,3.10829484 166.959498,4.66150321 C169.82714,9.27041894 172.577479,13.9478862 175.085264,18.7657432 C177.120094,22.6755274 179.047434,26.6360209 180.389655,30.8519392 C181.004684,32.7821809 181.420156,34.7424726 181.289298,36.7957314 C181.062168,40.3491416 179.896136,43.548995 177.737459,46.3652416 C175.203035,49.6726176 171.901695,51.8606317 167.839512,52.7424109 C162.055156,53.9974671 156.866667,52.6616515 152.403501,48.7434158 C149.620915,46.3004463 147.873971,43.2052983 147.034616,39.5866234 C146.349017,36.6313956 146.592973,33.7447194 147.529537,30.879172 C148.547419,27.7628951 149.851785,24.771044 151.296823,21.8378842 C154.747247,14.8348302 158.733252,8.14119703 162.932367,1.57152007 C163.249228,1.07569539 163.5731,0.584566024 163.894634,0.0920280649 C163.90772,0.0718382343 163.932957,0.0600999607 164.008667,-1.03422758e-13" id="Fill-1-Copy-3" fill="#66080C"></path>
                                <path d="M212.889519,-1.03422758e-13 C213.884034,1.56964194 214.874343,3.10829484 215.840349,4.66150321 C218.707992,9.27041894 221.45833,13.9478862 223.966116,18.7657432 C226.000945,22.6755274 227.928285,26.6360209 229.270507,30.8519392 C229.885536,32.7821809 230.301007,34.7424726 230.17015,36.7957314 C229.943019,40.3491416 228.776988,43.548995 226.618311,46.3652416 C224.083887,49.6726176 220.782546,51.8606317 216.720364,52.7424109 C210.936008,53.9974671 205.747519,52.6616515 201.284353,48.7434158 C198.501767,46.3004463 196.754823,43.2052983 195.915468,39.5866234 C195.229869,36.6313956 195.473824,33.7447194 196.410388,30.879172 C197.428271,27.7628951 198.732637,24.771044 200.177674,21.8378842 C203.628099,14.8348302 207.614103,8.14119703 211.813218,1.57152007 C212.13008,1.07569539 212.453951,0.584566024 212.775486,0.0920280649 C212.788572,0.0718382343 212.813809,0.0600999607 212.889519,-1.03422758e-13" id="Fill-1-Copy-4" fill="#66080C"></path>
                                <path d="M261.770371,-1.03422758e-13 C262.764886,1.56964194 263.755194,3.10829484 264.721201,4.66150321 C267.588844,9.27041894 270.339182,13.9478862 272.846967,18.7657432 C274.881797,22.6755274 276.809137,26.6360209 278.151358,30.8519392 C278.766387,32.7821809 279.181859,34.7424726 279.051002,36.7957314 C278.823871,40.3491416 277.65784,43.548995 275.499163,46.3652416 C272.964739,49.6726176 269.663398,51.8606317 265.601216,52.7424109 C259.816859,53.9974671 254.62837,52.6616515 250.165204,48.7434158 C247.382619,46.3004463 245.635675,43.2052983 244.796319,39.5866234 C244.110721,36.6313956 244.354676,33.7447194 245.29124,30.879172 C246.309122,27.7628951 247.613488,24.771044 249.058526,21.8378842 C252.508951,14.8348302 256.494955,8.14119703 260.69407,1.57152007 C261.010932,1.07569539 261.334803,0.584566024 261.656338,0.0920280649 C261.669424,0.0718382343 261.694661,0.0600999607 261.770371,-1.03422758e-13" id="Fill-1-Copy-5" fill="#66080C"></path>
                                <path d="M309.878779,-1.03422758e-13 C310.873294,1.56964194 311.863603,3.10829484 312.829609,4.66150321 C315.697252,9.27041894 318.447591,13.9478862 320.955376,18.7657432 C322.990206,22.6755274 324.917546,26.6360209 326.259767,30.8519392 C326.874796,32.7821809 327.290267,34.7424726 327.15941,36.7957314 C326.932279,40.3491416 325.766248,43.548995 323.607571,46.3652416 C321.073147,49.6726176 317.771806,51.8606317 313.709624,52.7424109 C307.925268,53.9974671 302.736779,52.6616515 298.273613,48.7434158 C295.491027,46.3004463 293.744083,43.2052983 292.904728,39.5866234 C292.219129,36.6313956 292.463085,33.7447194 293.399648,30.879172 C294.417531,27.7628951 295.721897,24.771044 297.166934,21.8378842 C300.617359,14.8348302 304.603364,8.14119703 308.802478,1.57152007 C309.11934,1.07569539 309.443211,0.584566024 309.764746,0.0920280649 C309.777832,0.0718382343 309.803069,0.0600999607 309.878779,-1.03422758e-13" id="Fill-1-Copy-6" fill="#66080C"></path>
                            </g>
                        </g>
                    </g>
                </g>
                <path d="M176.070871,108.117749 C178.368927,111.727899 180.657263,115.266774 182.889443,118.839127 C189.515791,129.439555 195.87108,140.19765 201.665894,151.27864 C206.367836,160.271077 210.821398,169.380145 213.922909,179.076685 C215.344075,183.516209 216.304117,188.024846 216.001742,192.747307 C215.476904,200.92009 212.78252,208.279698 207.794401,214.757017 C201.938032,222.363926 194.309525,227.396322 184.92292,229.424399 C171.556834,232.311007 159.567638,229.238653 149.254467,220.226778 C142.824664,214.607989 138.787948,207.489202 136.848424,199.166311 C135.264191,192.369337 135.827906,185.730031 137.992052,179.13932 C140.344103,171.971936 143.358141,165.09073 146.697232,158.344512 C154.670231,142.237606 163.880811,126.842364 173.583831,111.732218 C174.316012,110.59183 175.064392,109.462241 175.807372,108.329412 C175.83761,108.282976 175.895925,108.255978 176.070871,108.117749" id="Fill-1" fill="#5F0D0D"></path>
            </g>
        </g>
    </g>
</svg>